<svg version="1.1" xmlns="http://www.w3.org/2000/svg" width="300px" height="300px" viewBox="0 0 301 301"  preserveAspectRatio="xMinYMin meet"><rect width="100%" height="100%" fill="#ffffff" cx="0" cy="0"/><path d="M7,7l7,0 0,7 -7,0 0,-7z M14,7l7,0 0,7 -7,0 0,-7z M21,7l7,0 0,7 -7,0 0,-7z M28,7l7,0 0,7 -7,0 0,-7z M35,7l7,0 0,7 -7,0 0,-7z M42,7l7,0 0,7 -7,0 0,-7z M49,7l7,0 0,7 -7,0 0,-7z M63,7l7,0 0,7 -7,0 0,-7z M70,7l7,0 0,7 -7,0 0,-7z M98,7l7,0 0,7 -7,0 0,-7z M105,7l7,0 0,7 -7,0 0,-7z M119,7l7,0 0,7 -7,0 0,-7z M126,7l7,0 0,7 -7,0 0,-7z M133,7l7,0 0,7 -7,0 0,-7z M140,7l7,0 0,7 -7,0 0,-7z M161,7l7,0 0,7 -7,0 0,-7z M168,7l7,0 0,7 -7,0 0,-7z M203,7l7,0 0,7 -7,0 0,-7z M210,7l7,0 0,7 -7,0 0,-7z M217,7l7,0 0,7 -7,0 0,-7z M224,7l7,0 0,7 -7,0 0,-7z M231,7l7,0 0,7 -7,0 0,-7z M245,7l7,0 0,7 -7,0 0,-7z M252,7l7,0 0,7 -7,0 0,-7z M259,7l7,0 0,7 -7,0 0,-7z M266,7l7,0 0,7 -7,0 0,-7z M273,7l7,0 0,7 -7,0 0,-7z M280,7l7,0 0,7 -7,0 0,-7z M287,7l7,0 0,7 -7,0 0,-7z M7,14l7,0 0,7 -7,0 0,-7z M49,14l7,0 0,7 -7,0 0,-7z M70,14l7,0 0,7 -7,0 0,-7z M84,14l7,0 0,7 -7,0 0,-7z M105,14l7,0 0,7 -7,0 0,-7z M119,14l7,0 0,7 -7,0 0,-7z M133,14l7,0 0,7 -7,0 0,-7z M147,14l7,0 0,7 -7,0 0,-7z M154,14l7,0 0,7 -7,0 0,-7z M161,14l7,0 0,7 -7,0 0,-7z M168,14l7,0 0,7 -7,0 0,-7z M189,14l7,0 0,7 -7,0 0,-7z M245,14l7,0 0,7 -7,0 0,-7z M287,14l7,0 0,7 -7,0 0,-7z M7,21l7,0 0,7 -7,0 0,-7z M21,21l7,0 0,7 -7,0 0,-7z M28,21l7,0 0,7 -7,0 0,-7z M35,21l7,0 0,7 -7,0 0,-7z M49,21l7,0 0,7 -7,0 0,-7z M63,21l7,0 0,7 -7,0 0,-7z M70,21l7,0 0,7 -7,0 0,-7z M84,21l7,0 0,7 -7,0 0,-7z M98,21l7,0 0,7 -7,0 0,-7z M105,21l7,0 0,7 -7,0 0,-7z M112,21l7,0 0,7 -7,0 0,-7z M133,21l7,0 0,7 -7,0 0,-7z M140,21l7,0 0,7 -7,0 0,-7z M161,21l7,0 0,7 -7,0 0,-7z M182,21l7,0 0,7 -7,0 0,-7z M189,21l7,0 0,7 -7,0 0,-7z M217,21l7,0 0,7 -7,0 0,-7z M224,21l7,0 0,7 -7,0 0,-7z M231,21l7,0 0,7 -7,0 0,-7z M245,21l7,0 0,7 -7,0 0,-7z M259,21l7,0 0,7 -7,0 0,-7z M266,21l7,0 0,7 -7,0 0,-7z M273,21l7,0 0,7 -7,0 0,-7z M287,21l7,0 0,7 -7,0 0,-7z M7,28l7,0 0,7 -7,0 0,-7z M21,28l7,0 0,7 -7,0 0,-7z M28,28l7,0 0,7 -7,0 0,-7z M35,28l7,0 0,7 -7,0 0,-7z M49,28l7,0 0,7 -7,0 0,-7z M63,28l7,0 0,7 -7,0 0,-7z M77,28l7,0 0,7 -7,0 0,-7z M84,28l7,0 0,7 -7,0 0,-7z M98,28l7,0 0,7 -7,0 0,-7z M105,28l7,0 0,7 -7,0 0,-7z M112,28l7,0 0,7 -7,0 0,-7z M119,28l7,0 0,7 -7,0 0,-7z M126,28l7,0 0,7 -7,0 0,-7z M140,28l7,0 0,7 -7,0 0,-7z M161,28l7,0 0,7 -7,0 0,-7z M168,28l7,0 0,7 -7,0 0,-7z M175,28l7,0 0,7 -7,0 0,-7z M182,28l7,0 0,7 -7,0 0,-7z M189,28l7,0 0,7 -7,0 0,-7z M210,28l7,0 0,7 -7,0 0,-7z M245,28l7,0 0,7 -7,0 0,-7z M259,28l7,0 0,7 -7,0 0,-7z M266,28l7,0 0,7 -7,0 0,-7z M273,28l7,0 0,7 -7,0 0,-7z M287,28l7,0 0,7 -7,0 0,-7z M7,35l7,0 0,7 -7,0 0,-7z M21,35l7,0 0,7 -7,0 0,-7z M28,35l7,0 0,7 -7,0 0,-7z M35,35l7,0 0,7 -7,0 0,-7z M49,35l7,0 0,7 -7,0 0,-7z M63,35l7,0 0,7 -7,0 0,-7z M70,35l7,0 0,7 -7,0 0,-7z M105,35l7,0 0,7 -7,0 0,-7z M112,35l7,0 0,7 -7,0 0,-7z M119,35l7,0 0,7 -7,0 0,-7z M133,35l7,0 0,7 -7,0 0,-7z M140,35l7,0 0,7 -7,0 0,-7z M175,35l7,0 0,7 -7,0 0,-7z M196,35l7,0 0,7 -7,0 0,-7z M203,35l7,0 0,7 -7,0 0,-7z M210,35l7,0 0,7 -7,0 0,-7z M217,35l7,0 0,7 -7,0 0,-7z M224,35l7,0 0,7 -7,0 0,-7z M245,35l7,0 0,7 -7,0 0,-7z M259,35l7,0 0,7 -7,0 0,-7z M266,35l7,0 0,7 -7,0 0,-7z M273,35l7,0 0,7 -7,0 0,-7z M287,35l7,0 0,7 -7,0 0,-7z M7,42l7,0 0,7 -7,0 0,-7z M49,42l7,0 0,7 -7,0 0,-7z M119,42l7,0 0,7 -7,0 0,-7z M126,42l7,0 0,7 -7,0 0,-7z M133,42l7,0 0,7 -7,0 0,-7z M140,42l7,0 0,7 -7,0 0,-7z M175,42l7,0 0,7 -7,0 0,-7z M182,42l7,0 0,7 -7,0 0,-7z M189,42l7,0 0,7 -7,0 0,-7z M224,42l7,0 0,7 -7,0 0,-7z M231,42l7,0 0,7 -7,0 0,-7z M245,42l7,0 0,7 -7,0 0,-7z M287,42l7,0 0,7 -7,0 0,-7z M7,49l7,0 0,7 -7,0 0,-7z M14,49l7,0 0,7 -7,0 0,-7z M21,49l7,0 0,7 -7,0 0,-7z M28,49l7,0 0,7 -7,0 0,-7z M35,49l7,0 0,7 -7,0 0,-7z M42,49l7,0 0,7 -7,0 0,-7z M49,49l7,0 0,7 -7,0 0,-7z M63,49l7,0 0,7 -7,0 0,-7z M77,49l7,0 0,7 -7,0 0,-7z M91,49l7,0 0,7 -7,0 0,-7z M105,49l7,0 0,7 -7,0 0,-7z M119,49l7,0 0,7 -7,0 0,-7z M133,49l7,0 0,7 -7,0 0,-7z M147,49l7,0 0,7 -7,0 0,-7z M161,49l7,0 0,7 -7,0 0,-7z M175,49l7,0 0,7 -7,0 0,-7z M189,49l7,0 0,7 -7,0 0,-7z M203,49l7,0 0,7 -7,0 0,-7z M217,49l7,0 0,7 -7,0 0,-7z M231,49l7,0 0,7 -7,0 0,-7z M245,49l7,0 0,7 -7,0 0,-7z M252,49l7,0 0,7 -7,0 0,-7z M259,49l7,0 0,7 -7,0 0,-7z M266,49l7,0 0,7 -7,0 0,-7z M273,49l7,0 0,7 -7,0 0,-7z M280,49l7,0 0,7 -7,0 0,-7z M287,49l7,0 0,7 -7,0 0,-7z M70,56l7,0 0,7 -7,0 0,-7z M84,56l7,0 0,7 -7,0 0,-7z M91,56l7,0 0,7 -7,0 0,-7z M105,56l7,0 0,7 -7,0 0,-7z M126,56l7,0 0,7 -7,0 0,-7z M133,56l7,0 0,7 -7,0 0,-7z M140,56l7,0 0,7 -7,0 0,-7z M161,56l7,0 0,7 -7,0 0,-7z M168,56l7,0 0,7 -7,0 0,-7z M203,56l7,0 0,7 -7,0 0,-7z M210,56l7,0 0,7 -7,0 0,-7z M217,56l7,0 0,7 -7,0 0,-7z M224,56l7,0 0,7 -7,0 0,-7z M7,63l7,0 0,7 -7,0 0,-7z M14,63l7,0 0,7 -7,0 0,-7z M21,63l7,0 0,7 -7,0 0,-7z M28,63l7,0 0,7 -7,0 0,-7z M49,63l7,0 0,7 -7,0 0,-7z M63,63l7,0 0,7 -7,0 0,-7z M70,63l7,0 0,7 -7,0 0,-7z M77,63l7,0 0,7 -7,0 0,-7z M84,63l7,0 0,7 -7,0 0,-7z M105,63l7,0 0,7 -7,0 0,-7z M119,63l7,0 0,7 -7,0 0,-7z M133,63l7,0 0,7 -7,0 0,-7z M154,63l7,0 0,7 -7,0 0,-7z M168,63l7,0 0,7 -7,0 0,-7z M203,63l7,0 0,7 -7,0 0,-7z M210,63l7,0 0,7 -7,0 0,-7z M217,63l7,0 0,7 -7,0 0,-7z M238,63l7,0 0,7 -7,0 0,-7z M259,63l7,0 0,7 -7,0 0,-7z M266,63l7,0 0,7 -7,0 0,-7z M273,63l7,0 0,7 -7,0 0,-7z M287,63l7,0 0,7 -7,0 0,-7z M7,70l7,0 0,7 -7,0 0,-7z M28,70l7,0 0,7 -7,0 0,-7z M77,70l7,0 0,7 -7,0 0,-7z M98,70l7,0 0,7 -7,0 0,-7z M119,70l7,0 0,7 -7,0 0,-7z M133,70l7,0 0,7 -7,0 0,-7z M140,70l7,0 0,7 -7,0 0,-7z M147,70l7,0 0,7 -7,0 0,-7z M154,70l7,0 0,7 -7,0 0,-7z M168,70l7,0 0,7 -7,0 0,-7z M203,70l7,0 0,7 -7,0 0,-7z M224,70l7,0 0,7 -7,0 0,-7z M231,70l7,0 0,7 -7,0 0,-7z M238,70l7,0 0,7 -7,0 0,-7z M245,70l7,0 0,7 -7,0 0,-7z M252,70l7,0 0,7 -7,0 0,-7z M259,70l7,0 0,7 -7,0 0,-7z M266,70l7,0 0,7 -7,0 0,-7z M280,70l7,0 0,7 -7,0 0,-7z M287,70l7,0 0,7 -7,0 0,-7z M14,77l7,0 0,7 -7,0 0,-7z M49,77l7,0 0,7 -7,0 0,-7z M70,77l7,0 0,7 -7,0 0,-7z M84,77l7,0 0,7 -7,0 0,-7z M91,77l7,0 0,7 -7,0 0,-7z M98,77l7,0 0,7 -7,0 0,-7z M119,77l7,0 0,7 -7,0 0,-7z M126,77l7,0 0,7 -7,0 0,-7z M133,77l7,0 0,7 -7,0 0,-7z M154,77l7,0 0,7 -7,0 0,-7z M161,77l7,0 0,7 -7,0 0,-7z M168,77l7,0 0,7 -7,0 0,-7z M182,77l7,0 0,7 -7,0 0,-7z M189,77l7,0 0,7 -7,0 0,-7z M203,77l7,0 0,7 -7,0 0,-7z M238,77l7,0 0,7 -7,0 0,-7z M245,77l7,0 0,7 -7,0 0,-7z M259,77l7,0 0,7 -7,0 0,-7z M273,77l7,0 0,7 -7,0 0,-7z M21,84l7,0 0,7 -7,0 0,-7z M28,84l7,0 0,7 -7,0 0,-7z M35,84l7,0 0,7 -7,0 0,-7z M56,84l7,0 0,7 -7,0 0,-7z M63,84l7,0 0,7 -7,0 0,-7z M77,84l7,0 0,7 -7,0 0,-7z M84,84l7,0 0,7 -7,0 0,-7z M98,84l7,0 0,7 -7,0 0,-7z M161,84l7,0 0,7 -7,0 0,-7z M175,84l7,0 0,7 -7,0 0,-7z M182,84l7,0 0,7 -7,0 0,-7z M196,84l7,0 0,7 -7,0 0,-7z M217,84l7,0 0,7 -7,0 0,-7z M238,84l7,0 0,7 -7,0 0,-7z M252,84l7,0 0,7 -7,0 0,-7z M259,84l7,0 0,7 -7,0 0,-7z M7,91l7,0 0,7 -7,0 0,-7z M14,91l7,0 0,7 -7,0 0,-7z M49,91l7,0 0,7 -7,0 0,-7z M56,91l7,0 0,7 -7,0 0,-7z M77,91l7,0 0,7 -7,0 0,-7z M84,91l7,0 0,7 -7,0 0,-7z M98,91l7,0 0,7 -7,0 0,-7z M105,91l7,0 0,7 -7,0 0,-7z M112,91l7,0 0,7 -7,0 0,-7z M119,91l7,0 0,7 -7,0 0,-7z M126,91l7,0 0,7 -7,0 0,-7z M161,91l7,0 0,7 -7,0 0,-7z M175,91l7,0 0,7 -7,0 0,-7z M182,91l7,0 0,7 -7,0 0,-7z M196,91l7,0 0,7 -7,0 0,-7z M210,91l7,0 0,7 -7,0 0,-7z M217,91l7,0 0,7 -7,0 0,-7z M266,91l7,0 0,7 -7,0 0,-7z M273,91l7,0 0,7 -7,0 0,-7z M280,91l7,0 0,7 -7,0 0,-7z M7,98l7,0 0,7 -7,0 0,-7z M14,98l7,0 0,7 -7,0 0,-7z M21,98l7,0 0,7 -7,0 0,-7z M28,98l7,0 0,7 -7,0 0,-7z M70,98l7,0 0,7 -7,0 0,-7z M77,98l7,0 0,7 -7,0 0,-7z M84,98l7,0 0,7 -7,0 0,-7z M105,98l7,0 0,7 -7,0 0,-7z M112,98l7,0 0,7 -7,0 0,-7z M119,98l7,0 0,7 -7,0 0,-7z M140,98l7,0 0,7 -7,0 0,-7z M175,98l7,0 0,7 -7,0 0,-7z M182,98l7,0 0,7 -7,0 0,-7z M189,98l7,0 0,7 -7,0 0,-7z M196,98l7,0 0,7 -7,0 0,-7z M203,98l7,0 0,7 -7,0 0,-7z M210,98l7,0 0,7 -7,0 0,-7z M224,98l7,0 0,7 -7,0 0,-7z M245,98l7,0 0,7 -7,0 0,-7z M252,98l7,0 0,7 -7,0 0,-7z M266,98l7,0 0,7 -7,0 0,-7z M280,98l7,0 0,7 -7,0 0,-7z M287,98l7,0 0,7 -7,0 0,-7z M7,105l7,0 0,7 -7,0 0,-7z M35,105l7,0 0,7 -7,0 0,-7z M49,105l7,0 0,7 -7,0 0,-7z M63,105l7,0 0,7 -7,0 0,-7z M77,105l7,0 0,7 -7,0 0,-7z M91,105l7,0 0,7 -7,0 0,-7z M98,105l7,0 0,7 -7,0 0,-7z M105,105l7,0 0,7 -7,0 0,-7z M133,105l7,0 0,7 -7,0 0,-7z M140,105l7,0 0,7 -7,0 0,-7z M147,105l7,0 0,7 -7,0 0,-7z M154,105l7,0 0,7 -7,0 0,-7z M161,105l7,0 0,7 -7,0 0,-7z M175,105l7,0 0,7 -7,0 0,-7z M189,105l7,0 0,7 -7,0 0,-7z M203,105l7,0 0,7 -7,0 0,-7z M210,105l7,0 0,7 -7,0 0,-7z M224,105l7,0 0,7 -7,0 0,-7z M231,105l7,0 0,7 -7,0 0,-7z M238,105l7,0 0,7 -7,0 0,-7z M259,105l7,0 0,7 -7,0 0,-7z M273,105l7,0 0,7 -7,0 0,-7z M280,105l7,0 0,7 -7,0 0,-7z M287,105l7,0 0,7 -7,0 0,-7z M7,112l7,0 0,7 -7,0 0,-7z M14,112l7,0 0,7 -7,0 0,-7z M63,112l7,0 0,7 -7,0 0,-7z M70,112l7,0 0,7 -7,0 0,-7z M77,112l7,0 0,7 -7,0 0,-7z M91,112l7,0 0,7 -7,0 0,-7z M105,112l7,0 0,7 -7,0 0,-7z M112,112l7,0 0,7 -7,0 0,-7z M133,112l7,0 0,7 -7,0 0,-7z M147,112l7,0 0,7 -7,0 0,-7z M154,112l7,0 0,7 -7,0 0,-7z M203,112l7,0 0,7 -7,0 0,-7z M217,112l7,0 0,7 -7,0 0,-7z M224,112l7,0 0,7 -7,0 0,-7z M231,112l7,0 0,7 -7,0 0,-7z M238,112l7,0 0,7 -7,0 0,-7z M259,112l7,0 0,7 -7,0 0,-7z M266,112l7,0 0,7 -7,0 0,-7z M280,112l7,0 0,7 -7,0 0,-7z M7,119l7,0 0,7 -7,0 0,-7z M14,119l7,0 0,7 -7,0 0,-7z M28,119l7,0 0,7 -7,0 0,-7z M49,119l7,0 0,7 -7,0 0,-7z M56,119l7,0 0,7 -7,0 0,-7z M63,119l7,0 0,7 -7,0 0,-7z M70,119l7,0 0,7 -7,0 0,-7z M84,119l7,0 0,7 -7,0 0,-7z M98,119l7,0 0,7 -7,0 0,-7z M112,119l7,0 0,7 -7,0 0,-7z M133,119l7,0 0,7 -7,0 0,-7z M140,119l7,0 0,7 -7,0 0,-7z M147,119l7,0 0,7 -7,0 0,-7z M154,119l7,0 0,7 -7,0 0,-7z M175,119l7,0 0,7 -7,0 0,-7z M182,119l7,0 0,7 -7,0 0,-7z M196,119l7,0 0,7 -7,0 0,-7z M217,119l7,0 0,7 -7,0 0,-7z M224,119l7,0 0,7 -7,0 0,-7z M238,119l7,0 0,7 -7,0 0,-7z M252,119l7,0 0,7 -7,0 0,-7z M259,119l7,0 0,7 -7,0 0,-7z M280,119l7,0 0,7 -7,0 0,-7z M21,126l7,0 0,7 -7,0 0,-7z M35,126l7,0 0,7 -7,0 0,-7z M42,126l7,0 0,7 -7,0 0,-7z M56,126l7,0 0,7 -7,0 0,-7z M63,126l7,0 0,7 -7,0 0,-7z M77,126l7,0 0,7 -7,0 0,-7z M84,126l7,0 0,7 -7,0 0,-7z M91,126l7,0 0,7 -7,0 0,-7z M98,126l7,0 0,7 -7,0 0,-7z M105,126l7,0 0,7 -7,0 0,-7z M112,126l7,0 0,7 -7,0 0,-7z M147,126l7,0 0,7 -7,0 0,-7z M161,126l7,0 0,7 -7,0 0,-7z M168,126l7,0 0,7 -7,0 0,-7z M175,126l7,0 0,7 -7,0 0,-7z M196,126l7,0 0,7 -7,0 0,-7z M210,126l7,0 0,7 -7,0 0,-7z M231,126l7,0 0,7 -7,0 0,-7z M252,126l7,0 0,7 -7,0 0,-7z M266,126l7,0 0,7 -7,0 0,-7z M7,133l7,0 0,7 -7,0 0,-7z M21,133l7,0 0,7 -7,0 0,-7z M35,133l7,0 0,7 -7,0 0,-7z M49,133l7,0 0,7 -7,0 0,-7z M77,133l7,0 0,7 -7,0 0,-7z M98,133l7,0 0,7 -7,0 0,-7z M112,133l7,0 0,7 -7,0 0,-7z M154,133l7,0 0,7 -7,0 0,-7z M161,133l7,0 0,7 -7,0 0,-7z M189,133l7,0 0,7 -7,0 0,-7z M196,133l7,0 0,7 -7,0 0,-7z M203,133l7,0 0,7 -7,0 0,-7z M210,133l7,0 0,7 -7,0 0,-7z M231,133l7,0 0,7 -7,0 0,-7z M245,133l7,0 0,7 -7,0 0,-7z M252,133l7,0 0,7 -7,0 0,-7z M7,140l7,0 0,7 -7,0 0,-7z M14,140l7,0 0,7 -7,0 0,-7z M28,140l7,0 0,7 -7,0 0,-7z M56,140l7,0 0,7 -7,0 0,-7z M70,140l7,0 0,7 -7,0 0,-7z M77,140l7,0 0,7 -7,0 0,-7z M91,140l7,0 0,7 -7,0 0,-7z M105,140l7,0 0,7 -7,0 0,-7z M112,140l7,0 0,7 -7,0 0,-7z M126,140l7,0 0,7 -7,0 0,-7z M133,140l7,0 0,7 -7,0 0,-7z M140,140l7,0 0,7 -7,0 0,-7z M161,140l7,0 0,7 -7,0 0,-7z M168,140l7,0 0,7 -7,0 0,-7z M196,140l7,0 0,7 -7,0 0,-7z M203,140l7,0 0,7 -7,0 0,-7z M210,140l7,0 0,7 -7,0 0,-7z M217,140l7,0 0,7 -7,0 0,-7z M245,140l7,0 0,7 -7,0 0,-7z M252,140l7,0 0,7 -7,0 0,-7z M266,140l7,0 0,7 -7,0 0,-7z M273,140l7,0 0,7 -7,0 0,-7z M280,140l7,0 0,7 -7,0 0,-7z M287,140l7,0 0,7 -7,0 0,-7z M21,147l7,0 0,7 -7,0 0,-7z M49,147l7,0 0,7 -7,0 0,-7z M77,147l7,0 0,7 -7,0 0,-7z M84,147l7,0 0,7 -7,0 0,-7z M98,147l7,0 0,7 -7,0 0,-7z M119,147l7,0 0,7 -7,0 0,-7z M126,147l7,0 0,7 -7,0 0,-7z M133,147l7,0 0,7 -7,0 0,-7z M154,147l7,0 0,7 -7,0 0,-7z M168,147l7,0 0,7 -7,0 0,-7z M189,147l7,0 0,7 -7,0 0,-7z M196,147l7,0 0,7 -7,0 0,-7z M203,147l7,0 0,7 -7,0 0,-7z M210,147l7,0 0,7 -7,0 0,-7z M224,147l7,0 0,7 -7,0 0,-7z M238,147l7,0 0,7 -7,0 0,-7z M245,147l7,0 0,7 -7,0 0,-7z M252,147l7,0 0,7 -7,0 0,-7z M259,147l7,0 0,7 -7,0 0,-7z M273,147l7,0 0,7 -7,0 0,-7z M280,147l7,0 0,7 -7,0 0,-7z M7,154l7,0 0,7 -7,0 0,-7z M28,154l7,0 0,7 -7,0 0,-7z M35,154l7,0 0,7 -7,0 0,-7z M42,154l7,0 0,7 -7,0 0,-7z M63,154l7,0 0,7 -7,0 0,-7z M77,154l7,0 0,7 -7,0 0,-7z M119,154l7,0 0,7 -7,0 0,-7z M126,154l7,0 0,7 -7,0 0,-7z M133,154l7,0 0,7 -7,0 0,-7z M140,154l7,0 0,7 -7,0 0,-7z M161,154l7,0 0,7 -7,0 0,-7z M168,154l7,0 0,7 -7,0 0,-7z M175,154l7,0 0,7 -7,0 0,-7z M203,154l7,0 0,7 -7,0 0,-7z M224,154l7,0 0,7 -7,0 0,-7z M231,154l7,0 0,7 -7,0 0,-7z M238,154l7,0 0,7 -7,0 0,-7z M245,154l7,0 0,7 -7,0 0,-7z M252,154l7,0 0,7 -7,0 0,-7z M259,154l7,0 0,7 -7,0 0,-7z M266,154l7,0 0,7 -7,0 0,-7z M273,154l7,0 0,7 -7,0 0,-7z M287,154l7,0 0,7 -7,0 0,-7z M7,161l7,0 0,7 -7,0 0,-7z M14,161l7,0 0,7 -7,0 0,-7z M49,161l7,0 0,7 -7,0 0,-7z M56,161l7,0 0,7 -7,0 0,-7z M63,161l7,0 0,7 -7,0 0,-7z M70,161l7,0 0,7 -7,0 0,-7z M77,161l7,0 0,7 -7,0 0,-7z M98,161l7,0 0,7 -7,0 0,-7z M105,161l7,0 0,7 -7,0 0,-7z M126,161l7,0 0,7 -7,0 0,-7z M154,161l7,0 0,7 -7,0 0,-7z M161,161l7,0 0,7 -7,0 0,-7z M168,161l7,0 0,7 -7,0 0,-7z M182,161l7,0 0,7 -7,0 0,-7z M189,161l7,0 0,7 -7,0 0,-7z M203,161l7,0 0,7 -7,0 0,-7z M231,161l7,0 0,7 -7,0 0,-7z M266,161l7,0 0,7 -7,0 0,-7z M273,161l7,0 0,7 -7,0 0,-7z M280,161l7,0 0,7 -7,0 0,-7z M35,168l7,0 0,7 -7,0 0,-7z M56,168l7,0 0,7 -7,0 0,-7z M70,168l7,0 0,7 -7,0 0,-7z M84,168l7,0 0,7 -7,0 0,-7z M91,168l7,0 0,7 -7,0 0,-7z M98,168l7,0 0,7 -7,0 0,-7z M105,168l7,0 0,7 -7,0 0,-7z M112,168l7,0 0,7 -7,0 0,-7z M133,168l7,0 0,7 -7,0 0,-7z M140,168l7,0 0,7 -7,0 0,-7z M147,168l7,0 0,7 -7,0 0,-7z M175,168l7,0 0,7 -7,0 0,-7z M182,168l7,0 0,7 -7,0 0,-7z M189,168l7,0 0,7 -7,0 0,-7z M203,168l7,0 0,7 -7,0 0,-7z M217,168l7,0 0,7 -7,0 0,-7z M238,168l7,0 0,7 -7,0 0,-7z M245,168l7,0 0,7 -7,0 0,-7z M252,168l7,0 0,7 -7,0 0,-7z M287,168l7,0 0,7 -7,0 0,-7z M14,175l7,0 0,7 -7,0 0,-7z M28,175l7,0 0,7 -7,0 0,-7z M35,175l7,0 0,7 -7,0 0,-7z M42,175l7,0 0,7 -7,0 0,-7z M49,175l7,0 0,7 -7,0 0,-7z M56,175l7,0 0,7 -7,0 0,-7z M63,175l7,0 0,7 -7,0 0,-7z M70,175l7,0 0,7 -7,0 0,-7z M84,175l7,0 0,7 -7,0 0,-7z M91,175l7,0 0,7 -7,0 0,-7z M98,175l7,0 0,7 -7,0 0,-7z M105,175l7,0 0,7 -7,0 0,-7z M119,175l7,0 0,7 -7,0 0,-7z M126,175l7,0 0,7 -7,0 0,-7z M161,175l7,0 0,7 -7,0 0,-7z M168,175l7,0 0,7 -7,0 0,-7z M175,175l7,0 0,7 -7,0 0,-7z M182,175l7,0 0,7 -7,0 0,-7z M189,175l7,0 0,7 -7,0 0,-7z M210,175l7,0 0,7 -7,0 0,-7z M273,175l7,0 0,7 -7,0 0,-7z M280,175l7,0 0,7 -7,0 0,-7z M287,175l7,0 0,7 -7,0 0,-7z M56,182l7,0 0,7 -7,0 0,-7z M70,182l7,0 0,7 -7,0 0,-7z M98,182l7,0 0,7 -7,0 0,-7z M119,182l7,0 0,7 -7,0 0,-7z M126,182l7,0 0,7 -7,0 0,-7z M140,182l7,0 0,7 -7,0 0,-7z M175,182l7,0 0,7 -7,0 0,-7z M182,182l7,0 0,7 -7,0 0,-7z M189,182l7,0 0,7 -7,0 0,-7z M196,182l7,0 0,7 -7,0 0,-7z M203,182l7,0 0,7 -7,0 0,-7z M210,182l7,0 0,7 -7,0 0,-7z M224,182l7,0 0,7 -7,0 0,-7z M245,182l7,0 0,7 -7,0 0,-7z M273,182l7,0 0,7 -7,0 0,-7z M287,182l7,0 0,7 -7,0 0,-7z M7,189l7,0 0,7 -7,0 0,-7z M21,189l7,0 0,7 -7,0 0,-7z M28,189l7,0 0,7 -7,0 0,-7z M35,189l7,0 0,7 -7,0 0,-7z M49,189l7,0 0,7 -7,0 0,-7z M70,189l7,0 0,7 -7,0 0,-7z M77,189l7,0 0,7 -7,0 0,-7z M105,189l7,0 0,7 -7,0 0,-7z M119,189l7,0 0,7 -7,0 0,-7z M126,189l7,0 0,7 -7,0 0,-7z M140,189l7,0 0,7 -7,0 0,-7z M147,189l7,0 0,7 -7,0 0,-7z M154,189l7,0 0,7 -7,0 0,-7z M161,189l7,0 0,7 -7,0 0,-7z M175,189l7,0 0,7 -7,0 0,-7z M182,189l7,0 0,7 -7,0 0,-7z M189,189l7,0 0,7 -7,0 0,-7z M224,189l7,0 0,7 -7,0 0,-7z M238,189l7,0 0,7 -7,0 0,-7z M252,189l7,0 0,7 -7,0 0,-7z M259,189l7,0 0,7 -7,0 0,-7z M273,189l7,0 0,7 -7,0 0,-7z M280,189l7,0 0,7 -7,0 0,-7z M287,189l7,0 0,7 -7,0 0,-7z M7,196l7,0 0,7 -7,0 0,-7z M21,196l7,0 0,7 -7,0 0,-7z M28,196l7,0 0,7 -7,0 0,-7z M35,196l7,0 0,7 -7,0 0,-7z M42,196l7,0 0,7 -7,0 0,-7z M63,196l7,0 0,7 -7,0 0,-7z M70,196l7,0 0,7 -7,0 0,-7z M77,196l7,0 0,7 -7,0 0,-7z M84,196l7,0 0,7 -7,0 0,-7z M98,196l7,0 0,7 -7,0 0,-7z M133,196l7,0 0,7 -7,0 0,-7z M147,196l7,0 0,7 -7,0 0,-7z M154,196l7,0 0,7 -7,0 0,-7z M168,196l7,0 0,7 -7,0 0,-7z M189,196l7,0 0,7 -7,0 0,-7z M203,196l7,0 0,7 -7,0 0,-7z M217,196l7,0 0,7 -7,0 0,-7z M224,196l7,0 0,7 -7,0 0,-7z M245,196l7,0 0,7 -7,0 0,-7z M252,196l7,0 0,7 -7,0 0,-7z M280,196l7,0 0,7 -7,0 0,-7z M7,203l7,0 0,7 -7,0 0,-7z M42,203l7,0 0,7 -7,0 0,-7z M49,203l7,0 0,7 -7,0 0,-7z M91,203l7,0 0,7 -7,0 0,-7z M133,203l7,0 0,7 -7,0 0,-7z M147,203l7,0 0,7 -7,0 0,-7z M154,203l7,0 0,7 -7,0 0,-7z M161,203l7,0 0,7 -7,0 0,-7z M168,203l7,0 0,7 -7,0 0,-7z M182,203l7,0 0,7 -7,0 0,-7z M196,203l7,0 0,7 -7,0 0,-7z M231,203l7,0 0,7 -7,0 0,-7z M238,203l7,0 0,7 -7,0 0,-7z M252,203l7,0 0,7 -7,0 0,-7z M259,203l7,0 0,7 -7,0 0,-7z M266,203l7,0 0,7 -7,0 0,-7z M280,203l7,0 0,7 -7,0 0,-7z M287,203l7,0 0,7 -7,0 0,-7z M28,210l7,0 0,7 -7,0 0,-7z M35,210l7,0 0,7 -7,0 0,-7z M42,210l7,0 0,7 -7,0 0,-7z M63,210l7,0 0,7 -7,0 0,-7z M70,210l7,0 0,7 -7,0 0,-7z M98,210l7,0 0,7 -7,0 0,-7z M112,210l7,0 0,7 -7,0 0,-7z M119,210l7,0 0,7 -7,0 0,-7z M126,210l7,0 0,7 -7,0 0,-7z M147,210l7,0 0,7 -7,0 0,-7z M154,210l7,0 0,7 -7,0 0,-7z M161,210l7,0 0,7 -7,0 0,-7z M168,210l7,0 0,7 -7,0 0,-7z M175,210l7,0 0,7 -7,0 0,-7z M196,210l7,0 0,7 -7,0 0,-7z M210,210l7,0 0,7 -7,0 0,-7z M217,210l7,0 0,7 -7,0 0,-7z M231,210l7,0 0,7 -7,0 0,-7z M238,210l7,0 0,7 -7,0 0,-7z M252,210l7,0 0,7 -7,0 0,-7z M266,210l7,0 0,7 -7,0 0,-7z M7,217l7,0 0,7 -7,0 0,-7z M21,217l7,0 0,7 -7,0 0,-7z M28,217l7,0 0,7 -7,0 0,-7z M49,217l7,0 0,7 -7,0 0,-7z M70,217l7,0 0,7 -7,0 0,-7z M98,217l7,0 0,7 -7,0 0,-7z M112,217l7,0 0,7 -7,0 0,-7z M119,217l7,0 0,7 -7,0 0,-7z M126,217l7,0 0,7 -7,0 0,-7z M147,217l7,0 0,7 -7,0 0,-7z M182,217l7,0 0,7 -7,0 0,-7z M189,217l7,0 0,7 -7,0 0,-7z M196,217l7,0 0,7 -7,0 0,-7z M217,217l7,0 0,7 -7,0 0,-7z M231,217l7,0 0,7 -7,0 0,-7z M238,217l7,0 0,7 -7,0 0,-7z M259,217l7,0 0,7 -7,0 0,-7z M266,217l7,0 0,7 -7,0 0,-7z M21,224l7,0 0,7 -7,0 0,-7z M35,224l7,0 0,7 -7,0 0,-7z M42,224l7,0 0,7 -7,0 0,-7z M70,224l7,0 0,7 -7,0 0,-7z M84,224l7,0 0,7 -7,0 0,-7z M112,224l7,0 0,7 -7,0 0,-7z M126,224l7,0 0,7 -7,0 0,-7z M140,224l7,0 0,7 -7,0 0,-7z M147,224l7,0 0,7 -7,0 0,-7z M168,224l7,0 0,7 -7,0 0,-7z M175,224l7,0 0,7 -7,0 0,-7z M203,224l7,0 0,7 -7,0 0,-7z M210,224l7,0 0,7 -7,0 0,-7z M245,224l7,0 0,7 -7,0 0,-7z M266,224l7,0 0,7 -7,0 0,-7z M273,224l7,0 0,7 -7,0 0,-7z M14,231l7,0 0,7 -7,0 0,-7z M42,231l7,0 0,7 -7,0 0,-7z M49,231l7,0 0,7 -7,0 0,-7z M63,231l7,0 0,7 -7,0 0,-7z M70,231l7,0 0,7 -7,0 0,-7z M77,231l7,0 0,7 -7,0 0,-7z M105,231l7,0 0,7 -7,0 0,-7z M112,231l7,0 0,7 -7,0 0,-7z M126,231l7,0 0,7 -7,0 0,-7z M133,231l7,0 0,7 -7,0 0,-7z M140,231l7,0 0,7 -7,0 0,-7z M154,231l7,0 0,7 -7,0 0,-7z M189,231l7,0 0,7 -7,0 0,-7z M196,231l7,0 0,7 -7,0 0,-7z M203,231l7,0 0,7 -7,0 0,-7z M210,231l7,0 0,7 -7,0 0,-7z M224,231l7,0 0,7 -7,0 0,-7z M231,231l7,0 0,7 -7,0 0,-7z M238,231l7,0 0,7 -7,0 0,-7z M245,231l7,0 0,7 -7,0 0,-7z M252,231l7,0 0,7 -7,0 0,-7z M259,231l7,0 0,7 -7,0 0,-7z M273,231l7,0 0,7 -7,0 0,-7z M287,231l7,0 0,7 -7,0 0,-7z M63,238l7,0 0,7 -7,0 0,-7z M77,238l7,0 0,7 -7,0 0,-7z M84,238l7,0 0,7 -7,0 0,-7z M119,238l7,0 0,7 -7,0 0,-7z M126,238l7,0 0,7 -7,0 0,-7z M133,238l7,0 0,7 -7,0 0,-7z M140,238l7,0 0,7 -7,0 0,-7z M147,238l7,0 0,7 -7,0 0,-7z M154,238l7,0 0,7 -7,0 0,-7z M168,238l7,0 0,7 -7,0 0,-7z M182,238l7,0 0,7 -7,0 0,-7z M203,238l7,0 0,7 -7,0 0,-7z M217,238l7,0 0,7 -7,0 0,-7z M224,238l7,0 0,7 -7,0 0,-7z M231,238l7,0 0,7 -7,0 0,-7z M259,238l7,0 0,7 -7,0 0,-7z M273,238l7,0 0,7 -7,0 0,-7z M280,238l7,0 0,7 -7,0 0,-7z M287,238l7,0 0,7 -7,0 0,-7z M7,245l7,0 0,7 -7,0 0,-7z M14,245l7,0 0,7 -7,0 0,-7z M21,245l7,0 0,7 -7,0 0,-7z M28,245l7,0 0,7 -7,0 0,-7z M35,245l7,0 0,7 -7,0 0,-7z M42,245l7,0 0,7 -7,0 0,-7z M49,245l7,0 0,7 -7,0 0,-7z M84,245l7,0 0,7 -7,0 0,-7z M91,245l7,0 0,7 -7,0 0,-7z M105,245l7,0 0,7 -7,0 0,-7z M119,245l7,0 0,7 -7,0 0,-7z M133,245l7,0 0,7 -7,0 0,-7z M147,245l7,0 0,7 -7,0 0,-7z M161,245l7,0 0,7 -7,0 0,-7z M168,245l7,0 0,7 -7,0 0,-7z M175,245l7,0 0,7 -7,0 0,-7z M182,245l7,0 0,7 -7,0 0,-7z M203,245l7,0 0,7 -7,0 0,-7z M217,245l7,0 0,7 -7,0 0,-7z M224,245l7,0 0,7 -7,0 0,-7z M231,245l7,0 0,7 -7,0 0,-7z M245,245l7,0 0,7 -7,0 0,-7z M259,245l7,0 0,7 -7,0 0,-7z M280,245l7,0 0,7 -7,0 0,-7z M7,252l7,0 0,7 -7,0 0,-7z M49,252l7,0 0,7 -7,0 0,-7z M70,252l7,0 0,7 -7,0 0,-7z M84,252l7,0 0,7 -7,0 0,-7z M91,252l7,0 0,7 -7,0 0,-7z M98,252l7,0 0,7 -7,0 0,-7z M105,252l7,0 0,7 -7,0 0,-7z M119,252l7,0 0,7 -7,0 0,-7z M133,252l7,0 0,7 -7,0 0,-7z M168,252l7,0 0,7 -7,0 0,-7z M175,252l7,0 0,7 -7,0 0,-7z M182,252l7,0 0,7 -7,0 0,-7z M189,252l7,0 0,7 -7,0 0,-7z M196,252l7,0 0,7 -7,0 0,-7z M231,252l7,0 0,7 -7,0 0,-7z M259,252l7,0 0,7 -7,0 0,-7z M266,252l7,0 0,7 -7,0 0,-7z M7,259l7,0 0,7 -7,0 0,-7z M21,259l7,0 0,7 -7,0 0,-7z M28,259l7,0 0,7 -7,0 0,-7z M35,259l7,0 0,7 -7,0 0,-7z M49,259l7,0 0,7 -7,0 0,-7z M77,259l7,0 0,7 -7,0 0,-7z M84,259l7,0 0,7 -7,0 0,-7z M91,259l7,0 0,7 -7,0 0,-7z M112,259l7,0 0,7 -7,0 0,-7z M126,259l7,0 0,7 -7,0 0,-7z M161,259l7,0 0,7 -7,0 0,-7z M168,259l7,0 0,7 -7,0 0,-7z M175,259l7,0 0,7 -7,0 0,-7z M182,259l7,0 0,7 -7,0 0,-7z M189,259l7,0 0,7 -7,0 0,-7z M196,259l7,0 0,7 -7,0 0,-7z M210,259l7,0 0,7 -7,0 0,-7z M217,259l7,0 0,7 -7,0 0,-7z M231,259l7,0 0,7 -7,0 0,-7z M238,259l7,0 0,7 -7,0 0,-7z M245,259l7,0 0,7 -7,0 0,-7z M252,259l7,0 0,7 -7,0 0,-7z M259,259l7,0 0,7 -7,0 0,-7z M273,259l7,0 0,7 -7,0 0,-7z M280,259l7,0 0,7 -7,0 0,-7z M7,266l7,0 0,7 -7,0 0,-7z M21,266l7,0 0,7 -7,0 0,-7z M28,266l7,0 0,7 -7,0 0,-7z M35,266l7,0 0,7 -7,0 0,-7z M49,266l7,0 0,7 -7,0 0,-7z M63,266l7,0 0,7 -7,0 0,-7z M84,266l7,0 0,7 -7,0 0,-7z M91,266l7,0 0,7 -7,0 0,-7z M98,266l7,0 0,7 -7,0 0,-7z M112,266l7,0 0,7 -7,0 0,-7z M119,266l7,0 0,7 -7,0 0,-7z M126,266l7,0 0,7 -7,0 0,-7z M140,266l7,0 0,7 -7,0 0,-7z M175,266l7,0 0,7 -7,0 0,-7z M182,266l7,0 0,7 -7,0 0,-7z M189,266l7,0 0,7 -7,0 0,-7z M196,266l7,0 0,7 -7,0 0,-7z M203,266l7,0 0,7 -7,0 0,-7z M252,266l7,0 0,7 -7,0 0,-7z M259,266l7,0 0,7 -7,0 0,-7z M273,266l7,0 0,7 -7,0 0,-7z M7,273l7,0 0,7 -7,0 0,-7z M21,273l7,0 0,7 -7,0 0,-7z M28,273l7,0 0,7 -7,0 0,-7z M35,273l7,0 0,7 -7,0 0,-7z M49,273l7,0 0,7 -7,0 0,-7z M63,273l7,0 0,7 -7,0 0,-7z M70,273l7,0 0,7 -7,0 0,-7z M77,273l7,0 0,7 -7,0 0,-7z M84,273l7,0 0,7 -7,0 0,-7z M98,273l7,0 0,7 -7,0 0,-7z M133,273l7,0 0,7 -7,0 0,-7z M140,273l7,0 0,7 -7,0 0,-7z M154,273l7,0 0,7 -7,0 0,-7z M182,273l7,0 0,7 -7,0 0,-7z M189,273l7,0 0,7 -7,0 0,-7z M210,273l7,0 0,7 -7,0 0,-7z M217,273l7,0 0,7 -7,0 0,-7z M231,273l7,0 0,7 -7,0 0,-7z M273,273l7,0 0,7 -7,0 0,-7z M7,280l7,0 0,7 -7,0 0,-7z M49,280l7,0 0,7 -7,0 0,-7z M63,280l7,0 0,7 -7,0 0,-7z M84,280l7,0 0,7 -7,0 0,-7z M105,280l7,0 0,7 -7,0 0,-7z M119,280l7,0 0,7 -7,0 0,-7z M140,280l7,0 0,7 -7,0 0,-7z M147,280l7,0 0,7 -7,0 0,-7z M154,280l7,0 0,7 -7,0 0,-7z M189,280l7,0 0,7 -7,0 0,-7z M196,280l7,0 0,7 -7,0 0,-7z M203,280l7,0 0,7 -7,0 0,-7z M217,280l7,0 0,7 -7,0 0,-7z M231,280l7,0 0,7 -7,0 0,-7z M252,280l7,0 0,7 -7,0 0,-7z M266,280l7,0 0,7 -7,0 0,-7z M280,280l7,0 0,7 -7,0 0,-7z M7,287l7,0 0,7 -7,0 0,-7z M14,287l7,0 0,7 -7,0 0,-7z M21,287l7,0 0,7 -7,0 0,-7z M28,287l7,0 0,7 -7,0 0,-7z M35,287l7,0 0,7 -7,0 0,-7z M42,287l7,0 0,7 -7,0 0,-7z M49,287l7,0 0,7 -7,0 0,-7z M63,287l7,0 0,7 -7,0 0,-7z M70,287l7,0 0,7 -7,0 0,-7z M98,287l7,0 0,7 -7,0 0,-7z M112,287l7,0 0,7 -7,0 0,-7z M133,287l7,0 0,7 -7,0 0,-7z M140,287l7,0 0,7 -7,0 0,-7z M154,287l7,0 0,7 -7,0 0,-7z M161,287l7,0 0,7 -7,0 0,-7z M168,287l7,0 0,7 -7,0 0,-7z M182,287l7,0 0,7 -7,0 0,-7z M189,287l7,0 0,7 -7,0 0,-7z M196,287l7,0 0,7 -7,0 0,-7z M217,287l7,0 0,7 -7,0 0,-7z M224,287l7,0 0,7 -7,0 0,-7z M231,287l7,0 0,7 -7,0 0,-7z M259,287l7,0 0,7 -7,0 0,-7z M266,287l7,0 0,7 -7,0 0,-7z M280,287l7,0 0,7 -7,0 0,-7z " stroke="transparent" fill="#000000"/></svg>