<svg version="1.1" xmlns="http://www.w3.org/2000/svg" width="300px" height="300px" viewBox="0 0 282 282"  preserveAspectRatio="xMinYMin meet"><rect width="100%" height="100%" fill="#ffffff" cx="0" cy="0"/><path d="M6,6l6,0 0,6 -6,0 0,-6z M12,6l6,0 0,6 -6,0 0,-6z M18,6l6,0 0,6 -6,0 0,-6z M24,6l6,0 0,6 -6,0 0,-6z M30,6l6,0 0,6 -6,0 0,-6z M36,6l6,0 0,6 -6,0 0,-6z M42,6l6,0 0,6 -6,0 0,-6z M54,6l6,0 0,6 -6,0 0,-6z M66,6l6,0 0,6 -6,0 0,-6z M72,6l6,0 0,6 -6,0 0,-6z M78,6l6,0 0,6 -6,0 0,-6z M84,6l6,0 0,6 -6,0 0,-6z M96,6l6,0 0,6 -6,0 0,-6z M120,6l6,0 0,6 -6,0 0,-6z M132,6l6,0 0,6 -6,0 0,-6z M150,6l6,0 0,6 -6,0 0,-6z M168,6l6,0 0,6 -6,0 0,-6z M174,6l6,0 0,6 -6,0 0,-6z M186,6l6,0 0,6 -6,0 0,-6z M192,6l6,0 0,6 -6,0 0,-6z M204,6l6,0 0,6 -6,0 0,-6z M222,6l6,0 0,6 -6,0 0,-6z M234,6l6,0 0,6 -6,0 0,-6z M240,6l6,0 0,6 -6,0 0,-6z M246,6l6,0 0,6 -6,0 0,-6z M252,6l6,0 0,6 -6,0 0,-6z M258,6l6,0 0,6 -6,0 0,-6z M264,6l6,0 0,6 -6,0 0,-6z M270,6l6,0 0,6 -6,0 0,-6z M6,12l6,0 0,6 -6,0 0,-6z M42,12l6,0 0,6 -6,0 0,-6z M60,12l6,0 0,6 -6,0 0,-6z M84,12l6,0 0,6 -6,0 0,-6z M96,12l6,0 0,6 -6,0 0,-6z M120,12l6,0 0,6 -6,0 0,-6z M132,12l6,0 0,6 -6,0 0,-6z M138,12l6,0 0,6 -6,0 0,-6z M180,12l6,0 0,6 -6,0 0,-6z M186,12l6,0 0,6 -6,0 0,-6z M192,12l6,0 0,6 -6,0 0,-6z M198,12l6,0 0,6 -6,0 0,-6z M204,12l6,0 0,6 -6,0 0,-6z M216,12l6,0 0,6 -6,0 0,-6z M234,12l6,0 0,6 -6,0 0,-6z M270,12l6,0 0,6 -6,0 0,-6z M6,18l6,0 0,6 -6,0 0,-6z M18,18l6,0 0,6 -6,0 0,-6z M24,18l6,0 0,6 -6,0 0,-6z M30,18l6,0 0,6 -6,0 0,-6z M42,18l6,0 0,6 -6,0 0,-6z M54,18l6,0 0,6 -6,0 0,-6z M60,18l6,0 0,6 -6,0 0,-6z M90,18l6,0 0,6 -6,0 0,-6z M102,18l6,0 0,6 -6,0 0,-6z M108,18l6,0 0,6 -6,0 0,-6z M114,18l6,0 0,6 -6,0 0,-6z M126,18l6,0 0,6 -6,0 0,-6z M138,18l6,0 0,6 -6,0 0,-6z M144,18l6,0 0,6 -6,0 0,-6z M150,18l6,0 0,6 -6,0 0,-6z M156,18l6,0 0,6 -6,0 0,-6z M162,18l6,0 0,6 -6,0 0,-6z M180,18l6,0 0,6 -6,0 0,-6z M192,18l6,0 0,6 -6,0 0,-6z M198,18l6,0 0,6 -6,0 0,-6z M216,18l6,0 0,6 -6,0 0,-6z M234,18l6,0 0,6 -6,0 0,-6z M246,18l6,0 0,6 -6,0 0,-6z M252,18l6,0 0,6 -6,0 0,-6z M258,18l6,0 0,6 -6,0 0,-6z M270,18l6,0 0,6 -6,0 0,-6z M6,24l6,0 0,6 -6,0 0,-6z M18,24l6,0 0,6 -6,0 0,-6z M24,24l6,0 0,6 -6,0 0,-6z M30,24l6,0 0,6 -6,0 0,-6z M42,24l6,0 0,6 -6,0 0,-6z M54,24l6,0 0,6 -6,0 0,-6z M66,24l6,0 0,6 -6,0 0,-6z M72,24l6,0 0,6 -6,0 0,-6z M78,24l6,0 0,6 -6,0 0,-6z M84,24l6,0 0,6 -6,0 0,-6z M96,24l6,0 0,6 -6,0 0,-6z M102,24l6,0 0,6 -6,0 0,-6z M108,24l6,0 0,6 -6,0 0,-6z M114,24l6,0 0,6 -6,0 0,-6z M126,24l6,0 0,6 -6,0 0,-6z M132,24l6,0 0,6 -6,0 0,-6z M138,24l6,0 0,6 -6,0 0,-6z M144,24l6,0 0,6 -6,0 0,-6z M156,24l6,0 0,6 -6,0 0,-6z M180,24l6,0 0,6 -6,0 0,-6z M186,24l6,0 0,6 -6,0 0,-6z M192,24l6,0 0,6 -6,0 0,-6z M216,24l6,0 0,6 -6,0 0,-6z M222,24l6,0 0,6 -6,0 0,-6z M234,24l6,0 0,6 -6,0 0,-6z M246,24l6,0 0,6 -6,0 0,-6z M252,24l6,0 0,6 -6,0 0,-6z M258,24l6,0 0,6 -6,0 0,-6z M270,24l6,0 0,6 -6,0 0,-6z M6,30l6,0 0,6 -6,0 0,-6z M18,30l6,0 0,6 -6,0 0,-6z M24,30l6,0 0,6 -6,0 0,-6z M30,30l6,0 0,6 -6,0 0,-6z M42,30l6,0 0,6 -6,0 0,-6z M54,30l6,0 0,6 -6,0 0,-6z M60,30l6,0 0,6 -6,0 0,-6z M78,30l6,0 0,6 -6,0 0,-6z M96,30l6,0 0,6 -6,0 0,-6z M114,30l6,0 0,6 -6,0 0,-6z M120,30l6,0 0,6 -6,0 0,-6z M126,30l6,0 0,6 -6,0 0,-6z M132,30l6,0 0,6 -6,0 0,-6z M138,30l6,0 0,6 -6,0 0,-6z M144,30l6,0 0,6 -6,0 0,-6z M150,30l6,0 0,6 -6,0 0,-6z M156,30l6,0 0,6 -6,0 0,-6z M162,30l6,0 0,6 -6,0 0,-6z M192,30l6,0 0,6 -6,0 0,-6z M204,30l6,0 0,6 -6,0 0,-6z M210,30l6,0 0,6 -6,0 0,-6z M216,30l6,0 0,6 -6,0 0,-6z M222,30l6,0 0,6 -6,0 0,-6z M234,30l6,0 0,6 -6,0 0,-6z M246,30l6,0 0,6 -6,0 0,-6z M252,30l6,0 0,6 -6,0 0,-6z M258,30l6,0 0,6 -6,0 0,-6z M270,30l6,0 0,6 -6,0 0,-6z M6,36l6,0 0,6 -6,0 0,-6z M42,36l6,0 0,6 -6,0 0,-6z M60,36l6,0 0,6 -6,0 0,-6z M66,36l6,0 0,6 -6,0 0,-6z M78,36l6,0 0,6 -6,0 0,-6z M90,36l6,0 0,6 -6,0 0,-6z M102,36l6,0 0,6 -6,0 0,-6z M114,36l6,0 0,6 -6,0 0,-6z M120,36l6,0 0,6 -6,0 0,-6z M126,36l6,0 0,6 -6,0 0,-6z M150,36l6,0 0,6 -6,0 0,-6z M156,36l6,0 0,6 -6,0 0,-6z M162,36l6,0 0,6 -6,0 0,-6z M168,36l6,0 0,6 -6,0 0,-6z M174,36l6,0 0,6 -6,0 0,-6z M180,36l6,0 0,6 -6,0 0,-6z M186,36l6,0 0,6 -6,0 0,-6z M192,36l6,0 0,6 -6,0 0,-6z M234,36l6,0 0,6 -6,0 0,-6z M270,36l6,0 0,6 -6,0 0,-6z M6,42l6,0 0,6 -6,0 0,-6z M12,42l6,0 0,6 -6,0 0,-6z M18,42l6,0 0,6 -6,0 0,-6z M24,42l6,0 0,6 -6,0 0,-6z M30,42l6,0 0,6 -6,0 0,-6z M36,42l6,0 0,6 -6,0 0,-6z M42,42l6,0 0,6 -6,0 0,-6z M54,42l6,0 0,6 -6,0 0,-6z M66,42l6,0 0,6 -6,0 0,-6z M78,42l6,0 0,6 -6,0 0,-6z M90,42l6,0 0,6 -6,0 0,-6z M102,42l6,0 0,6 -6,0 0,-6z M114,42l6,0 0,6 -6,0 0,-6z M126,42l6,0 0,6 -6,0 0,-6z M138,42l6,0 0,6 -6,0 0,-6z M150,42l6,0 0,6 -6,0 0,-6z M162,42l6,0 0,6 -6,0 0,-6z M174,42l6,0 0,6 -6,0 0,-6z M186,42l6,0 0,6 -6,0 0,-6z M198,42l6,0 0,6 -6,0 0,-6z M210,42l6,0 0,6 -6,0 0,-6z M222,42l6,0 0,6 -6,0 0,-6z M234,42l6,0 0,6 -6,0 0,-6z M240,42l6,0 0,6 -6,0 0,-6z M246,42l6,0 0,6 -6,0 0,-6z M252,42l6,0 0,6 -6,0 0,-6z M258,42l6,0 0,6 -6,0 0,-6z M264,42l6,0 0,6 -6,0 0,-6z M270,42l6,0 0,6 -6,0 0,-6z M60,48l6,0 0,6 -6,0 0,-6z M78,48l6,0 0,6 -6,0 0,-6z M96,48l6,0 0,6 -6,0 0,-6z M102,48l6,0 0,6 -6,0 0,-6z M114,48l6,0 0,6 -6,0 0,-6z M120,48l6,0 0,6 -6,0 0,-6z M126,48l6,0 0,6 -6,0 0,-6z M150,48l6,0 0,6 -6,0 0,-6z M156,48l6,0 0,6 -6,0 0,-6z M174,48l6,0 0,6 -6,0 0,-6z M186,48l6,0 0,6 -6,0 0,-6z M6,54l6,0 0,6 -6,0 0,-6z M12,54l6,0 0,6 -6,0 0,-6z M18,54l6,0 0,6 -6,0 0,-6z M24,54l6,0 0,6 -6,0 0,-6z M42,54l6,0 0,6 -6,0 0,-6z M54,54l6,0 0,6 -6,0 0,-6z M66,54l6,0 0,6 -6,0 0,-6z M78,54l6,0 0,6 -6,0 0,-6z M90,54l6,0 0,6 -6,0 0,-6z M102,54l6,0 0,6 -6,0 0,-6z M120,54l6,0 0,6 -6,0 0,-6z M126,54l6,0 0,6 -6,0 0,-6z M132,54l6,0 0,6 -6,0 0,-6z M138,54l6,0 0,6 -6,0 0,-6z M144,54l6,0 0,6 -6,0 0,-6z M150,54l6,0 0,6 -6,0 0,-6z M162,54l6,0 0,6 -6,0 0,-6z M168,54l6,0 0,6 -6,0 0,-6z M174,54l6,0 0,6 -6,0 0,-6z M186,54l6,0 0,6 -6,0 0,-6z M204,54l6,0 0,6 -6,0 0,-6z M210,54l6,0 0,6 -6,0 0,-6z M222,54l6,0 0,6 -6,0 0,-6z M228,54l6,0 0,6 -6,0 0,-6z M246,54l6,0 0,6 -6,0 0,-6z M252,54l6,0 0,6 -6,0 0,-6z M258,54l6,0 0,6 -6,0 0,-6z M270,54l6,0 0,6 -6,0 0,-6z M6,60l6,0 0,6 -6,0 0,-6z M18,60l6,0 0,6 -6,0 0,-6z M48,60l6,0 0,6 -6,0 0,-6z M60,60l6,0 0,6 -6,0 0,-6z M72,60l6,0 0,6 -6,0 0,-6z M102,60l6,0 0,6 -6,0 0,-6z M120,60l6,0 0,6 -6,0 0,-6z M138,60l6,0 0,6 -6,0 0,-6z M144,60l6,0 0,6 -6,0 0,-6z M156,60l6,0 0,6 -6,0 0,-6z M180,60l6,0 0,6 -6,0 0,-6z M186,60l6,0 0,6 -6,0 0,-6z M216,60l6,0 0,6 -6,0 0,-6z M222,60l6,0 0,6 -6,0 0,-6z M228,60l6,0 0,6 -6,0 0,-6z M240,60l6,0 0,6 -6,0 0,-6z M252,60l6,0 0,6 -6,0 0,-6z M258,60l6,0 0,6 -6,0 0,-6z M264,60l6,0 0,6 -6,0 0,-6z M270,60l6,0 0,6 -6,0 0,-6z M12,66l6,0 0,6 -6,0 0,-6z M30,66l6,0 0,6 -6,0 0,-6z M36,66l6,0 0,6 -6,0 0,-6z M42,66l6,0 0,6 -6,0 0,-6z M60,66l6,0 0,6 -6,0 0,-6z M72,66l6,0 0,6 -6,0 0,-6z M78,66l6,0 0,6 -6,0 0,-6z M90,66l6,0 0,6 -6,0 0,-6z M102,66l6,0 0,6 -6,0 0,-6z M108,66l6,0 0,6 -6,0 0,-6z M168,66l6,0 0,6 -6,0 0,-6z M180,66l6,0 0,6 -6,0 0,-6z M186,66l6,0 0,6 -6,0 0,-6z M192,66l6,0 0,6 -6,0 0,-6z M204,66l6,0 0,6 -6,0 0,-6z M210,66l6,0 0,6 -6,0 0,-6z M240,66l6,0 0,6 -6,0 0,-6z M246,66l6,0 0,6 -6,0 0,-6z M252,66l6,0 0,6 -6,0 0,-6z M264,66l6,0 0,6 -6,0 0,-6z M270,66l6,0 0,6 -6,0 0,-6z M18,72l6,0 0,6 -6,0 0,-6z M60,72l6,0 0,6 -6,0 0,-6z M66,72l6,0 0,6 -6,0 0,-6z M84,72l6,0 0,6 -6,0 0,-6z M90,72l6,0 0,6 -6,0 0,-6z M96,72l6,0 0,6 -6,0 0,-6z M114,72l6,0 0,6 -6,0 0,-6z M132,72l6,0 0,6 -6,0 0,-6z M138,72l6,0 0,6 -6,0 0,-6z M144,72l6,0 0,6 -6,0 0,-6z M150,72l6,0 0,6 -6,0 0,-6z M156,72l6,0 0,6 -6,0 0,-6z M198,72l6,0 0,6 -6,0 0,-6z M204,72l6,0 0,6 -6,0 0,-6z M210,72l6,0 0,6 -6,0 0,-6z M216,72l6,0 0,6 -6,0 0,-6z M228,72l6,0 0,6 -6,0 0,-6z M240,72l6,0 0,6 -6,0 0,-6z M252,72l6,0 0,6 -6,0 0,-6z M264,72l6,0 0,6 -6,0 0,-6z M18,78l6,0 0,6 -6,0 0,-6z M36,78l6,0 0,6 -6,0 0,-6z M42,78l6,0 0,6 -6,0 0,-6z M48,78l6,0 0,6 -6,0 0,-6z M54,78l6,0 0,6 -6,0 0,-6z M66,78l6,0 0,6 -6,0 0,-6z M72,78l6,0 0,6 -6,0 0,-6z M78,78l6,0 0,6 -6,0 0,-6z M96,78l6,0 0,6 -6,0 0,-6z M102,78l6,0 0,6 -6,0 0,-6z M108,78l6,0 0,6 -6,0 0,-6z M114,78l6,0 0,6 -6,0 0,-6z M120,78l6,0 0,6 -6,0 0,-6z M126,78l6,0 0,6 -6,0 0,-6z M132,78l6,0 0,6 -6,0 0,-6z M138,78l6,0 0,6 -6,0 0,-6z M150,78l6,0 0,6 -6,0 0,-6z M156,78l6,0 0,6 -6,0 0,-6z M192,78l6,0 0,6 -6,0 0,-6z M216,78l6,0 0,6 -6,0 0,-6z M228,78l6,0 0,6 -6,0 0,-6z M240,78l6,0 0,6 -6,0 0,-6z M264,78l6,0 0,6 -6,0 0,-6z M6,84l6,0 0,6 -6,0 0,-6z M12,84l6,0 0,6 -6,0 0,-6z M18,84l6,0 0,6 -6,0 0,-6z M30,84l6,0 0,6 -6,0 0,-6z M48,84l6,0 0,6 -6,0 0,-6z M66,84l6,0 0,6 -6,0 0,-6z M96,84l6,0 0,6 -6,0 0,-6z M108,84l6,0 0,6 -6,0 0,-6z M114,84l6,0 0,6 -6,0 0,-6z M120,84l6,0 0,6 -6,0 0,-6z M132,84l6,0 0,6 -6,0 0,-6z M138,84l6,0 0,6 -6,0 0,-6z M144,84l6,0 0,6 -6,0 0,-6z M150,84l6,0 0,6 -6,0 0,-6z M156,84l6,0 0,6 -6,0 0,-6z M162,84l6,0 0,6 -6,0 0,-6z M168,84l6,0 0,6 -6,0 0,-6z M204,84l6,0 0,6 -6,0 0,-6z M234,84l6,0 0,6 -6,0 0,-6z M240,84l6,0 0,6 -6,0 0,-6z M246,84l6,0 0,6 -6,0 0,-6z M252,84l6,0 0,6 -6,0 0,-6z M264,84l6,0 0,6 -6,0 0,-6z M18,90l6,0 0,6 -6,0 0,-6z M24,90l6,0 0,6 -6,0 0,-6z M36,90l6,0 0,6 -6,0 0,-6z M42,90l6,0 0,6 -6,0 0,-6z M48,90l6,0 0,6 -6,0 0,-6z M54,90l6,0 0,6 -6,0 0,-6z M60,90l6,0 0,6 -6,0 0,-6z M66,90l6,0 0,6 -6,0 0,-6z M72,90l6,0 0,6 -6,0 0,-6z M78,90l6,0 0,6 -6,0 0,-6z M84,90l6,0 0,6 -6,0 0,-6z M108,90l6,0 0,6 -6,0 0,-6z M114,90l6,0 0,6 -6,0 0,-6z M120,90l6,0 0,6 -6,0 0,-6z M126,90l6,0 0,6 -6,0 0,-6z M132,90l6,0 0,6 -6,0 0,-6z M138,90l6,0 0,6 -6,0 0,-6z M156,90l6,0 0,6 -6,0 0,-6z M162,90l6,0 0,6 -6,0 0,-6z M168,90l6,0 0,6 -6,0 0,-6z M180,90l6,0 0,6 -6,0 0,-6z M186,90l6,0 0,6 -6,0 0,-6z M192,90l6,0 0,6 -6,0 0,-6z M234,90l6,0 0,6 -6,0 0,-6z M240,90l6,0 0,6 -6,0 0,-6z M6,96l6,0 0,6 -6,0 0,-6z M18,96l6,0 0,6 -6,0 0,-6z M24,96l6,0 0,6 -6,0 0,-6z M30,96l6,0 0,6 -6,0 0,-6z M54,96l6,0 0,6 -6,0 0,-6z M72,96l6,0 0,6 -6,0 0,-6z M78,96l6,0 0,6 -6,0 0,-6z M84,96l6,0 0,6 -6,0 0,-6z M96,96l6,0 0,6 -6,0 0,-6z M120,96l6,0 0,6 -6,0 0,-6z M150,96l6,0 0,6 -6,0 0,-6z M162,96l6,0 0,6 -6,0 0,-6z M174,96l6,0 0,6 -6,0 0,-6z M186,96l6,0 0,6 -6,0 0,-6z M198,96l6,0 0,6 -6,0 0,-6z M204,96l6,0 0,6 -6,0 0,-6z M216,96l6,0 0,6 -6,0 0,-6z M240,96l6,0 0,6 -6,0 0,-6z M246,96l6,0 0,6 -6,0 0,-6z M252,96l6,0 0,6 -6,0 0,-6z M258,96l6,0 0,6 -6,0 0,-6z M264,96l6,0 0,6 -6,0 0,-6z M270,96l6,0 0,6 -6,0 0,-6z M12,102l6,0 0,6 -6,0 0,-6z M18,102l6,0 0,6 -6,0 0,-6z M30,102l6,0 0,6 -6,0 0,-6z M42,102l6,0 0,6 -6,0 0,-6z M54,102l6,0 0,6 -6,0 0,-6z M90,102l6,0 0,6 -6,0 0,-6z M96,102l6,0 0,6 -6,0 0,-6z M138,102l6,0 0,6 -6,0 0,-6z M144,102l6,0 0,6 -6,0 0,-6z M150,102l6,0 0,6 -6,0 0,-6z M168,102l6,0 0,6 -6,0 0,-6z M186,102l6,0 0,6 -6,0 0,-6z M192,102l6,0 0,6 -6,0 0,-6z M198,102l6,0 0,6 -6,0 0,-6z M210,102l6,0 0,6 -6,0 0,-6z M216,102l6,0 0,6 -6,0 0,-6z M222,102l6,0 0,6 -6,0 0,-6z M228,102l6,0 0,6 -6,0 0,-6z M234,102l6,0 0,6 -6,0 0,-6z M240,102l6,0 0,6 -6,0 0,-6z M258,102l6,0 0,6 -6,0 0,-6z M264,102l6,0 0,6 -6,0 0,-6z M18,108l6,0 0,6 -6,0 0,-6z M36,108l6,0 0,6 -6,0 0,-6z M60,108l6,0 0,6 -6,0 0,-6z M78,108l6,0 0,6 -6,0 0,-6z M102,108l6,0 0,6 -6,0 0,-6z M114,108l6,0 0,6 -6,0 0,-6z M120,108l6,0 0,6 -6,0 0,-6z M150,108l6,0 0,6 -6,0 0,-6z M174,108l6,0 0,6 -6,0 0,-6z M180,108l6,0 0,6 -6,0 0,-6z M198,108l6,0 0,6 -6,0 0,-6z M204,108l6,0 0,6 -6,0 0,-6z M210,108l6,0 0,6 -6,0 0,-6z M216,108l6,0 0,6 -6,0 0,-6z M240,108l6,0 0,6 -6,0 0,-6z M252,108l6,0 0,6 -6,0 0,-6z M270,108l6,0 0,6 -6,0 0,-6z M18,114l6,0 0,6 -6,0 0,-6z M24,114l6,0 0,6 -6,0 0,-6z M30,114l6,0 0,6 -6,0 0,-6z M36,114l6,0 0,6 -6,0 0,-6z M42,114l6,0 0,6 -6,0 0,-6z M48,114l6,0 0,6 -6,0 0,-6z M66,114l6,0 0,6 -6,0 0,-6z M84,114l6,0 0,6 -6,0 0,-6z M90,114l6,0 0,6 -6,0 0,-6z M108,114l6,0 0,6 -6,0 0,-6z M114,114l6,0 0,6 -6,0 0,-6z M126,114l6,0 0,6 -6,0 0,-6z M144,114l6,0 0,6 -6,0 0,-6z M150,114l6,0 0,6 -6,0 0,-6z M162,114l6,0 0,6 -6,0 0,-6z M168,114l6,0 0,6 -6,0 0,-6z M174,114l6,0 0,6 -6,0 0,-6z M192,114l6,0 0,6 -6,0 0,-6z M204,114l6,0 0,6 -6,0 0,-6z M210,114l6,0 0,6 -6,0 0,-6z M216,114l6,0 0,6 -6,0 0,-6z M234,114l6,0 0,6 -6,0 0,-6z M246,114l6,0 0,6 -6,0 0,-6z M252,114l6,0 0,6 -6,0 0,-6z M258,114l6,0 0,6 -6,0 0,-6z M264,114l6,0 0,6 -6,0 0,-6z M6,120l6,0 0,6 -6,0 0,-6z M12,120l6,0 0,6 -6,0 0,-6z M18,120l6,0 0,6 -6,0 0,-6z M24,120l6,0 0,6 -6,0 0,-6z M36,120l6,0 0,6 -6,0 0,-6z M66,120l6,0 0,6 -6,0 0,-6z M78,120l6,0 0,6 -6,0 0,-6z M84,120l6,0 0,6 -6,0 0,-6z M120,120l6,0 0,6 -6,0 0,-6z M126,120l6,0 0,6 -6,0 0,-6z M132,120l6,0 0,6 -6,0 0,-6z M156,120l6,0 0,6 -6,0 0,-6z M162,120l6,0 0,6 -6,0 0,-6z M174,120l6,0 0,6 -6,0 0,-6z M204,120l6,0 0,6 -6,0 0,-6z M210,120l6,0 0,6 -6,0 0,-6z M216,120l6,0 0,6 -6,0 0,-6z M234,120l6,0 0,6 -6,0 0,-6z M246,120l6,0 0,6 -6,0 0,-6z M270,120l6,0 0,6 -6,0 0,-6z M6,126l6,0 0,6 -6,0 0,-6z M18,126l6,0 0,6 -6,0 0,-6z M24,126l6,0 0,6 -6,0 0,-6z M30,126l6,0 0,6 -6,0 0,-6z M36,126l6,0 0,6 -6,0 0,-6z M42,126l6,0 0,6 -6,0 0,-6z M48,126l6,0 0,6 -6,0 0,-6z M54,126l6,0 0,6 -6,0 0,-6z M60,126l6,0 0,6 -6,0 0,-6z M72,126l6,0 0,6 -6,0 0,-6z M78,126l6,0 0,6 -6,0 0,-6z M108,126l6,0 0,6 -6,0 0,-6z M120,126l6,0 0,6 -6,0 0,-6z M126,126l6,0 0,6 -6,0 0,-6z M132,126l6,0 0,6 -6,0 0,-6z M138,126l6,0 0,6 -6,0 0,-6z M144,126l6,0 0,6 -6,0 0,-6z M150,126l6,0 0,6 -6,0 0,-6z M162,126l6,0 0,6 -6,0 0,-6z M174,126l6,0 0,6 -6,0 0,-6z M186,126l6,0 0,6 -6,0 0,-6z M222,126l6,0 0,6 -6,0 0,-6z M228,126l6,0 0,6 -6,0 0,-6z M234,126l6,0 0,6 -6,0 0,-6z M240,126l6,0 0,6 -6,0 0,-6z M246,126l6,0 0,6 -6,0 0,-6z M258,126l6,0 0,6 -6,0 0,-6z M6,132l6,0 0,6 -6,0 0,-6z M18,132l6,0 0,6 -6,0 0,-6z M30,132l6,0 0,6 -6,0 0,-6z M54,132l6,0 0,6 -6,0 0,-6z M60,132l6,0 0,6 -6,0 0,-6z M72,132l6,0 0,6 -6,0 0,-6z M78,132l6,0 0,6 -6,0 0,-6z M90,132l6,0 0,6 -6,0 0,-6z M108,132l6,0 0,6 -6,0 0,-6z M120,132l6,0 0,6 -6,0 0,-6z M126,132l6,0 0,6 -6,0 0,-6z M150,132l6,0 0,6 -6,0 0,-6z M156,132l6,0 0,6 -6,0 0,-6z M174,132l6,0 0,6 -6,0 0,-6z M180,132l6,0 0,6 -6,0 0,-6z M186,132l6,0 0,6 -6,0 0,-6z M192,132l6,0 0,6 -6,0 0,-6z M198,132l6,0 0,6 -6,0 0,-6z M216,132l6,0 0,6 -6,0 0,-6z M222,132l6,0 0,6 -6,0 0,-6z M246,132l6,0 0,6 -6,0 0,-6z M258,132l6,0 0,6 -6,0 0,-6z M270,132l6,0 0,6 -6,0 0,-6z M6,138l6,0 0,6 -6,0 0,-6z M18,138l6,0 0,6 -6,0 0,-6z M24,138l6,0 0,6 -6,0 0,-6z M30,138l6,0 0,6 -6,0 0,-6z M42,138l6,0 0,6 -6,0 0,-6z M54,138l6,0 0,6 -6,0 0,-6z M72,138l6,0 0,6 -6,0 0,-6z M78,138l6,0 0,6 -6,0 0,-6z M84,138l6,0 0,6 -6,0 0,-6z M96,138l6,0 0,6 -6,0 0,-6z M102,138l6,0 0,6 -6,0 0,-6z M108,138l6,0 0,6 -6,0 0,-6z M114,138l6,0 0,6 -6,0 0,-6z M126,138l6,0 0,6 -6,0 0,-6z M138,138l6,0 0,6 -6,0 0,-6z M150,138l6,0 0,6 -6,0 0,-6z M180,138l6,0 0,6 -6,0 0,-6z M186,138l6,0 0,6 -6,0 0,-6z M192,138l6,0 0,6 -6,0 0,-6z M204,138l6,0 0,6 -6,0 0,-6z M210,138l6,0 0,6 -6,0 0,-6z M222,138l6,0 0,6 -6,0 0,-6z M234,138l6,0 0,6 -6,0 0,-6z M246,138l6,0 0,6 -6,0 0,-6z M258,138l6,0 0,6 -6,0 0,-6z M264,138l6,0 0,6 -6,0 0,-6z M270,138l6,0 0,6 -6,0 0,-6z M6,144l6,0 0,6 -6,0 0,-6z M12,144l6,0 0,6 -6,0 0,-6z M18,144l6,0 0,6 -6,0 0,-6z M30,144l6,0 0,6 -6,0 0,-6z M54,144l6,0 0,6 -6,0 0,-6z M60,144l6,0 0,6 -6,0 0,-6z M72,144l6,0 0,6 -6,0 0,-6z M78,144l6,0 0,6 -6,0 0,-6z M84,144l6,0 0,6 -6,0 0,-6z M90,144l6,0 0,6 -6,0 0,-6z M96,144l6,0 0,6 -6,0 0,-6z M108,144l6,0 0,6 -6,0 0,-6z M120,144l6,0 0,6 -6,0 0,-6z M126,144l6,0 0,6 -6,0 0,-6z M150,144l6,0 0,6 -6,0 0,-6z M180,144l6,0 0,6 -6,0 0,-6z M186,144l6,0 0,6 -6,0 0,-6z M192,144l6,0 0,6 -6,0 0,-6z M198,144l6,0 0,6 -6,0 0,-6z M210,144l6,0 0,6 -6,0 0,-6z M222,144l6,0 0,6 -6,0 0,-6z M246,144l6,0 0,6 -6,0 0,-6z M264,144l6,0 0,6 -6,0 0,-6z M270,144l6,0 0,6 -6,0 0,-6z M24,150l6,0 0,6 -6,0 0,-6z M30,150l6,0 0,6 -6,0 0,-6z M36,150l6,0 0,6 -6,0 0,-6z M42,150l6,0 0,6 -6,0 0,-6z M48,150l6,0 0,6 -6,0 0,-6z M54,150l6,0 0,6 -6,0 0,-6z M60,150l6,0 0,6 -6,0 0,-6z M72,150l6,0 0,6 -6,0 0,-6z M78,150l6,0 0,6 -6,0 0,-6z M84,150l6,0 0,6 -6,0 0,-6z M90,150l6,0 0,6 -6,0 0,-6z M96,150l6,0 0,6 -6,0 0,-6z M108,150l6,0 0,6 -6,0 0,-6z M114,150l6,0 0,6 -6,0 0,-6z M120,150l6,0 0,6 -6,0 0,-6z M126,150l6,0 0,6 -6,0 0,-6z M132,150l6,0 0,6 -6,0 0,-6z M138,150l6,0 0,6 -6,0 0,-6z M144,150l6,0 0,6 -6,0 0,-6z M150,150l6,0 0,6 -6,0 0,-6z M162,150l6,0 0,6 -6,0 0,-6z M180,150l6,0 0,6 -6,0 0,-6z M192,150l6,0 0,6 -6,0 0,-6z M210,150l6,0 0,6 -6,0 0,-6z M222,150l6,0 0,6 -6,0 0,-6z M228,150l6,0 0,6 -6,0 0,-6z M234,150l6,0 0,6 -6,0 0,-6z M240,150l6,0 0,6 -6,0 0,-6z M246,150l6,0 0,6 -6,0 0,-6z M252,150l6,0 0,6 -6,0 0,-6z M264,150l6,0 0,6 -6,0 0,-6z M270,150l6,0 0,6 -6,0 0,-6z M12,156l6,0 0,6 -6,0 0,-6z M18,156l6,0 0,6 -6,0 0,-6z M24,156l6,0 0,6 -6,0 0,-6z M48,156l6,0 0,6 -6,0 0,-6z M72,156l6,0 0,6 -6,0 0,-6z M90,156l6,0 0,6 -6,0 0,-6z M96,156l6,0 0,6 -6,0 0,-6z M102,156l6,0 0,6 -6,0 0,-6z M114,156l6,0 0,6 -6,0 0,-6z M138,156l6,0 0,6 -6,0 0,-6z M144,156l6,0 0,6 -6,0 0,-6z M150,156l6,0 0,6 -6,0 0,-6z M156,156l6,0 0,6 -6,0 0,-6z M162,156l6,0 0,6 -6,0 0,-6z M192,156l6,0 0,6 -6,0 0,-6z M204,156l6,0 0,6 -6,0 0,-6z M222,156l6,0 0,6 -6,0 0,-6z M234,156l6,0 0,6 -6,0 0,-6z M252,156l6,0 0,6 -6,0 0,-6z M264,156l6,0 0,6 -6,0 0,-6z M6,162l6,0 0,6 -6,0 0,-6z M12,162l6,0 0,6 -6,0 0,-6z M42,162l6,0 0,6 -6,0 0,-6z M48,162l6,0 0,6 -6,0 0,-6z M60,162l6,0 0,6 -6,0 0,-6z M66,162l6,0 0,6 -6,0 0,-6z M72,162l6,0 0,6 -6,0 0,-6z M90,162l6,0 0,6 -6,0 0,-6z M120,162l6,0 0,6 -6,0 0,-6z M132,162l6,0 0,6 -6,0 0,-6z M150,162l6,0 0,6 -6,0 0,-6z M162,162l6,0 0,6 -6,0 0,-6z M168,162l6,0 0,6 -6,0 0,-6z M174,162l6,0 0,6 -6,0 0,-6z M186,162l6,0 0,6 -6,0 0,-6z M198,162l6,0 0,6 -6,0 0,-6z M222,162l6,0 0,6 -6,0 0,-6z M228,162l6,0 0,6 -6,0 0,-6z M240,162l6,0 0,6 -6,0 0,-6z M258,162l6,0 0,6 -6,0 0,-6z M6,168l6,0 0,6 -6,0 0,-6z M18,168l6,0 0,6 -6,0 0,-6z M30,168l6,0 0,6 -6,0 0,-6z M54,168l6,0 0,6 -6,0 0,-6z M66,168l6,0 0,6 -6,0 0,-6z M78,168l6,0 0,6 -6,0 0,-6z M84,168l6,0 0,6 -6,0 0,-6z M102,168l6,0 0,6 -6,0 0,-6z M108,168l6,0 0,6 -6,0 0,-6z M120,168l6,0 0,6 -6,0 0,-6z M132,168l6,0 0,6 -6,0 0,-6z M138,168l6,0 0,6 -6,0 0,-6z M144,168l6,0 0,6 -6,0 0,-6z M150,168l6,0 0,6 -6,0 0,-6z M156,168l6,0 0,6 -6,0 0,-6z M162,168l6,0 0,6 -6,0 0,-6z M174,168l6,0 0,6 -6,0 0,-6z M186,168l6,0 0,6 -6,0 0,-6z M198,168l6,0 0,6 -6,0 0,-6z M216,168l6,0 0,6 -6,0 0,-6z M234,168l6,0 0,6 -6,0 0,-6z M240,168l6,0 0,6 -6,0 0,-6z M252,168l6,0 0,6 -6,0 0,-6z M258,168l6,0 0,6 -6,0 0,-6z M12,174l6,0 0,6 -6,0 0,-6z M42,174l6,0 0,6 -6,0 0,-6z M48,174l6,0 0,6 -6,0 0,-6z M60,174l6,0 0,6 -6,0 0,-6z M78,174l6,0 0,6 -6,0 0,-6z M84,174l6,0 0,6 -6,0 0,-6z M90,174l6,0 0,6 -6,0 0,-6z M102,174l6,0 0,6 -6,0 0,-6z M126,174l6,0 0,6 -6,0 0,-6z M132,174l6,0 0,6 -6,0 0,-6z M150,174l6,0 0,6 -6,0 0,-6z M168,174l6,0 0,6 -6,0 0,-6z M192,174l6,0 0,6 -6,0 0,-6z M198,174l6,0 0,6 -6,0 0,-6z M216,174l6,0 0,6 -6,0 0,-6z M222,174l6,0 0,6 -6,0 0,-6z M234,174l6,0 0,6 -6,0 0,-6z M246,174l6,0 0,6 -6,0 0,-6z M252,174l6,0 0,6 -6,0 0,-6z M258,174l6,0 0,6 -6,0 0,-6z M12,180l6,0 0,6 -6,0 0,-6z M18,180l6,0 0,6 -6,0 0,-6z M24,180l6,0 0,6 -6,0 0,-6z M30,180l6,0 0,6 -6,0 0,-6z M36,180l6,0 0,6 -6,0 0,-6z M48,180l6,0 0,6 -6,0 0,-6z M54,180l6,0 0,6 -6,0 0,-6z M66,180l6,0 0,6 -6,0 0,-6z M72,180l6,0 0,6 -6,0 0,-6z M84,180l6,0 0,6 -6,0 0,-6z M90,180l6,0 0,6 -6,0 0,-6z M102,180l6,0 0,6 -6,0 0,-6z M108,180l6,0 0,6 -6,0 0,-6z M114,180l6,0 0,6 -6,0 0,-6z M126,180l6,0 0,6 -6,0 0,-6z M180,180l6,0 0,6 -6,0 0,-6z M204,180l6,0 0,6 -6,0 0,-6z M210,180l6,0 0,6 -6,0 0,-6z M222,180l6,0 0,6 -6,0 0,-6z M228,180l6,0 0,6 -6,0 0,-6z M234,180l6,0 0,6 -6,0 0,-6z M240,180l6,0 0,6 -6,0 0,-6z M246,180l6,0 0,6 -6,0 0,-6z M258,180l6,0 0,6 -6,0 0,-6z M264,180l6,0 0,6 -6,0 0,-6z M270,180l6,0 0,6 -6,0 0,-6z M12,186l6,0 0,6 -6,0 0,-6z M30,186l6,0 0,6 -6,0 0,-6z M42,186l6,0 0,6 -6,0 0,-6z M72,186l6,0 0,6 -6,0 0,-6z M78,186l6,0 0,6 -6,0 0,-6z M96,186l6,0 0,6 -6,0 0,-6z M102,186l6,0 0,6 -6,0 0,-6z M114,186l6,0 0,6 -6,0 0,-6z M126,186l6,0 0,6 -6,0 0,-6z M138,186l6,0 0,6 -6,0 0,-6z M162,186l6,0 0,6 -6,0 0,-6z M174,186l6,0 0,6 -6,0 0,-6z M180,186l6,0 0,6 -6,0 0,-6z M192,186l6,0 0,6 -6,0 0,-6z M198,186l6,0 0,6 -6,0 0,-6z M204,186l6,0 0,6 -6,0 0,-6z M210,186l6,0 0,6 -6,0 0,-6z M222,186l6,0 0,6 -6,0 0,-6z M246,186l6,0 0,6 -6,0 0,-6z M264,186l6,0 0,6 -6,0 0,-6z M6,192l6,0 0,6 -6,0 0,-6z M12,192l6,0 0,6 -6,0 0,-6z M24,192l6,0 0,6 -6,0 0,-6z M30,192l6,0 0,6 -6,0 0,-6z M36,192l6,0 0,6 -6,0 0,-6z M66,192l6,0 0,6 -6,0 0,-6z M84,192l6,0 0,6 -6,0 0,-6z M90,192l6,0 0,6 -6,0 0,-6z M96,192l6,0 0,6 -6,0 0,-6z M102,192l6,0 0,6 -6,0 0,-6z M108,192l6,0 0,6 -6,0 0,-6z M138,192l6,0 0,6 -6,0 0,-6z M162,192l6,0 0,6 -6,0 0,-6z M168,192l6,0 0,6 -6,0 0,-6z M174,192l6,0 0,6 -6,0 0,-6z M186,192l6,0 0,6 -6,0 0,-6z M210,192l6,0 0,6 -6,0 0,-6z M222,192l6,0 0,6 -6,0 0,-6z M252,192l6,0 0,6 -6,0 0,-6z M264,192l6,0 0,6 -6,0 0,-6z M18,198l6,0 0,6 -6,0 0,-6z M42,198l6,0 0,6 -6,0 0,-6z M84,198l6,0 0,6 -6,0 0,-6z M102,198l6,0 0,6 -6,0 0,-6z M108,198l6,0 0,6 -6,0 0,-6z M120,198l6,0 0,6 -6,0 0,-6z M126,198l6,0 0,6 -6,0 0,-6z M132,198l6,0 0,6 -6,0 0,-6z M138,198l6,0 0,6 -6,0 0,-6z M156,198l6,0 0,6 -6,0 0,-6z M162,198l6,0 0,6 -6,0 0,-6z M168,198l6,0 0,6 -6,0 0,-6z M174,198l6,0 0,6 -6,0 0,-6z M180,198l6,0 0,6 -6,0 0,-6z M210,198l6,0 0,6 -6,0 0,-6z M234,198l6,0 0,6 -6,0 0,-6z M240,198l6,0 0,6 -6,0 0,-6z M258,198l6,0 0,6 -6,0 0,-6z M270,198l6,0 0,6 -6,0 0,-6z M30,204l6,0 0,6 -6,0 0,-6z M54,204l6,0 0,6 -6,0 0,-6z M66,204l6,0 0,6 -6,0 0,-6z M72,204l6,0 0,6 -6,0 0,-6z M84,204l6,0 0,6 -6,0 0,-6z M96,204l6,0 0,6 -6,0 0,-6z M108,204l6,0 0,6 -6,0 0,-6z M120,204l6,0 0,6 -6,0 0,-6z M126,204l6,0 0,6 -6,0 0,-6z M132,204l6,0 0,6 -6,0 0,-6z M138,204l6,0 0,6 -6,0 0,-6z M144,204l6,0 0,6 -6,0 0,-6z M150,204l6,0 0,6 -6,0 0,-6z M156,204l6,0 0,6 -6,0 0,-6z M186,204l6,0 0,6 -6,0 0,-6z M192,204l6,0 0,6 -6,0 0,-6z M198,204l6,0 0,6 -6,0 0,-6z M204,204l6,0 0,6 -6,0 0,-6z M216,204l6,0 0,6 -6,0 0,-6z M228,204l6,0 0,6 -6,0 0,-6z M252,204l6,0 0,6 -6,0 0,-6z M270,204l6,0 0,6 -6,0 0,-6z M30,210l6,0 0,6 -6,0 0,-6z M42,210l6,0 0,6 -6,0 0,-6z M72,210l6,0 0,6 -6,0 0,-6z M78,210l6,0 0,6 -6,0 0,-6z M90,210l6,0 0,6 -6,0 0,-6z M102,210l6,0 0,6 -6,0 0,-6z M108,210l6,0 0,6 -6,0 0,-6z M132,210l6,0 0,6 -6,0 0,-6z M138,210l6,0 0,6 -6,0 0,-6z M144,210l6,0 0,6 -6,0 0,-6z M150,210l6,0 0,6 -6,0 0,-6z M174,210l6,0 0,6 -6,0 0,-6z M180,210l6,0 0,6 -6,0 0,-6z M186,210l6,0 0,6 -6,0 0,-6z M192,210l6,0 0,6 -6,0 0,-6z M210,210l6,0 0,6 -6,0 0,-6z M228,210l6,0 0,6 -6,0 0,-6z M234,210l6,0 0,6 -6,0 0,-6z M240,210l6,0 0,6 -6,0 0,-6z M246,210l6,0 0,6 -6,0 0,-6z M258,210l6,0 0,6 -6,0 0,-6z M264,210l6,0 0,6 -6,0 0,-6z M270,210l6,0 0,6 -6,0 0,-6z M12,216l6,0 0,6 -6,0 0,-6z M18,216l6,0 0,6 -6,0 0,-6z M24,216l6,0 0,6 -6,0 0,-6z M30,216l6,0 0,6 -6,0 0,-6z M48,216l6,0 0,6 -6,0 0,-6z M54,216l6,0 0,6 -6,0 0,-6z M72,216l6,0 0,6 -6,0 0,-6z M78,216l6,0 0,6 -6,0 0,-6z M102,216l6,0 0,6 -6,0 0,-6z M108,216l6,0 0,6 -6,0 0,-6z M114,216l6,0 0,6 -6,0 0,-6z M120,216l6,0 0,6 -6,0 0,-6z M132,216l6,0 0,6 -6,0 0,-6z M144,216l6,0 0,6 -6,0 0,-6z M162,216l6,0 0,6 -6,0 0,-6z M180,216l6,0 0,6 -6,0 0,-6z M192,216l6,0 0,6 -6,0 0,-6z M198,216l6,0 0,6 -6,0 0,-6z M216,216l6,0 0,6 -6,0 0,-6z M222,216l6,0 0,6 -6,0 0,-6z M228,216l6,0 0,6 -6,0 0,-6z M234,216l6,0 0,6 -6,0 0,-6z M252,216l6,0 0,6 -6,0 0,-6z M264,216l6,0 0,6 -6,0 0,-6z M270,216l6,0 0,6 -6,0 0,-6z M6,222l6,0 0,6 -6,0 0,-6z M24,222l6,0 0,6 -6,0 0,-6z M30,222l6,0 0,6 -6,0 0,-6z M42,222l6,0 0,6 -6,0 0,-6z M48,222l6,0 0,6 -6,0 0,-6z M84,222l6,0 0,6 -6,0 0,-6z M96,222l6,0 0,6 -6,0 0,-6z M102,222l6,0 0,6 -6,0 0,-6z M108,222l6,0 0,6 -6,0 0,-6z M114,222l6,0 0,6 -6,0 0,-6z M126,222l6,0 0,6 -6,0 0,-6z M132,222l6,0 0,6 -6,0 0,-6z M138,222l6,0 0,6 -6,0 0,-6z M144,222l6,0 0,6 -6,0 0,-6z M150,222l6,0 0,6 -6,0 0,-6z M156,222l6,0 0,6 -6,0 0,-6z M162,222l6,0 0,6 -6,0 0,-6z M186,222l6,0 0,6 -6,0 0,-6z M222,222l6,0 0,6 -6,0 0,-6z M228,222l6,0 0,6 -6,0 0,-6z M234,222l6,0 0,6 -6,0 0,-6z M240,222l6,0 0,6 -6,0 0,-6z M246,222l6,0 0,6 -6,0 0,-6z M264,222l6,0 0,6 -6,0 0,-6z M270,222l6,0 0,6 -6,0 0,-6z M54,228l6,0 0,6 -6,0 0,-6z M66,228l6,0 0,6 -6,0 0,-6z M84,228l6,0 0,6 -6,0 0,-6z M96,228l6,0 0,6 -6,0 0,-6z M108,228l6,0 0,6 -6,0 0,-6z M114,228l6,0 0,6 -6,0 0,-6z M126,228l6,0 0,6 -6,0 0,-6z M150,228l6,0 0,6 -6,0 0,-6z M156,228l6,0 0,6 -6,0 0,-6z M162,228l6,0 0,6 -6,0 0,-6z M168,228l6,0 0,6 -6,0 0,-6z M174,228l6,0 0,6 -6,0 0,-6z M198,228l6,0 0,6 -6,0 0,-6z M204,228l6,0 0,6 -6,0 0,-6z M216,228l6,0 0,6 -6,0 0,-6z M222,228l6,0 0,6 -6,0 0,-6z M246,228l6,0 0,6 -6,0 0,-6z M258,228l6,0 0,6 -6,0 0,-6z M6,234l6,0 0,6 -6,0 0,-6z M12,234l6,0 0,6 -6,0 0,-6z M18,234l6,0 0,6 -6,0 0,-6z M24,234l6,0 0,6 -6,0 0,-6z M30,234l6,0 0,6 -6,0 0,-6z M36,234l6,0 0,6 -6,0 0,-6z M42,234l6,0 0,6 -6,0 0,-6z M60,234l6,0 0,6 -6,0 0,-6z M66,234l6,0 0,6 -6,0 0,-6z M90,234l6,0 0,6 -6,0 0,-6z M96,234l6,0 0,6 -6,0 0,-6z M114,234l6,0 0,6 -6,0 0,-6z M126,234l6,0 0,6 -6,0 0,-6z M138,234l6,0 0,6 -6,0 0,-6z M150,234l6,0 0,6 -6,0 0,-6z M162,234l6,0 0,6 -6,0 0,-6z M168,234l6,0 0,6 -6,0 0,-6z M186,234l6,0 0,6 -6,0 0,-6z M198,234l6,0 0,6 -6,0 0,-6z M216,234l6,0 0,6 -6,0 0,-6z M222,234l6,0 0,6 -6,0 0,-6z M234,234l6,0 0,6 -6,0 0,-6z M246,234l6,0 0,6 -6,0 0,-6z M252,234l6,0 0,6 -6,0 0,-6z M258,234l6,0 0,6 -6,0 0,-6z M264,234l6,0 0,6 -6,0 0,-6z M6,240l6,0 0,6 -6,0 0,-6z M42,240l6,0 0,6 -6,0 0,-6z M60,240l6,0 0,6 -6,0 0,-6z M66,240l6,0 0,6 -6,0 0,-6z M72,240l6,0 0,6 -6,0 0,-6z M78,240l6,0 0,6 -6,0 0,-6z M90,240l6,0 0,6 -6,0 0,-6z M102,240l6,0 0,6 -6,0 0,-6z M108,240l6,0 0,6 -6,0 0,-6z M114,240l6,0 0,6 -6,0 0,-6z M120,240l6,0 0,6 -6,0 0,-6z M126,240l6,0 0,6 -6,0 0,-6z M150,240l6,0 0,6 -6,0 0,-6z M156,240l6,0 0,6 -6,0 0,-6z M168,240l6,0 0,6 -6,0 0,-6z M174,240l6,0 0,6 -6,0 0,-6z M180,240l6,0 0,6 -6,0 0,-6z M198,240l6,0 0,6 -6,0 0,-6z M210,240l6,0 0,6 -6,0 0,-6z M222,240l6,0 0,6 -6,0 0,-6z M246,240l6,0 0,6 -6,0 0,-6z M258,240l6,0 0,6 -6,0 0,-6z M270,240l6,0 0,6 -6,0 0,-6z M6,246l6,0 0,6 -6,0 0,-6z M18,246l6,0 0,6 -6,0 0,-6z M24,246l6,0 0,6 -6,0 0,-6z M30,246l6,0 0,6 -6,0 0,-6z M42,246l6,0 0,6 -6,0 0,-6z M60,246l6,0 0,6 -6,0 0,-6z M84,246l6,0 0,6 -6,0 0,-6z M102,246l6,0 0,6 -6,0 0,-6z M126,246l6,0 0,6 -6,0 0,-6z M132,246l6,0 0,6 -6,0 0,-6z M138,246l6,0 0,6 -6,0 0,-6z M144,246l6,0 0,6 -6,0 0,-6z M150,246l6,0 0,6 -6,0 0,-6z M156,246l6,0 0,6 -6,0 0,-6z M162,246l6,0 0,6 -6,0 0,-6z M168,246l6,0 0,6 -6,0 0,-6z M186,246l6,0 0,6 -6,0 0,-6z M192,246l6,0 0,6 -6,0 0,-6z M198,246l6,0 0,6 -6,0 0,-6z M210,246l6,0 0,6 -6,0 0,-6z M216,246l6,0 0,6 -6,0 0,-6z M222,246l6,0 0,6 -6,0 0,-6z M228,246l6,0 0,6 -6,0 0,-6z M234,246l6,0 0,6 -6,0 0,-6z M240,246l6,0 0,6 -6,0 0,-6z M246,246l6,0 0,6 -6,0 0,-6z M252,246l6,0 0,6 -6,0 0,-6z M258,246l6,0 0,6 -6,0 0,-6z M270,246l6,0 0,6 -6,0 0,-6z M6,252l6,0 0,6 -6,0 0,-6z M18,252l6,0 0,6 -6,0 0,-6z M24,252l6,0 0,6 -6,0 0,-6z M30,252l6,0 0,6 -6,0 0,-6z M42,252l6,0 0,6 -6,0 0,-6z M54,252l6,0 0,6 -6,0 0,-6z M60,252l6,0 0,6 -6,0 0,-6z M84,252l6,0 0,6 -6,0 0,-6z M96,252l6,0 0,6 -6,0 0,-6z M102,252l6,0 0,6 -6,0 0,-6z M114,252l6,0 0,6 -6,0 0,-6z M120,252l6,0 0,6 -6,0 0,-6z M132,252l6,0 0,6 -6,0 0,-6z M138,252l6,0 0,6 -6,0 0,-6z M150,252l6,0 0,6 -6,0 0,-6z M168,252l6,0 0,6 -6,0 0,-6z M180,252l6,0 0,6 -6,0 0,-6z M198,252l6,0 0,6 -6,0 0,-6z M204,252l6,0 0,6 -6,0 0,-6z M210,252l6,0 0,6 -6,0 0,-6z M222,252l6,0 0,6 -6,0 0,-6z M234,252l6,0 0,6 -6,0 0,-6z M252,252l6,0 0,6 -6,0 0,-6z M258,252l6,0 0,6 -6,0 0,-6z M264,252l6,0 0,6 -6,0 0,-6z M6,258l6,0 0,6 -6,0 0,-6z M18,258l6,0 0,6 -6,0 0,-6z M24,258l6,0 0,6 -6,0 0,-6z M30,258l6,0 0,6 -6,0 0,-6z M42,258l6,0 0,6 -6,0 0,-6z M54,258l6,0 0,6 -6,0 0,-6z M66,258l6,0 0,6 -6,0 0,-6z M72,258l6,0 0,6 -6,0 0,-6z M78,258l6,0 0,6 -6,0 0,-6z M96,258l6,0 0,6 -6,0 0,-6z M102,258l6,0 0,6 -6,0 0,-6z M120,258l6,0 0,6 -6,0 0,-6z M138,258l6,0 0,6 -6,0 0,-6z M144,258l6,0 0,6 -6,0 0,-6z M162,258l6,0 0,6 -6,0 0,-6z M192,258l6,0 0,6 -6,0 0,-6z M204,258l6,0 0,6 -6,0 0,-6z M210,258l6,0 0,6 -6,0 0,-6z M216,258l6,0 0,6 -6,0 0,-6z M222,258l6,0 0,6 -6,0 0,-6z M234,258l6,0 0,6 -6,0 0,-6z M252,258l6,0 0,6 -6,0 0,-6z M270,258l6,0 0,6 -6,0 0,-6z M6,264l6,0 0,6 -6,0 0,-6z M42,264l6,0 0,6 -6,0 0,-6z M54,264l6,0 0,6 -6,0 0,-6z M60,264l6,0 0,6 -6,0 0,-6z M72,264l6,0 0,6 -6,0 0,-6z M84,264l6,0 0,6 -6,0 0,-6z M96,264l6,0 0,6 -6,0 0,-6z M102,264l6,0 0,6 -6,0 0,-6z M132,264l6,0 0,6 -6,0 0,-6z M150,264l6,0 0,6 -6,0 0,-6z M162,264l6,0 0,6 -6,0 0,-6z M174,264l6,0 0,6 -6,0 0,-6z M180,264l6,0 0,6 -6,0 0,-6z M186,264l6,0 0,6 -6,0 0,-6z M228,264l6,0 0,6 -6,0 0,-6z M234,264l6,0 0,6 -6,0 0,-6z M240,264l6,0 0,6 -6,0 0,-6z M246,264l6,0 0,6 -6,0 0,-6z M270,264l6,0 0,6 -6,0 0,-6z M6,270l6,0 0,6 -6,0 0,-6z M12,270l6,0 0,6 -6,0 0,-6z M18,270l6,0 0,6 -6,0 0,-6z M24,270l6,0 0,6 -6,0 0,-6z M30,270l6,0 0,6 -6,0 0,-6z M36,270l6,0 0,6 -6,0 0,-6z M42,270l6,0 0,6 -6,0 0,-6z M54,270l6,0 0,6 -6,0 0,-6z M72,270l6,0 0,6 -6,0 0,-6z M78,270l6,0 0,6 -6,0 0,-6z M108,270l6,0 0,6 -6,0 0,-6z M132,270l6,0 0,6 -6,0 0,-6z M138,270l6,0 0,6 -6,0 0,-6z M144,270l6,0 0,6 -6,0 0,-6z M162,270l6,0 0,6 -6,0 0,-6z M168,270l6,0 0,6 -6,0 0,-6z M174,270l6,0 0,6 -6,0 0,-6z M180,270l6,0 0,6 -6,0 0,-6z M204,270l6,0 0,6 -6,0 0,-6z M210,270l6,0 0,6 -6,0 0,-6z M222,270l6,0 0,6 -6,0 0,-6z M234,270l6,0 0,6 -6,0 0,-6z M240,270l6,0 0,6 -6,0 0,-6z M258,270l6,0 0,6 -6,0 0,-6z " stroke="transparent" fill="#000000"/></svg>