<svg version="1.1" xmlns="http://www.w3.org/2000/svg" width="300px" height="300px" viewBox="0 0 282 282"  preserveAspectRatio="xMinYMin meet"><rect width="100%" height="100%" fill="#ffffff" cx="0" cy="0"/><path d="M6,6l6,0 0,6 -6,0 0,-6z M12,6l6,0 0,6 -6,0 0,-6z M18,6l6,0 0,6 -6,0 0,-6z M24,6l6,0 0,6 -6,0 0,-6z M30,6l6,0 0,6 -6,0 0,-6z M36,6l6,0 0,6 -6,0 0,-6z M42,6l6,0 0,6 -6,0 0,-6z M54,6l6,0 0,6 -6,0 0,-6z M78,6l6,0 0,6 -6,0 0,-6z M102,6l6,0 0,6 -6,0 0,-6z M108,6l6,0 0,6 -6,0 0,-6z M120,6l6,0 0,6 -6,0 0,-6z M126,6l6,0 0,6 -6,0 0,-6z M144,6l6,0 0,6 -6,0 0,-6z M150,6l6,0 0,6 -6,0 0,-6z M156,6l6,0 0,6 -6,0 0,-6z M162,6l6,0 0,6 -6,0 0,-6z M168,6l6,0 0,6 -6,0 0,-6z M180,6l6,0 0,6 -6,0 0,-6z M186,6l6,0 0,6 -6,0 0,-6z M198,6l6,0 0,6 -6,0 0,-6z M222,6l6,0 0,6 -6,0 0,-6z M234,6l6,0 0,6 -6,0 0,-6z M240,6l6,0 0,6 -6,0 0,-6z M246,6l6,0 0,6 -6,0 0,-6z M252,6l6,0 0,6 -6,0 0,-6z M258,6l6,0 0,6 -6,0 0,-6z M264,6l6,0 0,6 -6,0 0,-6z M270,6l6,0 0,6 -6,0 0,-6z M6,12l6,0 0,6 -6,0 0,-6z M42,12l6,0 0,6 -6,0 0,-6z M60,12l6,0 0,6 -6,0 0,-6z M72,12l6,0 0,6 -6,0 0,-6z M96,12l6,0 0,6 -6,0 0,-6z M108,12l6,0 0,6 -6,0 0,-6z M114,12l6,0 0,6 -6,0 0,-6z M132,12l6,0 0,6 -6,0 0,-6z M144,12l6,0 0,6 -6,0 0,-6z M150,12l6,0 0,6 -6,0 0,-6z M156,12l6,0 0,6 -6,0 0,-6z M198,12l6,0 0,6 -6,0 0,-6z M216,12l6,0 0,6 -6,0 0,-6z M234,12l6,0 0,6 -6,0 0,-6z M270,12l6,0 0,6 -6,0 0,-6z M6,18l6,0 0,6 -6,0 0,-6z M18,18l6,0 0,6 -6,0 0,-6z M24,18l6,0 0,6 -6,0 0,-6z M30,18l6,0 0,6 -6,0 0,-6z M42,18l6,0 0,6 -6,0 0,-6z M78,18l6,0 0,6 -6,0 0,-6z M90,18l6,0 0,6 -6,0 0,-6z M96,18l6,0 0,6 -6,0 0,-6z M108,18l6,0 0,6 -6,0 0,-6z M120,18l6,0 0,6 -6,0 0,-6z M132,18l6,0 0,6 -6,0 0,-6z M138,18l6,0 0,6 -6,0 0,-6z M144,18l6,0 0,6 -6,0 0,-6z M156,18l6,0 0,6 -6,0 0,-6z M168,18l6,0 0,6 -6,0 0,-6z M180,18l6,0 0,6 -6,0 0,-6z M186,18l6,0 0,6 -6,0 0,-6z M198,18l6,0 0,6 -6,0 0,-6z M204,18l6,0 0,6 -6,0 0,-6z M216,18l6,0 0,6 -6,0 0,-6z M234,18l6,0 0,6 -6,0 0,-6z M246,18l6,0 0,6 -6,0 0,-6z M252,18l6,0 0,6 -6,0 0,-6z M258,18l6,0 0,6 -6,0 0,-6z M270,18l6,0 0,6 -6,0 0,-6z M6,24l6,0 0,6 -6,0 0,-6z M18,24l6,0 0,6 -6,0 0,-6z M24,24l6,0 0,6 -6,0 0,-6z M30,24l6,0 0,6 -6,0 0,-6z M42,24l6,0 0,6 -6,0 0,-6z M60,24l6,0 0,6 -6,0 0,-6z M66,24l6,0 0,6 -6,0 0,-6z M78,24l6,0 0,6 -6,0 0,-6z M84,24l6,0 0,6 -6,0 0,-6z M90,24l6,0 0,6 -6,0 0,-6z M108,24l6,0 0,6 -6,0 0,-6z M114,24l6,0 0,6 -6,0 0,-6z M144,24l6,0 0,6 -6,0 0,-6z M156,24l6,0 0,6 -6,0 0,-6z M162,24l6,0 0,6 -6,0 0,-6z M168,24l6,0 0,6 -6,0 0,-6z M174,24l6,0 0,6 -6,0 0,-6z M186,24l6,0 0,6 -6,0 0,-6z M192,24l6,0 0,6 -6,0 0,-6z M198,24l6,0 0,6 -6,0 0,-6z M204,24l6,0 0,6 -6,0 0,-6z M216,24l6,0 0,6 -6,0 0,-6z M222,24l6,0 0,6 -6,0 0,-6z M234,24l6,0 0,6 -6,0 0,-6z M246,24l6,0 0,6 -6,0 0,-6z M252,24l6,0 0,6 -6,0 0,-6z M258,24l6,0 0,6 -6,0 0,-6z M270,24l6,0 0,6 -6,0 0,-6z M6,30l6,0 0,6 -6,0 0,-6z M18,30l6,0 0,6 -6,0 0,-6z M24,30l6,0 0,6 -6,0 0,-6z M30,30l6,0 0,6 -6,0 0,-6z M42,30l6,0 0,6 -6,0 0,-6z M78,30l6,0 0,6 -6,0 0,-6z M120,30l6,0 0,6 -6,0 0,-6z M126,30l6,0 0,6 -6,0 0,-6z M132,30l6,0 0,6 -6,0 0,-6z M138,30l6,0 0,6 -6,0 0,-6z M144,30l6,0 0,6 -6,0 0,-6z M150,30l6,0 0,6 -6,0 0,-6z M156,30l6,0 0,6 -6,0 0,-6z M162,30l6,0 0,6 -6,0 0,-6z M186,30l6,0 0,6 -6,0 0,-6z M192,30l6,0 0,6 -6,0 0,-6z M210,30l6,0 0,6 -6,0 0,-6z M216,30l6,0 0,6 -6,0 0,-6z M222,30l6,0 0,6 -6,0 0,-6z M234,30l6,0 0,6 -6,0 0,-6z M246,30l6,0 0,6 -6,0 0,-6z M252,30l6,0 0,6 -6,0 0,-6z M258,30l6,0 0,6 -6,0 0,-6z M270,30l6,0 0,6 -6,0 0,-6z M6,36l6,0 0,6 -6,0 0,-6z M42,36l6,0 0,6 -6,0 0,-6z M72,36l6,0 0,6 -6,0 0,-6z M102,36l6,0 0,6 -6,0 0,-6z M126,36l6,0 0,6 -6,0 0,-6z M150,36l6,0 0,6 -6,0 0,-6z M162,36l6,0 0,6 -6,0 0,-6z M168,36l6,0 0,6 -6,0 0,-6z M234,36l6,0 0,6 -6,0 0,-6z M270,36l6,0 0,6 -6,0 0,-6z M6,42l6,0 0,6 -6,0 0,-6z M12,42l6,0 0,6 -6,0 0,-6z M18,42l6,0 0,6 -6,0 0,-6z M24,42l6,0 0,6 -6,0 0,-6z M30,42l6,0 0,6 -6,0 0,-6z M36,42l6,0 0,6 -6,0 0,-6z M42,42l6,0 0,6 -6,0 0,-6z M54,42l6,0 0,6 -6,0 0,-6z M66,42l6,0 0,6 -6,0 0,-6z M78,42l6,0 0,6 -6,0 0,-6z M90,42l6,0 0,6 -6,0 0,-6z M102,42l6,0 0,6 -6,0 0,-6z M114,42l6,0 0,6 -6,0 0,-6z M126,42l6,0 0,6 -6,0 0,-6z M138,42l6,0 0,6 -6,0 0,-6z M150,42l6,0 0,6 -6,0 0,-6z M162,42l6,0 0,6 -6,0 0,-6z M174,42l6,0 0,6 -6,0 0,-6z M186,42l6,0 0,6 -6,0 0,-6z M198,42l6,0 0,6 -6,0 0,-6z M210,42l6,0 0,6 -6,0 0,-6z M222,42l6,0 0,6 -6,0 0,-6z M234,42l6,0 0,6 -6,0 0,-6z M240,42l6,0 0,6 -6,0 0,-6z M246,42l6,0 0,6 -6,0 0,-6z M252,42l6,0 0,6 -6,0 0,-6z M258,42l6,0 0,6 -6,0 0,-6z M264,42l6,0 0,6 -6,0 0,-6z M270,42l6,0 0,6 -6,0 0,-6z M54,48l6,0 0,6 -6,0 0,-6z M66,48l6,0 0,6 -6,0 0,-6z M72,48l6,0 0,6 -6,0 0,-6z M78,48l6,0 0,6 -6,0 0,-6z M84,48l6,0 0,6 -6,0 0,-6z M90,48l6,0 0,6 -6,0 0,-6z M96,48l6,0 0,6 -6,0 0,-6z M102,48l6,0 0,6 -6,0 0,-6z M108,48l6,0 0,6 -6,0 0,-6z M114,48l6,0 0,6 -6,0 0,-6z M126,48l6,0 0,6 -6,0 0,-6z M150,48l6,0 0,6 -6,0 0,-6z M174,48l6,0 0,6 -6,0 0,-6z M180,48l6,0 0,6 -6,0 0,-6z M192,48l6,0 0,6 -6,0 0,-6z M216,48l6,0 0,6 -6,0 0,-6z M222,48l6,0 0,6 -6,0 0,-6z M6,54l6,0 0,6 -6,0 0,-6z M12,54l6,0 0,6 -6,0 0,-6z M24,54l6,0 0,6 -6,0 0,-6z M30,54l6,0 0,6 -6,0 0,-6z M42,54l6,0 0,6 -6,0 0,-6z M72,54l6,0 0,6 -6,0 0,-6z M78,54l6,0 0,6 -6,0 0,-6z M96,54l6,0 0,6 -6,0 0,-6z M108,54l6,0 0,6 -6,0 0,-6z M114,54l6,0 0,6 -6,0 0,-6z M120,54l6,0 0,6 -6,0 0,-6z M126,54l6,0 0,6 -6,0 0,-6z M132,54l6,0 0,6 -6,0 0,-6z M138,54l6,0 0,6 -6,0 0,-6z M144,54l6,0 0,6 -6,0 0,-6z M150,54l6,0 0,6 -6,0 0,-6z M162,54l6,0 0,6 -6,0 0,-6z M174,54l6,0 0,6 -6,0 0,-6z M210,54l6,0 0,6 -6,0 0,-6z M234,54l6,0 0,6 -6,0 0,-6z M270,54l6,0 0,6 -6,0 0,-6z M6,60l6,0 0,6 -6,0 0,-6z M12,60l6,0 0,6 -6,0 0,-6z M24,60l6,0 0,6 -6,0 0,-6z M54,60l6,0 0,6 -6,0 0,-6z M60,60l6,0 0,6 -6,0 0,-6z M72,60l6,0 0,6 -6,0 0,-6z M78,60l6,0 0,6 -6,0 0,-6z M84,60l6,0 0,6 -6,0 0,-6z M96,60l6,0 0,6 -6,0 0,-6z M102,60l6,0 0,6 -6,0 0,-6z M120,60l6,0 0,6 -6,0 0,-6z M126,60l6,0 0,6 -6,0 0,-6z M132,60l6,0 0,6 -6,0 0,-6z M156,60l6,0 0,6 -6,0 0,-6z M162,60l6,0 0,6 -6,0 0,-6z M168,60l6,0 0,6 -6,0 0,-6z M174,60l6,0 0,6 -6,0 0,-6z M180,60l6,0 0,6 -6,0 0,-6z M186,60l6,0 0,6 -6,0 0,-6z M198,60l6,0 0,6 -6,0 0,-6z M204,60l6,0 0,6 -6,0 0,-6z M210,60l6,0 0,6 -6,0 0,-6z M216,60l6,0 0,6 -6,0 0,-6z M222,60l6,0 0,6 -6,0 0,-6z M228,60l6,0 0,6 -6,0 0,-6z M234,60l6,0 0,6 -6,0 0,-6z M246,60l6,0 0,6 -6,0 0,-6z M252,60l6,0 0,6 -6,0 0,-6z M258,60l6,0 0,6 -6,0 0,-6z M264,60l6,0 0,6 -6,0 0,-6z M12,66l6,0 0,6 -6,0 0,-6z M30,66l6,0 0,6 -6,0 0,-6z M42,66l6,0 0,6 -6,0 0,-6z M48,66l6,0 0,6 -6,0 0,-6z M66,66l6,0 0,6 -6,0 0,-6z M90,66l6,0 0,6 -6,0 0,-6z M96,66l6,0 0,6 -6,0 0,-6z M102,66l6,0 0,6 -6,0 0,-6z M108,66l6,0 0,6 -6,0 0,-6z M114,66l6,0 0,6 -6,0 0,-6z M120,66l6,0 0,6 -6,0 0,-6z M132,66l6,0 0,6 -6,0 0,-6z M150,66l6,0 0,6 -6,0 0,-6z M180,66l6,0 0,6 -6,0 0,-6z M192,66l6,0 0,6 -6,0 0,-6z M210,66l6,0 0,6 -6,0 0,-6z M222,66l6,0 0,6 -6,0 0,-6z M246,66l6,0 0,6 -6,0 0,-6z M252,66l6,0 0,6 -6,0 0,-6z M258,66l6,0 0,6 -6,0 0,-6z M264,66l6,0 0,6 -6,0 0,-6z M270,66l6,0 0,6 -6,0 0,-6z M24,72l6,0 0,6 -6,0 0,-6z M36,72l6,0 0,6 -6,0 0,-6z M48,72l6,0 0,6 -6,0 0,-6z M60,72l6,0 0,6 -6,0 0,-6z M66,72l6,0 0,6 -6,0 0,-6z M72,72l6,0 0,6 -6,0 0,-6z M78,72l6,0 0,6 -6,0 0,-6z M90,72l6,0 0,6 -6,0 0,-6z M96,72l6,0 0,6 -6,0 0,-6z M108,72l6,0 0,6 -6,0 0,-6z M120,72l6,0 0,6 -6,0 0,-6z M132,72l6,0 0,6 -6,0 0,-6z M138,72l6,0 0,6 -6,0 0,-6z M156,72l6,0 0,6 -6,0 0,-6z M162,72l6,0 0,6 -6,0 0,-6z M180,72l6,0 0,6 -6,0 0,-6z M186,72l6,0 0,6 -6,0 0,-6z M192,72l6,0 0,6 -6,0 0,-6z M198,72l6,0 0,6 -6,0 0,-6z M210,72l6,0 0,6 -6,0 0,-6z M222,72l6,0 0,6 -6,0 0,-6z M228,72l6,0 0,6 -6,0 0,-6z M258,72l6,0 0,6 -6,0 0,-6z M12,78l6,0 0,6 -6,0 0,-6z M30,78l6,0 0,6 -6,0 0,-6z M36,78l6,0 0,6 -6,0 0,-6z M42,78l6,0 0,6 -6,0 0,-6z M60,78l6,0 0,6 -6,0 0,-6z M66,78l6,0 0,6 -6,0 0,-6z M84,78l6,0 0,6 -6,0 0,-6z M90,78l6,0 0,6 -6,0 0,-6z M96,78l6,0 0,6 -6,0 0,-6z M114,78l6,0 0,6 -6,0 0,-6z M120,78l6,0 0,6 -6,0 0,-6z M132,78l6,0 0,6 -6,0 0,-6z M156,78l6,0 0,6 -6,0 0,-6z M168,78l6,0 0,6 -6,0 0,-6z M174,78l6,0 0,6 -6,0 0,-6z M180,78l6,0 0,6 -6,0 0,-6z M198,78l6,0 0,6 -6,0 0,-6z M210,78l6,0 0,6 -6,0 0,-6z M228,78l6,0 0,6 -6,0 0,-6z M234,78l6,0 0,6 -6,0 0,-6z M246,78l6,0 0,6 -6,0 0,-6z M252,78l6,0 0,6 -6,0 0,-6z M270,78l6,0 0,6 -6,0 0,-6z M24,84l6,0 0,6 -6,0 0,-6z M48,84l6,0 0,6 -6,0 0,-6z M66,84l6,0 0,6 -6,0 0,-6z M84,84l6,0 0,6 -6,0 0,-6z M96,84l6,0 0,6 -6,0 0,-6z M120,84l6,0 0,6 -6,0 0,-6z M126,84l6,0 0,6 -6,0 0,-6z M132,84l6,0 0,6 -6,0 0,-6z M138,84l6,0 0,6 -6,0 0,-6z M162,84l6,0 0,6 -6,0 0,-6z M168,84l6,0 0,6 -6,0 0,-6z M174,84l6,0 0,6 -6,0 0,-6z M180,84l6,0 0,6 -6,0 0,-6z M186,84l6,0 0,6 -6,0 0,-6z M198,84l6,0 0,6 -6,0 0,-6z M204,84l6,0 0,6 -6,0 0,-6z M216,84l6,0 0,6 -6,0 0,-6z M222,84l6,0 0,6 -6,0 0,-6z M228,84l6,0 0,6 -6,0 0,-6z M234,84l6,0 0,6 -6,0 0,-6z M240,84l6,0 0,6 -6,0 0,-6z M246,84l6,0 0,6 -6,0 0,-6z M258,84l6,0 0,6 -6,0 0,-6z M6,90l6,0 0,6 -6,0 0,-6z M24,90l6,0 0,6 -6,0 0,-6z M42,90l6,0 0,6 -6,0 0,-6z M54,90l6,0 0,6 -6,0 0,-6z M66,90l6,0 0,6 -6,0 0,-6z M84,90l6,0 0,6 -6,0 0,-6z M90,90l6,0 0,6 -6,0 0,-6z M96,90l6,0 0,6 -6,0 0,-6z M108,90l6,0 0,6 -6,0 0,-6z M120,90l6,0 0,6 -6,0 0,-6z M126,90l6,0 0,6 -6,0 0,-6z M138,90l6,0 0,6 -6,0 0,-6z M150,90l6,0 0,6 -6,0 0,-6z M156,90l6,0 0,6 -6,0 0,-6z M162,90l6,0 0,6 -6,0 0,-6z M168,90l6,0 0,6 -6,0 0,-6z M174,90l6,0 0,6 -6,0 0,-6z M192,90l6,0 0,6 -6,0 0,-6z M198,90l6,0 0,6 -6,0 0,-6z M216,90l6,0 0,6 -6,0 0,-6z M222,90l6,0 0,6 -6,0 0,-6z M228,90l6,0 0,6 -6,0 0,-6z M234,90l6,0 0,6 -6,0 0,-6z M258,90l6,0 0,6 -6,0 0,-6z M12,96l6,0 0,6 -6,0 0,-6z M18,96l6,0 0,6 -6,0 0,-6z M36,96l6,0 0,6 -6,0 0,-6z M60,96l6,0 0,6 -6,0 0,-6z M72,96l6,0 0,6 -6,0 0,-6z M84,96l6,0 0,6 -6,0 0,-6z M90,96l6,0 0,6 -6,0 0,-6z M102,96l6,0 0,6 -6,0 0,-6z M120,96l6,0 0,6 -6,0 0,-6z M126,96l6,0 0,6 -6,0 0,-6z M132,96l6,0 0,6 -6,0 0,-6z M138,96l6,0 0,6 -6,0 0,-6z M150,96l6,0 0,6 -6,0 0,-6z M168,96l6,0 0,6 -6,0 0,-6z M186,96l6,0 0,6 -6,0 0,-6z M210,96l6,0 0,6 -6,0 0,-6z M234,96l6,0 0,6 -6,0 0,-6z M252,96l6,0 0,6 -6,0 0,-6z M258,96l6,0 0,6 -6,0 0,-6z M264,96l6,0 0,6 -6,0 0,-6z M12,102l6,0 0,6 -6,0 0,-6z M18,102l6,0 0,6 -6,0 0,-6z M36,102l6,0 0,6 -6,0 0,-6z M42,102l6,0 0,6 -6,0 0,-6z M72,102l6,0 0,6 -6,0 0,-6z M78,102l6,0 0,6 -6,0 0,-6z M84,102l6,0 0,6 -6,0 0,-6z M90,102l6,0 0,6 -6,0 0,-6z M96,102l6,0 0,6 -6,0 0,-6z M102,102l6,0 0,6 -6,0 0,-6z M114,102l6,0 0,6 -6,0 0,-6z M138,102l6,0 0,6 -6,0 0,-6z M144,102l6,0 0,6 -6,0 0,-6z M192,102l6,0 0,6 -6,0 0,-6z M198,102l6,0 0,6 -6,0 0,-6z M204,102l6,0 0,6 -6,0 0,-6z M210,102l6,0 0,6 -6,0 0,-6z M216,102l6,0 0,6 -6,0 0,-6z M228,102l6,0 0,6 -6,0 0,-6z M234,102l6,0 0,6 -6,0 0,-6z M264,102l6,0 0,6 -6,0 0,-6z M18,108l6,0 0,6 -6,0 0,-6z M24,108l6,0 0,6 -6,0 0,-6z M30,108l6,0 0,6 -6,0 0,-6z M36,108l6,0 0,6 -6,0 0,-6z M60,108l6,0 0,6 -6,0 0,-6z M66,108l6,0 0,6 -6,0 0,-6z M72,108l6,0 0,6 -6,0 0,-6z M90,108l6,0 0,6 -6,0 0,-6z M102,108l6,0 0,6 -6,0 0,-6z M108,108l6,0 0,6 -6,0 0,-6z M144,108l6,0 0,6 -6,0 0,-6z M156,108l6,0 0,6 -6,0 0,-6z M174,108l6,0 0,6 -6,0 0,-6z M186,108l6,0 0,6 -6,0 0,-6z M192,108l6,0 0,6 -6,0 0,-6z M198,108l6,0 0,6 -6,0 0,-6z M204,108l6,0 0,6 -6,0 0,-6z M210,108l6,0 0,6 -6,0 0,-6z M222,108l6,0 0,6 -6,0 0,-6z M228,108l6,0 0,6 -6,0 0,-6z M240,108l6,0 0,6 -6,0 0,-6z M258,108l6,0 0,6 -6,0 0,-6z M264,108l6,0 0,6 -6,0 0,-6z M270,108l6,0 0,6 -6,0 0,-6z M6,114l6,0 0,6 -6,0 0,-6z M18,114l6,0 0,6 -6,0 0,-6z M30,114l6,0 0,6 -6,0 0,-6z M42,114l6,0 0,6 -6,0 0,-6z M66,114l6,0 0,6 -6,0 0,-6z M72,114l6,0 0,6 -6,0 0,-6z M114,114l6,0 0,6 -6,0 0,-6z M138,114l6,0 0,6 -6,0 0,-6z M150,114l6,0 0,6 -6,0 0,-6z M156,114l6,0 0,6 -6,0 0,-6z M168,114l6,0 0,6 -6,0 0,-6z M180,114l6,0 0,6 -6,0 0,-6z M198,114l6,0 0,6 -6,0 0,-6z M204,114l6,0 0,6 -6,0 0,-6z M228,114l6,0 0,6 -6,0 0,-6z M258,114l6,0 0,6 -6,0 0,-6z M270,114l6,0 0,6 -6,0 0,-6z M18,120l6,0 0,6 -6,0 0,-6z M36,120l6,0 0,6 -6,0 0,-6z M54,120l6,0 0,6 -6,0 0,-6z M72,120l6,0 0,6 -6,0 0,-6z M78,120l6,0 0,6 -6,0 0,-6z M102,120l6,0 0,6 -6,0 0,-6z M108,120l6,0 0,6 -6,0 0,-6z M114,120l6,0 0,6 -6,0 0,-6z M126,120l6,0 0,6 -6,0 0,-6z M132,120l6,0 0,6 -6,0 0,-6z M150,120l6,0 0,6 -6,0 0,-6z M162,120l6,0 0,6 -6,0 0,-6z M168,120l6,0 0,6 -6,0 0,-6z M174,120l6,0 0,6 -6,0 0,-6z M192,120l6,0 0,6 -6,0 0,-6z M222,120l6,0 0,6 -6,0 0,-6z M246,120l6,0 0,6 -6,0 0,-6z M252,120l6,0 0,6 -6,0 0,-6z M258,120l6,0 0,6 -6,0 0,-6z M264,120l6,0 0,6 -6,0 0,-6z M270,120l6,0 0,6 -6,0 0,-6z M6,126l6,0 0,6 -6,0 0,-6z M12,126l6,0 0,6 -6,0 0,-6z M30,126l6,0 0,6 -6,0 0,-6z M36,126l6,0 0,6 -6,0 0,-6z M42,126l6,0 0,6 -6,0 0,-6z M48,126l6,0 0,6 -6,0 0,-6z M54,126l6,0 0,6 -6,0 0,-6z M60,126l6,0 0,6 -6,0 0,-6z M66,126l6,0 0,6 -6,0 0,-6z M96,126l6,0 0,6 -6,0 0,-6z M108,126l6,0 0,6 -6,0 0,-6z M114,126l6,0 0,6 -6,0 0,-6z M126,126l6,0 0,6 -6,0 0,-6z M132,126l6,0 0,6 -6,0 0,-6z M138,126l6,0 0,6 -6,0 0,-6z M144,126l6,0 0,6 -6,0 0,-6z M150,126l6,0 0,6 -6,0 0,-6z M156,126l6,0 0,6 -6,0 0,-6z M174,126l6,0 0,6 -6,0 0,-6z M180,126l6,0 0,6 -6,0 0,-6z M186,126l6,0 0,6 -6,0 0,-6z M204,126l6,0 0,6 -6,0 0,-6z M222,126l6,0 0,6 -6,0 0,-6z M228,126l6,0 0,6 -6,0 0,-6z M234,126l6,0 0,6 -6,0 0,-6z M240,126l6,0 0,6 -6,0 0,-6z M246,126l6,0 0,6 -6,0 0,-6z M6,132l6,0 0,6 -6,0 0,-6z M30,132l6,0 0,6 -6,0 0,-6z M54,132l6,0 0,6 -6,0 0,-6z M60,132l6,0 0,6 -6,0 0,-6z M66,132l6,0 0,6 -6,0 0,-6z M72,132l6,0 0,6 -6,0 0,-6z M78,132l6,0 0,6 -6,0 0,-6z M96,132l6,0 0,6 -6,0 0,-6z M102,132l6,0 0,6 -6,0 0,-6z M108,132l6,0 0,6 -6,0 0,-6z M120,132l6,0 0,6 -6,0 0,-6z M126,132l6,0 0,6 -6,0 0,-6z M150,132l6,0 0,6 -6,0 0,-6z M162,132l6,0 0,6 -6,0 0,-6z M180,132l6,0 0,6 -6,0 0,-6z M186,132l6,0 0,6 -6,0 0,-6z M198,132l6,0 0,6 -6,0 0,-6z M204,132l6,0 0,6 -6,0 0,-6z M210,132l6,0 0,6 -6,0 0,-6z M216,132l6,0 0,6 -6,0 0,-6z M222,132l6,0 0,6 -6,0 0,-6z M246,132l6,0 0,6 -6,0 0,-6z M258,132l6,0 0,6 -6,0 0,-6z M12,138l6,0 0,6 -6,0 0,-6z M18,138l6,0 0,6 -6,0 0,-6z M30,138l6,0 0,6 -6,0 0,-6z M42,138l6,0 0,6 -6,0 0,-6z M54,138l6,0 0,6 -6,0 0,-6z M60,138l6,0 0,6 -6,0 0,-6z M84,138l6,0 0,6 -6,0 0,-6z M102,138l6,0 0,6 -6,0 0,-6z M120,138l6,0 0,6 -6,0 0,-6z M126,138l6,0 0,6 -6,0 0,-6z M138,138l6,0 0,6 -6,0 0,-6z M150,138l6,0 0,6 -6,0 0,-6z M174,138l6,0 0,6 -6,0 0,-6z M180,138l6,0 0,6 -6,0 0,-6z M192,138l6,0 0,6 -6,0 0,-6z M198,138l6,0 0,6 -6,0 0,-6z M204,138l6,0 0,6 -6,0 0,-6z M210,138l6,0 0,6 -6,0 0,-6z M222,138l6,0 0,6 -6,0 0,-6z M234,138l6,0 0,6 -6,0 0,-6z M246,138l6,0 0,6 -6,0 0,-6z M264,138l6,0 0,6 -6,0 0,-6z M270,138l6,0 0,6 -6,0 0,-6z M6,144l6,0 0,6 -6,0 0,-6z M12,144l6,0 0,6 -6,0 0,-6z M24,144l6,0 0,6 -6,0 0,-6z M30,144l6,0 0,6 -6,0 0,-6z M54,144l6,0 0,6 -6,0 0,-6z M60,144l6,0 0,6 -6,0 0,-6z M66,144l6,0 0,6 -6,0 0,-6z M90,144l6,0 0,6 -6,0 0,-6z M96,144l6,0 0,6 -6,0 0,-6z M120,144l6,0 0,6 -6,0 0,-6z M126,144l6,0 0,6 -6,0 0,-6z M150,144l6,0 0,6 -6,0 0,-6z M156,144l6,0 0,6 -6,0 0,-6z M198,144l6,0 0,6 -6,0 0,-6z M210,144l6,0 0,6 -6,0 0,-6z M216,144l6,0 0,6 -6,0 0,-6z M222,144l6,0 0,6 -6,0 0,-6z M246,144l6,0 0,6 -6,0 0,-6z M252,144l6,0 0,6 -6,0 0,-6z M258,144l6,0 0,6 -6,0 0,-6z M270,144l6,0 0,6 -6,0 0,-6z M6,150l6,0 0,6 -6,0 0,-6z M24,150l6,0 0,6 -6,0 0,-6z M30,150l6,0 0,6 -6,0 0,-6z M36,150l6,0 0,6 -6,0 0,-6z M42,150l6,0 0,6 -6,0 0,-6z M48,150l6,0 0,6 -6,0 0,-6z M54,150l6,0 0,6 -6,0 0,-6z M66,150l6,0 0,6 -6,0 0,-6z M78,150l6,0 0,6 -6,0 0,-6z M90,150l6,0 0,6 -6,0 0,-6z M96,150l6,0 0,6 -6,0 0,-6z M114,150l6,0 0,6 -6,0 0,-6z M126,150l6,0 0,6 -6,0 0,-6z M132,150l6,0 0,6 -6,0 0,-6z M138,150l6,0 0,6 -6,0 0,-6z M144,150l6,0 0,6 -6,0 0,-6z M150,150l6,0 0,6 -6,0 0,-6z M156,150l6,0 0,6 -6,0 0,-6z M174,150l6,0 0,6 -6,0 0,-6z M198,150l6,0 0,6 -6,0 0,-6z M216,150l6,0 0,6 -6,0 0,-6z M222,150l6,0 0,6 -6,0 0,-6z M228,150l6,0 0,6 -6,0 0,-6z M234,150l6,0 0,6 -6,0 0,-6z M240,150l6,0 0,6 -6,0 0,-6z M246,150l6,0 0,6 -6,0 0,-6z M12,156l6,0 0,6 -6,0 0,-6z M30,156l6,0 0,6 -6,0 0,-6z M48,156l6,0 0,6 -6,0 0,-6z M54,156l6,0 0,6 -6,0 0,-6z M60,156l6,0 0,6 -6,0 0,-6z M78,156l6,0 0,6 -6,0 0,-6z M84,156l6,0 0,6 -6,0 0,-6z M96,156l6,0 0,6 -6,0 0,-6z M108,156l6,0 0,6 -6,0 0,-6z M120,156l6,0 0,6 -6,0 0,-6z M138,156l6,0 0,6 -6,0 0,-6z M144,156l6,0 0,6 -6,0 0,-6z M150,156l6,0 0,6 -6,0 0,-6z M162,156l6,0 0,6 -6,0 0,-6z M180,156l6,0 0,6 -6,0 0,-6z M186,156l6,0 0,6 -6,0 0,-6z M204,156l6,0 0,6 -6,0 0,-6z M234,156l6,0 0,6 -6,0 0,-6z M258,156l6,0 0,6 -6,0 0,-6z M12,162l6,0 0,6 -6,0 0,-6z M24,162l6,0 0,6 -6,0 0,-6z M36,162l6,0 0,6 -6,0 0,-6z M42,162l6,0 0,6 -6,0 0,-6z M66,162l6,0 0,6 -6,0 0,-6z M72,162l6,0 0,6 -6,0 0,-6z M78,162l6,0 0,6 -6,0 0,-6z M90,162l6,0 0,6 -6,0 0,-6z M114,162l6,0 0,6 -6,0 0,-6z M120,162l6,0 0,6 -6,0 0,-6z M138,162l6,0 0,6 -6,0 0,-6z M162,162l6,0 0,6 -6,0 0,-6z M174,162l6,0 0,6 -6,0 0,-6z M198,162l6,0 0,6 -6,0 0,-6z M204,162l6,0 0,6 -6,0 0,-6z M6,168l6,0 0,6 -6,0 0,-6z M12,168l6,0 0,6 -6,0 0,-6z M36,168l6,0 0,6 -6,0 0,-6z M66,168l6,0 0,6 -6,0 0,-6z M78,168l6,0 0,6 -6,0 0,-6z M84,168l6,0 0,6 -6,0 0,-6z M90,168l6,0 0,6 -6,0 0,-6z M96,168l6,0 0,6 -6,0 0,-6z M108,168l6,0 0,6 -6,0 0,-6z M120,168l6,0 0,6 -6,0 0,-6z M126,168l6,0 0,6 -6,0 0,-6z M144,168l6,0 0,6 -6,0 0,-6z M150,168l6,0 0,6 -6,0 0,-6z M156,168l6,0 0,6 -6,0 0,-6z M186,168l6,0 0,6 -6,0 0,-6z M216,168l6,0 0,6 -6,0 0,-6z M246,168l6,0 0,6 -6,0 0,-6z M252,168l6,0 0,6 -6,0 0,-6z M258,168l6,0 0,6 -6,0 0,-6z M270,168l6,0 0,6 -6,0 0,-6z M6,174l6,0 0,6 -6,0 0,-6z M12,174l6,0 0,6 -6,0 0,-6z M30,174l6,0 0,6 -6,0 0,-6z M36,174l6,0 0,6 -6,0 0,-6z M42,174l6,0 0,6 -6,0 0,-6z M54,174l6,0 0,6 -6,0 0,-6z M84,174l6,0 0,6 -6,0 0,-6z M90,174l6,0 0,6 -6,0 0,-6z M96,174l6,0 0,6 -6,0 0,-6z M102,174l6,0 0,6 -6,0 0,-6z M114,174l6,0 0,6 -6,0 0,-6z M126,174l6,0 0,6 -6,0 0,-6z M156,174l6,0 0,6 -6,0 0,-6z M162,174l6,0 0,6 -6,0 0,-6z M180,174l6,0 0,6 -6,0 0,-6z M192,174l6,0 0,6 -6,0 0,-6z M198,174l6,0 0,6 -6,0 0,-6z M216,174l6,0 0,6 -6,0 0,-6z M234,174l6,0 0,6 -6,0 0,-6z M240,174l6,0 0,6 -6,0 0,-6z M246,174l6,0 0,6 -6,0 0,-6z M252,174l6,0 0,6 -6,0 0,-6z M6,180l6,0 0,6 -6,0 0,-6z M36,180l6,0 0,6 -6,0 0,-6z M54,180l6,0 0,6 -6,0 0,-6z M60,180l6,0 0,6 -6,0 0,-6z M78,180l6,0 0,6 -6,0 0,-6z M90,180l6,0 0,6 -6,0 0,-6z M102,180l6,0 0,6 -6,0 0,-6z M120,180l6,0 0,6 -6,0 0,-6z M126,180l6,0 0,6 -6,0 0,-6z M144,180l6,0 0,6 -6,0 0,-6z M150,180l6,0 0,6 -6,0 0,-6z M156,180l6,0 0,6 -6,0 0,-6z M168,180l6,0 0,6 -6,0 0,-6z M186,180l6,0 0,6 -6,0 0,-6z M192,180l6,0 0,6 -6,0 0,-6z M204,180l6,0 0,6 -6,0 0,-6z M210,180l6,0 0,6 -6,0 0,-6z M216,180l6,0 0,6 -6,0 0,-6z M234,180l6,0 0,6 -6,0 0,-6z M240,180l6,0 0,6 -6,0 0,-6z M246,180l6,0 0,6 -6,0 0,-6z M252,180l6,0 0,6 -6,0 0,-6z M270,180l6,0 0,6 -6,0 0,-6z M12,186l6,0 0,6 -6,0 0,-6z M18,186l6,0 0,6 -6,0 0,-6z M24,186l6,0 0,6 -6,0 0,-6z M30,186l6,0 0,6 -6,0 0,-6z M42,186l6,0 0,6 -6,0 0,-6z M78,186l6,0 0,6 -6,0 0,-6z M84,186l6,0 0,6 -6,0 0,-6z M90,186l6,0 0,6 -6,0 0,-6z M96,186l6,0 0,6 -6,0 0,-6z M114,186l6,0 0,6 -6,0 0,-6z M120,186l6,0 0,6 -6,0 0,-6z M126,186l6,0 0,6 -6,0 0,-6z M144,186l6,0 0,6 -6,0 0,-6z M204,186l6,0 0,6 -6,0 0,-6z M216,186l6,0 0,6 -6,0 0,-6z M228,186l6,0 0,6 -6,0 0,-6z M234,186l6,0 0,6 -6,0 0,-6z M252,186l6,0 0,6 -6,0 0,-6z M270,186l6,0 0,6 -6,0 0,-6z M24,192l6,0 0,6 -6,0 0,-6z M66,192l6,0 0,6 -6,0 0,-6z M72,192l6,0 0,6 -6,0 0,-6z M78,192l6,0 0,6 -6,0 0,-6z M84,192l6,0 0,6 -6,0 0,-6z M96,192l6,0 0,6 -6,0 0,-6z M102,192l6,0 0,6 -6,0 0,-6z M114,192l6,0 0,6 -6,0 0,-6z M120,192l6,0 0,6 -6,0 0,-6z M138,192l6,0 0,6 -6,0 0,-6z M144,192l6,0 0,6 -6,0 0,-6z M150,192l6,0 0,6 -6,0 0,-6z M156,192l6,0 0,6 -6,0 0,-6z M162,192l6,0 0,6 -6,0 0,-6z M168,192l6,0 0,6 -6,0 0,-6z M174,192l6,0 0,6 -6,0 0,-6z M180,192l6,0 0,6 -6,0 0,-6z M192,192l6,0 0,6 -6,0 0,-6z M210,192l6,0 0,6 -6,0 0,-6z M216,192l6,0 0,6 -6,0 0,-6z M228,192l6,0 0,6 -6,0 0,-6z M258,192l6,0 0,6 -6,0 0,-6z M6,198l6,0 0,6 -6,0 0,-6z M12,198l6,0 0,6 -6,0 0,-6z M18,198l6,0 0,6 -6,0 0,-6z M30,198l6,0 0,6 -6,0 0,-6z M42,198l6,0 0,6 -6,0 0,-6z M48,198l6,0 0,6 -6,0 0,-6z M54,198l6,0 0,6 -6,0 0,-6z M66,198l6,0 0,6 -6,0 0,-6z M78,198l6,0 0,6 -6,0 0,-6z M84,198l6,0 0,6 -6,0 0,-6z M96,198l6,0 0,6 -6,0 0,-6z M108,198l6,0 0,6 -6,0 0,-6z M114,198l6,0 0,6 -6,0 0,-6z M120,198l6,0 0,6 -6,0 0,-6z M126,198l6,0 0,6 -6,0 0,-6z M138,198l6,0 0,6 -6,0 0,-6z M156,198l6,0 0,6 -6,0 0,-6z M162,198l6,0 0,6 -6,0 0,-6z M174,198l6,0 0,6 -6,0 0,-6z M180,198l6,0 0,6 -6,0 0,-6z M186,198l6,0 0,6 -6,0 0,-6z M204,198l6,0 0,6 -6,0 0,-6z M210,198l6,0 0,6 -6,0 0,-6z M222,198l6,0 0,6 -6,0 0,-6z M234,198l6,0 0,6 -6,0 0,-6z M270,198l6,0 0,6 -6,0 0,-6z M6,204l6,0 0,6 -6,0 0,-6z M18,204l6,0 0,6 -6,0 0,-6z M36,204l6,0 0,6 -6,0 0,-6z M60,204l6,0 0,6 -6,0 0,-6z M66,204l6,0 0,6 -6,0 0,-6z M72,204l6,0 0,6 -6,0 0,-6z M90,204l6,0 0,6 -6,0 0,-6z M96,204l6,0 0,6 -6,0 0,-6z M102,204l6,0 0,6 -6,0 0,-6z M120,204l6,0 0,6 -6,0 0,-6z M144,204l6,0 0,6 -6,0 0,-6z M156,204l6,0 0,6 -6,0 0,-6z M162,204l6,0 0,6 -6,0 0,-6z M168,204l6,0 0,6 -6,0 0,-6z M174,204l6,0 0,6 -6,0 0,-6z M186,204l6,0 0,6 -6,0 0,-6z M192,204l6,0 0,6 -6,0 0,-6z M210,204l6,0 0,6 -6,0 0,-6z M228,204l6,0 0,6 -6,0 0,-6z M234,204l6,0 0,6 -6,0 0,-6z M240,204l6,0 0,6 -6,0 0,-6z M246,204l6,0 0,6 -6,0 0,-6z M252,204l6,0 0,6 -6,0 0,-6z M30,210l6,0 0,6 -6,0 0,-6z M42,210l6,0 0,6 -6,0 0,-6z M48,210l6,0 0,6 -6,0 0,-6z M54,210l6,0 0,6 -6,0 0,-6z M72,210l6,0 0,6 -6,0 0,-6z M90,210l6,0 0,6 -6,0 0,-6z M102,210l6,0 0,6 -6,0 0,-6z M108,210l6,0 0,6 -6,0 0,-6z M114,210l6,0 0,6 -6,0 0,-6z M144,210l6,0 0,6 -6,0 0,-6z M168,210l6,0 0,6 -6,0 0,-6z M174,210l6,0 0,6 -6,0 0,-6z M180,210l6,0 0,6 -6,0 0,-6z M192,210l6,0 0,6 -6,0 0,-6z M204,210l6,0 0,6 -6,0 0,-6z M210,210l6,0 0,6 -6,0 0,-6z M222,210l6,0 0,6 -6,0 0,-6z M228,210l6,0 0,6 -6,0 0,-6z M234,210l6,0 0,6 -6,0 0,-6z M246,210l6,0 0,6 -6,0 0,-6z M264,210l6,0 0,6 -6,0 0,-6z M270,210l6,0 0,6 -6,0 0,-6z M12,216l6,0 0,6 -6,0 0,-6z M18,216l6,0 0,6 -6,0 0,-6z M24,216l6,0 0,6 -6,0 0,-6z M30,216l6,0 0,6 -6,0 0,-6z M54,216l6,0 0,6 -6,0 0,-6z M84,216l6,0 0,6 -6,0 0,-6z M96,216l6,0 0,6 -6,0 0,-6z M132,216l6,0 0,6 -6,0 0,-6z M138,216l6,0 0,6 -6,0 0,-6z M150,216l6,0 0,6 -6,0 0,-6z M186,216l6,0 0,6 -6,0 0,-6z M198,216l6,0 0,6 -6,0 0,-6z M210,216l6,0 0,6 -6,0 0,-6z M228,216l6,0 0,6 -6,0 0,-6z M234,216l6,0 0,6 -6,0 0,-6z M258,216l6,0 0,6 -6,0 0,-6z M270,216l6,0 0,6 -6,0 0,-6z M6,222l6,0 0,6 -6,0 0,-6z M24,222l6,0 0,6 -6,0 0,-6z M30,222l6,0 0,6 -6,0 0,-6z M42,222l6,0 0,6 -6,0 0,-6z M48,222l6,0 0,6 -6,0 0,-6z M54,222l6,0 0,6 -6,0 0,-6z M66,222l6,0 0,6 -6,0 0,-6z M72,222l6,0 0,6 -6,0 0,-6z M90,222l6,0 0,6 -6,0 0,-6z M96,222l6,0 0,6 -6,0 0,-6z M114,222l6,0 0,6 -6,0 0,-6z M120,222l6,0 0,6 -6,0 0,-6z M126,222l6,0 0,6 -6,0 0,-6z M132,222l6,0 0,6 -6,0 0,-6z M138,222l6,0 0,6 -6,0 0,-6z M144,222l6,0 0,6 -6,0 0,-6z M150,222l6,0 0,6 -6,0 0,-6z M156,222l6,0 0,6 -6,0 0,-6z M174,222l6,0 0,6 -6,0 0,-6z M186,222l6,0 0,6 -6,0 0,-6z M192,222l6,0 0,6 -6,0 0,-6z M198,222l6,0 0,6 -6,0 0,-6z M210,222l6,0 0,6 -6,0 0,-6z M216,222l6,0 0,6 -6,0 0,-6z M222,222l6,0 0,6 -6,0 0,-6z M228,222l6,0 0,6 -6,0 0,-6z M234,222l6,0 0,6 -6,0 0,-6z M240,222l6,0 0,6 -6,0 0,-6z M246,222l6,0 0,6 -6,0 0,-6z M252,222l6,0 0,6 -6,0 0,-6z M270,222l6,0 0,6 -6,0 0,-6z M54,228l6,0 0,6 -6,0 0,-6z M72,228l6,0 0,6 -6,0 0,-6z M78,228l6,0 0,6 -6,0 0,-6z M96,228l6,0 0,6 -6,0 0,-6z M126,228l6,0 0,6 -6,0 0,-6z M150,228l6,0 0,6 -6,0 0,-6z M162,228l6,0 0,6 -6,0 0,-6z M168,228l6,0 0,6 -6,0 0,-6z M180,228l6,0 0,6 -6,0 0,-6z M186,228l6,0 0,6 -6,0 0,-6z M198,228l6,0 0,6 -6,0 0,-6z M204,228l6,0 0,6 -6,0 0,-6z M222,228l6,0 0,6 -6,0 0,-6z M246,228l6,0 0,6 -6,0 0,-6z M252,228l6,0 0,6 -6,0 0,-6z M264,228l6,0 0,6 -6,0 0,-6z M6,234l6,0 0,6 -6,0 0,-6z M12,234l6,0 0,6 -6,0 0,-6z M18,234l6,0 0,6 -6,0 0,-6z M24,234l6,0 0,6 -6,0 0,-6z M30,234l6,0 0,6 -6,0 0,-6z M36,234l6,0 0,6 -6,0 0,-6z M42,234l6,0 0,6 -6,0 0,-6z M60,234l6,0 0,6 -6,0 0,-6z M78,234l6,0 0,6 -6,0 0,-6z M90,234l6,0 0,6 -6,0 0,-6z M108,234l6,0 0,6 -6,0 0,-6z M114,234l6,0 0,6 -6,0 0,-6z M126,234l6,0 0,6 -6,0 0,-6z M138,234l6,0 0,6 -6,0 0,-6z M150,234l6,0 0,6 -6,0 0,-6z M156,234l6,0 0,6 -6,0 0,-6z M162,234l6,0 0,6 -6,0 0,-6z M168,234l6,0 0,6 -6,0 0,-6z M180,234l6,0 0,6 -6,0 0,-6z M216,234l6,0 0,6 -6,0 0,-6z M222,234l6,0 0,6 -6,0 0,-6z M234,234l6,0 0,6 -6,0 0,-6z M246,234l6,0 0,6 -6,0 0,-6z M252,234l6,0 0,6 -6,0 0,-6z M264,234l6,0 0,6 -6,0 0,-6z M6,240l6,0 0,6 -6,0 0,-6z M42,240l6,0 0,6 -6,0 0,-6z M72,240l6,0 0,6 -6,0 0,-6z M78,240l6,0 0,6 -6,0 0,-6z M96,240l6,0 0,6 -6,0 0,-6z M108,240l6,0 0,6 -6,0 0,-6z M114,240l6,0 0,6 -6,0 0,-6z M120,240l6,0 0,6 -6,0 0,-6z M126,240l6,0 0,6 -6,0 0,-6z M150,240l6,0 0,6 -6,0 0,-6z M156,240l6,0 0,6 -6,0 0,-6z M162,240l6,0 0,6 -6,0 0,-6z M180,240l6,0 0,6 -6,0 0,-6z M204,240l6,0 0,6 -6,0 0,-6z M222,240l6,0 0,6 -6,0 0,-6z M246,240l6,0 0,6 -6,0 0,-6z M258,240l6,0 0,6 -6,0 0,-6z M6,246l6,0 0,6 -6,0 0,-6z M18,246l6,0 0,6 -6,0 0,-6z M24,246l6,0 0,6 -6,0 0,-6z M30,246l6,0 0,6 -6,0 0,-6z M42,246l6,0 0,6 -6,0 0,-6z M54,246l6,0 0,6 -6,0 0,-6z M60,246l6,0 0,6 -6,0 0,-6z M66,246l6,0 0,6 -6,0 0,-6z M78,246l6,0 0,6 -6,0 0,-6z M84,246l6,0 0,6 -6,0 0,-6z M96,246l6,0 0,6 -6,0 0,-6z M102,246l6,0 0,6 -6,0 0,-6z M114,246l6,0 0,6 -6,0 0,-6z M126,246l6,0 0,6 -6,0 0,-6z M132,246l6,0 0,6 -6,0 0,-6z M138,246l6,0 0,6 -6,0 0,-6z M144,246l6,0 0,6 -6,0 0,-6z M150,246l6,0 0,6 -6,0 0,-6z M156,246l6,0 0,6 -6,0 0,-6z M162,246l6,0 0,6 -6,0 0,-6z M192,246l6,0 0,6 -6,0 0,-6z M198,246l6,0 0,6 -6,0 0,-6z M204,246l6,0 0,6 -6,0 0,-6z M210,246l6,0 0,6 -6,0 0,-6z M216,246l6,0 0,6 -6,0 0,-6z M222,246l6,0 0,6 -6,0 0,-6z M228,246l6,0 0,6 -6,0 0,-6z M234,246l6,0 0,6 -6,0 0,-6z M240,246l6,0 0,6 -6,0 0,-6z M246,246l6,0 0,6 -6,0 0,-6z M252,246l6,0 0,6 -6,0 0,-6z M270,246l6,0 0,6 -6,0 0,-6z M6,252l6,0 0,6 -6,0 0,-6z M18,252l6,0 0,6 -6,0 0,-6z M24,252l6,0 0,6 -6,0 0,-6z M30,252l6,0 0,6 -6,0 0,-6z M42,252l6,0 0,6 -6,0 0,-6z M54,252l6,0 0,6 -6,0 0,-6z M60,252l6,0 0,6 -6,0 0,-6z M66,252l6,0 0,6 -6,0 0,-6z M72,252l6,0 0,6 -6,0 0,-6z M78,252l6,0 0,6 -6,0 0,-6z M96,252l6,0 0,6 -6,0 0,-6z M102,252l6,0 0,6 -6,0 0,-6z M108,252l6,0 0,6 -6,0 0,-6z M120,252l6,0 0,6 -6,0 0,-6z M126,252l6,0 0,6 -6,0 0,-6z M132,252l6,0 0,6 -6,0 0,-6z M138,252l6,0 0,6 -6,0 0,-6z M144,252l6,0 0,6 -6,0 0,-6z M156,252l6,0 0,6 -6,0 0,-6z M168,252l6,0 0,6 -6,0 0,-6z M186,252l6,0 0,6 -6,0 0,-6z M192,252l6,0 0,6 -6,0 0,-6z M198,252l6,0 0,6 -6,0 0,-6z M204,252l6,0 0,6 -6,0 0,-6z M210,252l6,0 0,6 -6,0 0,-6z M216,252l6,0 0,6 -6,0 0,-6z M228,252l6,0 0,6 -6,0 0,-6z M234,252l6,0 0,6 -6,0 0,-6z M264,252l6,0 0,6 -6,0 0,-6z M6,258l6,0 0,6 -6,0 0,-6z M18,258l6,0 0,6 -6,0 0,-6z M24,258l6,0 0,6 -6,0 0,-6z M30,258l6,0 0,6 -6,0 0,-6z M42,258l6,0 0,6 -6,0 0,-6z M78,258l6,0 0,6 -6,0 0,-6z M84,258l6,0 0,6 -6,0 0,-6z M90,258l6,0 0,6 -6,0 0,-6z M96,258l6,0 0,6 -6,0 0,-6z M108,258l6,0 0,6 -6,0 0,-6z M120,258l6,0 0,6 -6,0 0,-6z M126,258l6,0 0,6 -6,0 0,-6z M132,258l6,0 0,6 -6,0 0,-6z M156,258l6,0 0,6 -6,0 0,-6z M174,258l6,0 0,6 -6,0 0,-6z M180,258l6,0 0,6 -6,0 0,-6z M198,258l6,0 0,6 -6,0 0,-6z M204,258l6,0 0,6 -6,0 0,-6z M222,258l6,0 0,6 -6,0 0,-6z M228,258l6,0 0,6 -6,0 0,-6z M246,258l6,0 0,6 -6,0 0,-6z M264,258l6,0 0,6 -6,0 0,-6z M6,264l6,0 0,6 -6,0 0,-6z M42,264l6,0 0,6 -6,0 0,-6z M54,264l6,0 0,6 -6,0 0,-6z M60,264l6,0 0,6 -6,0 0,-6z M66,264l6,0 0,6 -6,0 0,-6z M78,264l6,0 0,6 -6,0 0,-6z M108,264l6,0 0,6 -6,0 0,-6z M114,264l6,0 0,6 -6,0 0,-6z M120,264l6,0 0,6 -6,0 0,-6z M132,264l6,0 0,6 -6,0 0,-6z M156,264l6,0 0,6 -6,0 0,-6z M162,264l6,0 0,6 -6,0 0,-6z M174,264l6,0 0,6 -6,0 0,-6z M180,264l6,0 0,6 -6,0 0,-6z M186,264l6,0 0,6 -6,0 0,-6z M192,264l6,0 0,6 -6,0 0,-6z M204,264l6,0 0,6 -6,0 0,-6z M216,264l6,0 0,6 -6,0 0,-6z M222,264l6,0 0,6 -6,0 0,-6z M234,264l6,0 0,6 -6,0 0,-6z M240,264l6,0 0,6 -6,0 0,-6z M246,264l6,0 0,6 -6,0 0,-6z M252,264l6,0 0,6 -6,0 0,-6z M258,264l6,0 0,6 -6,0 0,-6z M264,264l6,0 0,6 -6,0 0,-6z M270,264l6,0 0,6 -6,0 0,-6z M6,270l6,0 0,6 -6,0 0,-6z M12,270l6,0 0,6 -6,0 0,-6z M18,270l6,0 0,6 -6,0 0,-6z M24,270l6,0 0,6 -6,0 0,-6z M30,270l6,0 0,6 -6,0 0,-6z M36,270l6,0 0,6 -6,0 0,-6z M42,270l6,0 0,6 -6,0 0,-6z M54,270l6,0 0,6 -6,0 0,-6z M72,270l6,0 0,6 -6,0 0,-6z M96,270l6,0 0,6 -6,0 0,-6z M108,270l6,0 0,6 -6,0 0,-6z M114,270l6,0 0,6 -6,0 0,-6z M138,270l6,0 0,6 -6,0 0,-6z M144,270l6,0 0,6 -6,0 0,-6z M150,270l6,0 0,6 -6,0 0,-6z M174,270l6,0 0,6 -6,0 0,-6z M186,270l6,0 0,6 -6,0 0,-6z M204,270l6,0 0,6 -6,0 0,-6z M210,270l6,0 0,6 -6,0 0,-6z M216,270l6,0 0,6 -6,0 0,-6z M222,270l6,0 0,6 -6,0 0,-6z M234,270l6,0 0,6 -6,0 0,-6z " stroke="transparent" fill="#000000"/></svg>