<svg version="1.1" xmlns="http://www.w3.org/2000/svg" width="300px" height="300px" viewBox="0 0 282 282"  preserveAspectRatio="xMinYMin meet"><rect width="100%" height="100%" fill="#ffffff" cx="0" cy="0"/><path d="M6,6l6,0 0,6 -6,0 0,-6z M12,6l6,0 0,6 -6,0 0,-6z M18,6l6,0 0,6 -6,0 0,-6z M24,6l6,0 0,6 -6,0 0,-6z M30,6l6,0 0,6 -6,0 0,-6z M36,6l6,0 0,6 -6,0 0,-6z M42,6l6,0 0,6 -6,0 0,-6z M54,6l6,0 0,6 -6,0 0,-6z M66,6l6,0 0,6 -6,0 0,-6z M72,6l6,0 0,6 -6,0 0,-6z M84,6l6,0 0,6 -6,0 0,-6z M96,6l6,0 0,6 -6,0 0,-6z M108,6l6,0 0,6 -6,0 0,-6z M126,6l6,0 0,6 -6,0 0,-6z M132,6l6,0 0,6 -6,0 0,-6z M138,6l6,0 0,6 -6,0 0,-6z M150,6l6,0 0,6 -6,0 0,-6z M156,6l6,0 0,6 -6,0 0,-6z M162,6l6,0 0,6 -6,0 0,-6z M174,6l6,0 0,6 -6,0 0,-6z M186,6l6,0 0,6 -6,0 0,-6z M198,6l6,0 0,6 -6,0 0,-6z M204,6l6,0 0,6 -6,0 0,-6z M222,6l6,0 0,6 -6,0 0,-6z M234,6l6,0 0,6 -6,0 0,-6z M240,6l6,0 0,6 -6,0 0,-6z M246,6l6,0 0,6 -6,0 0,-6z M252,6l6,0 0,6 -6,0 0,-6z M258,6l6,0 0,6 -6,0 0,-6z M264,6l6,0 0,6 -6,0 0,-6z M270,6l6,0 0,6 -6,0 0,-6z M6,12l6,0 0,6 -6,0 0,-6z M42,12l6,0 0,6 -6,0 0,-6z M54,12l6,0 0,6 -6,0 0,-6z M60,12l6,0 0,6 -6,0 0,-6z M66,12l6,0 0,6 -6,0 0,-6z M72,12l6,0 0,6 -6,0 0,-6z M78,12l6,0 0,6 -6,0 0,-6z M96,12l6,0 0,6 -6,0 0,-6z M102,12l6,0 0,6 -6,0 0,-6z M108,12l6,0 0,6 -6,0 0,-6z M114,12l6,0 0,6 -6,0 0,-6z M138,12l6,0 0,6 -6,0 0,-6z M144,12l6,0 0,6 -6,0 0,-6z M150,12l6,0 0,6 -6,0 0,-6z M156,12l6,0 0,6 -6,0 0,-6z M198,12l6,0 0,6 -6,0 0,-6z M204,12l6,0 0,6 -6,0 0,-6z M216,12l6,0 0,6 -6,0 0,-6z M234,12l6,0 0,6 -6,0 0,-6z M270,12l6,0 0,6 -6,0 0,-6z M6,18l6,0 0,6 -6,0 0,-6z M18,18l6,0 0,6 -6,0 0,-6z M24,18l6,0 0,6 -6,0 0,-6z M30,18l6,0 0,6 -6,0 0,-6z M42,18l6,0 0,6 -6,0 0,-6z M54,18l6,0 0,6 -6,0 0,-6z M72,18l6,0 0,6 -6,0 0,-6z M84,18l6,0 0,6 -6,0 0,-6z M90,18l6,0 0,6 -6,0 0,-6z M114,18l6,0 0,6 -6,0 0,-6z M132,18l6,0 0,6 -6,0 0,-6z M138,18l6,0 0,6 -6,0 0,-6z M150,18l6,0 0,6 -6,0 0,-6z M168,18l6,0 0,6 -6,0 0,-6z M186,18l6,0 0,6 -6,0 0,-6z M198,18l6,0 0,6 -6,0 0,-6z M204,18l6,0 0,6 -6,0 0,-6z M216,18l6,0 0,6 -6,0 0,-6z M234,18l6,0 0,6 -6,0 0,-6z M246,18l6,0 0,6 -6,0 0,-6z M252,18l6,0 0,6 -6,0 0,-6z M258,18l6,0 0,6 -6,0 0,-6z M270,18l6,0 0,6 -6,0 0,-6z M6,24l6,0 0,6 -6,0 0,-6z M18,24l6,0 0,6 -6,0 0,-6z M24,24l6,0 0,6 -6,0 0,-6z M30,24l6,0 0,6 -6,0 0,-6z M42,24l6,0 0,6 -6,0 0,-6z M54,24l6,0 0,6 -6,0 0,-6z M60,24l6,0 0,6 -6,0 0,-6z M66,24l6,0 0,6 -6,0 0,-6z M72,24l6,0 0,6 -6,0 0,-6z M84,24l6,0 0,6 -6,0 0,-6z M96,24l6,0 0,6 -6,0 0,-6z M126,24l6,0 0,6 -6,0 0,-6z M132,24l6,0 0,6 -6,0 0,-6z M150,24l6,0 0,6 -6,0 0,-6z M156,24l6,0 0,6 -6,0 0,-6z M174,24l6,0 0,6 -6,0 0,-6z M204,24l6,0 0,6 -6,0 0,-6z M216,24l6,0 0,6 -6,0 0,-6z M222,24l6,0 0,6 -6,0 0,-6z M234,24l6,0 0,6 -6,0 0,-6z M246,24l6,0 0,6 -6,0 0,-6z M252,24l6,0 0,6 -6,0 0,-6z M258,24l6,0 0,6 -6,0 0,-6z M270,24l6,0 0,6 -6,0 0,-6z M6,30l6,0 0,6 -6,0 0,-6z M18,30l6,0 0,6 -6,0 0,-6z M24,30l6,0 0,6 -6,0 0,-6z M30,30l6,0 0,6 -6,0 0,-6z M42,30l6,0 0,6 -6,0 0,-6z M60,30l6,0 0,6 -6,0 0,-6z M72,30l6,0 0,6 -6,0 0,-6z M78,30l6,0 0,6 -6,0 0,-6z M84,30l6,0 0,6 -6,0 0,-6z M96,30l6,0 0,6 -6,0 0,-6z M108,30l6,0 0,6 -6,0 0,-6z M126,30l6,0 0,6 -6,0 0,-6z M132,30l6,0 0,6 -6,0 0,-6z M138,30l6,0 0,6 -6,0 0,-6z M144,30l6,0 0,6 -6,0 0,-6z M150,30l6,0 0,6 -6,0 0,-6z M162,30l6,0 0,6 -6,0 0,-6z M168,30l6,0 0,6 -6,0 0,-6z M180,30l6,0 0,6 -6,0 0,-6z M186,30l6,0 0,6 -6,0 0,-6z M198,30l6,0 0,6 -6,0 0,-6z M204,30l6,0 0,6 -6,0 0,-6z M210,30l6,0 0,6 -6,0 0,-6z M216,30l6,0 0,6 -6,0 0,-6z M222,30l6,0 0,6 -6,0 0,-6z M234,30l6,0 0,6 -6,0 0,-6z M246,30l6,0 0,6 -6,0 0,-6z M252,30l6,0 0,6 -6,0 0,-6z M258,30l6,0 0,6 -6,0 0,-6z M270,30l6,0 0,6 -6,0 0,-6z M6,36l6,0 0,6 -6,0 0,-6z M42,36l6,0 0,6 -6,0 0,-6z M54,36l6,0 0,6 -6,0 0,-6z M60,36l6,0 0,6 -6,0 0,-6z M108,36l6,0 0,6 -6,0 0,-6z M114,36l6,0 0,6 -6,0 0,-6z M120,36l6,0 0,6 -6,0 0,-6z M126,36l6,0 0,6 -6,0 0,-6z M150,36l6,0 0,6 -6,0 0,-6z M168,36l6,0 0,6 -6,0 0,-6z M174,36l6,0 0,6 -6,0 0,-6z M198,36l6,0 0,6 -6,0 0,-6z M234,36l6,0 0,6 -6,0 0,-6z M270,36l6,0 0,6 -6,0 0,-6z M6,42l6,0 0,6 -6,0 0,-6z M12,42l6,0 0,6 -6,0 0,-6z M18,42l6,0 0,6 -6,0 0,-6z M24,42l6,0 0,6 -6,0 0,-6z M30,42l6,0 0,6 -6,0 0,-6z M36,42l6,0 0,6 -6,0 0,-6z M42,42l6,0 0,6 -6,0 0,-6z M54,42l6,0 0,6 -6,0 0,-6z M66,42l6,0 0,6 -6,0 0,-6z M78,42l6,0 0,6 -6,0 0,-6z M90,42l6,0 0,6 -6,0 0,-6z M102,42l6,0 0,6 -6,0 0,-6z M114,42l6,0 0,6 -6,0 0,-6z M126,42l6,0 0,6 -6,0 0,-6z M138,42l6,0 0,6 -6,0 0,-6z M150,42l6,0 0,6 -6,0 0,-6z M162,42l6,0 0,6 -6,0 0,-6z M174,42l6,0 0,6 -6,0 0,-6z M186,42l6,0 0,6 -6,0 0,-6z M198,42l6,0 0,6 -6,0 0,-6z M210,42l6,0 0,6 -6,0 0,-6z M222,42l6,0 0,6 -6,0 0,-6z M234,42l6,0 0,6 -6,0 0,-6z M240,42l6,0 0,6 -6,0 0,-6z M246,42l6,0 0,6 -6,0 0,-6z M252,42l6,0 0,6 -6,0 0,-6z M258,42l6,0 0,6 -6,0 0,-6z M264,42l6,0 0,6 -6,0 0,-6z M270,42l6,0 0,6 -6,0 0,-6z M66,48l6,0 0,6 -6,0 0,-6z M72,48l6,0 0,6 -6,0 0,-6z M78,48l6,0 0,6 -6,0 0,-6z M84,48l6,0 0,6 -6,0 0,-6z M90,48l6,0 0,6 -6,0 0,-6z M108,48l6,0 0,6 -6,0 0,-6z M120,48l6,0 0,6 -6,0 0,-6z M126,48l6,0 0,6 -6,0 0,-6z M150,48l6,0 0,6 -6,0 0,-6z M156,48l6,0 0,6 -6,0 0,-6z M162,48l6,0 0,6 -6,0 0,-6z M168,48l6,0 0,6 -6,0 0,-6z M186,48l6,0 0,6 -6,0 0,-6z M198,48l6,0 0,6 -6,0 0,-6z M204,48l6,0 0,6 -6,0 0,-6z M210,48l6,0 0,6 -6,0 0,-6z M216,48l6,0 0,6 -6,0 0,-6z M6,54l6,0 0,6 -6,0 0,-6z M12,54l6,0 0,6 -6,0 0,-6z M30,54l6,0 0,6 -6,0 0,-6z M36,54l6,0 0,6 -6,0 0,-6z M42,54l6,0 0,6 -6,0 0,-6z M66,54l6,0 0,6 -6,0 0,-6z M72,54l6,0 0,6 -6,0 0,-6z M78,54l6,0 0,6 -6,0 0,-6z M90,54l6,0 0,6 -6,0 0,-6z M102,54l6,0 0,6 -6,0 0,-6z M108,54l6,0 0,6 -6,0 0,-6z M114,54l6,0 0,6 -6,0 0,-6z M120,54l6,0 0,6 -6,0 0,-6z M126,54l6,0 0,6 -6,0 0,-6z M132,54l6,0 0,6 -6,0 0,-6z M138,54l6,0 0,6 -6,0 0,-6z M144,54l6,0 0,6 -6,0 0,-6z M150,54l6,0 0,6 -6,0 0,-6z M168,54l6,0 0,6 -6,0 0,-6z M198,54l6,0 0,6 -6,0 0,-6z M204,54l6,0 0,6 -6,0 0,-6z M240,54l6,0 0,6 -6,0 0,-6z M252,54l6,0 0,6 -6,0 0,-6z M258,54l6,0 0,6 -6,0 0,-6z M264,54l6,0 0,6 -6,0 0,-6z M270,54l6,0 0,6 -6,0 0,-6z M6,60l6,0 0,6 -6,0 0,-6z M12,60l6,0 0,6 -6,0 0,-6z M18,60l6,0 0,6 -6,0 0,-6z M36,60l6,0 0,6 -6,0 0,-6z M78,60l6,0 0,6 -6,0 0,-6z M84,60l6,0 0,6 -6,0 0,-6z M96,60l6,0 0,6 -6,0 0,-6z M126,60l6,0 0,6 -6,0 0,-6z M132,60l6,0 0,6 -6,0 0,-6z M138,60l6,0 0,6 -6,0 0,-6z M162,60l6,0 0,6 -6,0 0,-6z M168,60l6,0 0,6 -6,0 0,-6z M180,60l6,0 0,6 -6,0 0,-6z M186,60l6,0 0,6 -6,0 0,-6z M192,60l6,0 0,6 -6,0 0,-6z M198,60l6,0 0,6 -6,0 0,-6z M204,60l6,0 0,6 -6,0 0,-6z M216,60l6,0 0,6 -6,0 0,-6z M222,60l6,0 0,6 -6,0 0,-6z M234,60l6,0 0,6 -6,0 0,-6z M252,60l6,0 0,6 -6,0 0,-6z M258,60l6,0 0,6 -6,0 0,-6z M6,66l6,0 0,6 -6,0 0,-6z M18,66l6,0 0,6 -6,0 0,-6z M24,66l6,0 0,6 -6,0 0,-6z M30,66l6,0 0,6 -6,0 0,-6z M42,66l6,0 0,6 -6,0 0,-6z M66,66l6,0 0,6 -6,0 0,-6z M72,66l6,0 0,6 -6,0 0,-6z M78,66l6,0 0,6 -6,0 0,-6z M96,66l6,0 0,6 -6,0 0,-6z M108,66l6,0 0,6 -6,0 0,-6z M120,66l6,0 0,6 -6,0 0,-6z M126,66l6,0 0,6 -6,0 0,-6z M132,66l6,0 0,6 -6,0 0,-6z M138,66l6,0 0,6 -6,0 0,-6z M162,66l6,0 0,6 -6,0 0,-6z M174,66l6,0 0,6 -6,0 0,-6z M180,66l6,0 0,6 -6,0 0,-6z M186,66l6,0 0,6 -6,0 0,-6z M192,66l6,0 0,6 -6,0 0,-6z M198,66l6,0 0,6 -6,0 0,-6z M234,66l6,0 0,6 -6,0 0,-6z M252,66l6,0 0,6 -6,0 0,-6z M264,66l6,0 0,6 -6,0 0,-6z M18,72l6,0 0,6 -6,0 0,-6z M24,72l6,0 0,6 -6,0 0,-6z M30,72l6,0 0,6 -6,0 0,-6z M48,72l6,0 0,6 -6,0 0,-6z M66,72l6,0 0,6 -6,0 0,-6z M72,72l6,0 0,6 -6,0 0,-6z M90,72l6,0 0,6 -6,0 0,-6z M96,72l6,0 0,6 -6,0 0,-6z M102,72l6,0 0,6 -6,0 0,-6z M108,72l6,0 0,6 -6,0 0,-6z M114,72l6,0 0,6 -6,0 0,-6z M120,72l6,0 0,6 -6,0 0,-6z M138,72l6,0 0,6 -6,0 0,-6z M150,72l6,0 0,6 -6,0 0,-6z M168,72l6,0 0,6 -6,0 0,-6z M180,72l6,0 0,6 -6,0 0,-6z M198,72l6,0 0,6 -6,0 0,-6z M12,78l6,0 0,6 -6,0 0,-6z M18,78l6,0 0,6 -6,0 0,-6z M30,78l6,0 0,6 -6,0 0,-6z M36,78l6,0 0,6 -6,0 0,-6z M42,78l6,0 0,6 -6,0 0,-6z M54,78l6,0 0,6 -6,0 0,-6z M60,78l6,0 0,6 -6,0 0,-6z M66,78l6,0 0,6 -6,0 0,-6z M84,78l6,0 0,6 -6,0 0,-6z M90,78l6,0 0,6 -6,0 0,-6z M102,78l6,0 0,6 -6,0 0,-6z M108,78l6,0 0,6 -6,0 0,-6z M114,78l6,0 0,6 -6,0 0,-6z M138,78l6,0 0,6 -6,0 0,-6z M144,78l6,0 0,6 -6,0 0,-6z M180,78l6,0 0,6 -6,0 0,-6z M186,78l6,0 0,6 -6,0 0,-6z M198,78l6,0 0,6 -6,0 0,-6z M204,78l6,0 0,6 -6,0 0,-6z M228,78l6,0 0,6 -6,0 0,-6z M234,78l6,0 0,6 -6,0 0,-6z M270,78l6,0 0,6 -6,0 0,-6z M12,84l6,0 0,6 -6,0 0,-6z M24,84l6,0 0,6 -6,0 0,-6z M30,84l6,0 0,6 -6,0 0,-6z M48,84l6,0 0,6 -6,0 0,-6z M54,84l6,0 0,6 -6,0 0,-6z M60,84l6,0 0,6 -6,0 0,-6z M66,84l6,0 0,6 -6,0 0,-6z M72,84l6,0 0,6 -6,0 0,-6z M78,84l6,0 0,6 -6,0 0,-6z M84,84l6,0 0,6 -6,0 0,-6z M96,84l6,0 0,6 -6,0 0,-6z M132,84l6,0 0,6 -6,0 0,-6z M138,84l6,0 0,6 -6,0 0,-6z M162,84l6,0 0,6 -6,0 0,-6z M174,84l6,0 0,6 -6,0 0,-6z M180,84l6,0 0,6 -6,0 0,-6z M186,84l6,0 0,6 -6,0 0,-6z M192,84l6,0 0,6 -6,0 0,-6z M204,84l6,0 0,6 -6,0 0,-6z M216,84l6,0 0,6 -6,0 0,-6z M222,84l6,0 0,6 -6,0 0,-6z M228,84l6,0 0,6 -6,0 0,-6z M234,84l6,0 0,6 -6,0 0,-6z M240,84l6,0 0,6 -6,0 0,-6z M246,84l6,0 0,6 -6,0 0,-6z M258,84l6,0 0,6 -6,0 0,-6z M6,90l6,0 0,6 -6,0 0,-6z M24,90l6,0 0,6 -6,0 0,-6z M36,90l6,0 0,6 -6,0 0,-6z M42,90l6,0 0,6 -6,0 0,-6z M78,90l6,0 0,6 -6,0 0,-6z M90,90l6,0 0,6 -6,0 0,-6z M96,90l6,0 0,6 -6,0 0,-6z M108,90l6,0 0,6 -6,0 0,-6z M114,90l6,0 0,6 -6,0 0,-6z M126,90l6,0 0,6 -6,0 0,-6z M138,90l6,0 0,6 -6,0 0,-6z M144,90l6,0 0,6 -6,0 0,-6z M156,90l6,0 0,6 -6,0 0,-6z M162,90l6,0 0,6 -6,0 0,-6z M168,90l6,0 0,6 -6,0 0,-6z M174,90l6,0 0,6 -6,0 0,-6z M180,90l6,0 0,6 -6,0 0,-6z M186,90l6,0 0,6 -6,0 0,-6z M228,90l6,0 0,6 -6,0 0,-6z M234,90l6,0 0,6 -6,0 0,-6z M252,90l6,0 0,6 -6,0 0,-6z M264,90l6,0 0,6 -6,0 0,-6z M24,96l6,0 0,6 -6,0 0,-6z M36,96l6,0 0,6 -6,0 0,-6z M54,96l6,0 0,6 -6,0 0,-6z M60,96l6,0 0,6 -6,0 0,-6z M66,96l6,0 0,6 -6,0 0,-6z M72,96l6,0 0,6 -6,0 0,-6z M78,96l6,0 0,6 -6,0 0,-6z M84,96l6,0 0,6 -6,0 0,-6z M90,96l6,0 0,6 -6,0 0,-6z M96,96l6,0 0,6 -6,0 0,-6z M102,96l6,0 0,6 -6,0 0,-6z M120,96l6,0 0,6 -6,0 0,-6z M138,96l6,0 0,6 -6,0 0,-6z M144,96l6,0 0,6 -6,0 0,-6z M162,96l6,0 0,6 -6,0 0,-6z M180,96l6,0 0,6 -6,0 0,-6z M198,96l6,0 0,6 -6,0 0,-6z M204,96l6,0 0,6 -6,0 0,-6z M210,96l6,0 0,6 -6,0 0,-6z M216,96l6,0 0,6 -6,0 0,-6z M222,96l6,0 0,6 -6,0 0,-6z M240,96l6,0 0,6 -6,0 0,-6z M264,96l6,0 0,6 -6,0 0,-6z M270,96l6,0 0,6 -6,0 0,-6z M12,102l6,0 0,6 -6,0 0,-6z M24,102l6,0 0,6 -6,0 0,-6z M30,102l6,0 0,6 -6,0 0,-6z M42,102l6,0 0,6 -6,0 0,-6z M48,102l6,0 0,6 -6,0 0,-6z M60,102l6,0 0,6 -6,0 0,-6z M66,102l6,0 0,6 -6,0 0,-6z M72,102l6,0 0,6 -6,0 0,-6z M78,102l6,0 0,6 -6,0 0,-6z M84,102l6,0 0,6 -6,0 0,-6z M90,102l6,0 0,6 -6,0 0,-6z M102,102l6,0 0,6 -6,0 0,-6z M108,102l6,0 0,6 -6,0 0,-6z M114,102l6,0 0,6 -6,0 0,-6z M120,102l6,0 0,6 -6,0 0,-6z M138,102l6,0 0,6 -6,0 0,-6z M156,102l6,0 0,6 -6,0 0,-6z M168,102l6,0 0,6 -6,0 0,-6z M180,102l6,0 0,6 -6,0 0,-6z M198,102l6,0 0,6 -6,0 0,-6z M210,102l6,0 0,6 -6,0 0,-6z M234,102l6,0 0,6 -6,0 0,-6z M240,102l6,0 0,6 -6,0 0,-6z M252,102l6,0 0,6 -6,0 0,-6z M6,108l6,0 0,6 -6,0 0,-6z M18,108l6,0 0,6 -6,0 0,-6z M24,108l6,0 0,6 -6,0 0,-6z M30,108l6,0 0,6 -6,0 0,-6z M36,108l6,0 0,6 -6,0 0,-6z M84,108l6,0 0,6 -6,0 0,-6z M96,108l6,0 0,6 -6,0 0,-6z M120,108l6,0 0,6 -6,0 0,-6z M126,108l6,0 0,6 -6,0 0,-6z M138,108l6,0 0,6 -6,0 0,-6z M162,108l6,0 0,6 -6,0 0,-6z M180,108l6,0 0,6 -6,0 0,-6z M186,108l6,0 0,6 -6,0 0,-6z M204,108l6,0 0,6 -6,0 0,-6z M216,108l6,0 0,6 -6,0 0,-6z M222,108l6,0 0,6 -6,0 0,-6z M234,108l6,0 0,6 -6,0 0,-6z M240,108l6,0 0,6 -6,0 0,-6z M246,108l6,0 0,6 -6,0 0,-6z M252,108l6,0 0,6 -6,0 0,-6z M258,108l6,0 0,6 -6,0 0,-6z M30,114l6,0 0,6 -6,0 0,-6z M36,114l6,0 0,6 -6,0 0,-6z M42,114l6,0 0,6 -6,0 0,-6z M54,114l6,0 0,6 -6,0 0,-6z M66,114l6,0 0,6 -6,0 0,-6z M72,114l6,0 0,6 -6,0 0,-6z M78,114l6,0 0,6 -6,0 0,-6z M84,114l6,0 0,6 -6,0 0,-6z M90,114l6,0 0,6 -6,0 0,-6z M102,114l6,0 0,6 -6,0 0,-6z M126,114l6,0 0,6 -6,0 0,-6z M138,114l6,0 0,6 -6,0 0,-6z M162,114l6,0 0,6 -6,0 0,-6z M168,114l6,0 0,6 -6,0 0,-6z M180,114l6,0 0,6 -6,0 0,-6z M186,114l6,0 0,6 -6,0 0,-6z M192,114l6,0 0,6 -6,0 0,-6z M204,114l6,0 0,6 -6,0 0,-6z M222,114l6,0 0,6 -6,0 0,-6z M234,114l6,0 0,6 -6,0 0,-6z M264,114l6,0 0,6 -6,0 0,-6z M6,120l6,0 0,6 -6,0 0,-6z M12,120l6,0 0,6 -6,0 0,-6z M18,120l6,0 0,6 -6,0 0,-6z M30,120l6,0 0,6 -6,0 0,-6z M48,120l6,0 0,6 -6,0 0,-6z M60,120l6,0 0,6 -6,0 0,-6z M66,120l6,0 0,6 -6,0 0,-6z M84,120l6,0 0,6 -6,0 0,-6z M90,120l6,0 0,6 -6,0 0,-6z M102,120l6,0 0,6 -6,0 0,-6z M120,120l6,0 0,6 -6,0 0,-6z M138,120l6,0 0,6 -6,0 0,-6z M186,120l6,0 0,6 -6,0 0,-6z M192,120l6,0 0,6 -6,0 0,-6z M198,120l6,0 0,6 -6,0 0,-6z M204,120l6,0 0,6 -6,0 0,-6z M210,120l6,0 0,6 -6,0 0,-6z M216,120l6,0 0,6 -6,0 0,-6z M234,120l6,0 0,6 -6,0 0,-6z M240,120l6,0 0,6 -6,0 0,-6z M6,126l6,0 0,6 -6,0 0,-6z M12,126l6,0 0,6 -6,0 0,-6z M24,126l6,0 0,6 -6,0 0,-6z M30,126l6,0 0,6 -6,0 0,-6z M36,126l6,0 0,6 -6,0 0,-6z M42,126l6,0 0,6 -6,0 0,-6z M48,126l6,0 0,6 -6,0 0,-6z M54,126l6,0 0,6 -6,0 0,-6z M60,126l6,0 0,6 -6,0 0,-6z M90,126l6,0 0,6 -6,0 0,-6z M102,126l6,0 0,6 -6,0 0,-6z M108,126l6,0 0,6 -6,0 0,-6z M114,126l6,0 0,6 -6,0 0,-6z M120,126l6,0 0,6 -6,0 0,-6z M126,126l6,0 0,6 -6,0 0,-6z M132,126l6,0 0,6 -6,0 0,-6z M138,126l6,0 0,6 -6,0 0,-6z M144,126l6,0 0,6 -6,0 0,-6z M150,126l6,0 0,6 -6,0 0,-6z M168,126l6,0 0,6 -6,0 0,-6z M198,126l6,0 0,6 -6,0 0,-6z M204,126l6,0 0,6 -6,0 0,-6z M210,126l6,0 0,6 -6,0 0,-6z M222,126l6,0 0,6 -6,0 0,-6z M228,126l6,0 0,6 -6,0 0,-6z M234,126l6,0 0,6 -6,0 0,-6z M240,126l6,0 0,6 -6,0 0,-6z M246,126l6,0 0,6 -6,0 0,-6z M270,126l6,0 0,6 -6,0 0,-6z M6,132l6,0 0,6 -6,0 0,-6z M12,132l6,0 0,6 -6,0 0,-6z M24,132l6,0 0,6 -6,0 0,-6z M30,132l6,0 0,6 -6,0 0,-6z M54,132l6,0 0,6 -6,0 0,-6z M66,132l6,0 0,6 -6,0 0,-6z M72,132l6,0 0,6 -6,0 0,-6z M78,132l6,0 0,6 -6,0 0,-6z M84,132l6,0 0,6 -6,0 0,-6z M96,132l6,0 0,6 -6,0 0,-6z M108,132l6,0 0,6 -6,0 0,-6z M126,132l6,0 0,6 -6,0 0,-6z M150,132l6,0 0,6 -6,0 0,-6z M162,132l6,0 0,6 -6,0 0,-6z M168,132l6,0 0,6 -6,0 0,-6z M174,132l6,0 0,6 -6,0 0,-6z M180,132l6,0 0,6 -6,0 0,-6z M186,132l6,0 0,6 -6,0 0,-6z M198,132l6,0 0,6 -6,0 0,-6z M204,132l6,0 0,6 -6,0 0,-6z M216,132l6,0 0,6 -6,0 0,-6z M222,132l6,0 0,6 -6,0 0,-6z M246,132l6,0 0,6 -6,0 0,-6z M258,132l6,0 0,6 -6,0 0,-6z M264,132l6,0 0,6 -6,0 0,-6z M6,138l6,0 0,6 -6,0 0,-6z M18,138l6,0 0,6 -6,0 0,-6z M30,138l6,0 0,6 -6,0 0,-6z M42,138l6,0 0,6 -6,0 0,-6z M54,138l6,0 0,6 -6,0 0,-6z M72,138l6,0 0,6 -6,0 0,-6z M78,138l6,0 0,6 -6,0 0,-6z M84,138l6,0 0,6 -6,0 0,-6z M90,138l6,0 0,6 -6,0 0,-6z M108,138l6,0 0,6 -6,0 0,-6z M120,138l6,0 0,6 -6,0 0,-6z M126,138l6,0 0,6 -6,0 0,-6z M138,138l6,0 0,6 -6,0 0,-6z M150,138l6,0 0,6 -6,0 0,-6z M156,138l6,0 0,6 -6,0 0,-6z M162,138l6,0 0,6 -6,0 0,-6z M180,138l6,0 0,6 -6,0 0,-6z M186,138l6,0 0,6 -6,0 0,-6z M192,138l6,0 0,6 -6,0 0,-6z M222,138l6,0 0,6 -6,0 0,-6z M234,138l6,0 0,6 -6,0 0,-6z M246,138l6,0 0,6 -6,0 0,-6z M258,138l6,0 0,6 -6,0 0,-6z M264,138l6,0 0,6 -6,0 0,-6z M30,144l6,0 0,6 -6,0 0,-6z M54,144l6,0 0,6 -6,0 0,-6z M60,144l6,0 0,6 -6,0 0,-6z M66,144l6,0 0,6 -6,0 0,-6z M90,144l6,0 0,6 -6,0 0,-6z M114,144l6,0 0,6 -6,0 0,-6z M120,144l6,0 0,6 -6,0 0,-6z M126,144l6,0 0,6 -6,0 0,-6z M150,144l6,0 0,6 -6,0 0,-6z M156,144l6,0 0,6 -6,0 0,-6z M168,144l6,0 0,6 -6,0 0,-6z M186,144l6,0 0,6 -6,0 0,-6z M198,144l6,0 0,6 -6,0 0,-6z M204,144l6,0 0,6 -6,0 0,-6z M210,144l6,0 0,6 -6,0 0,-6z M216,144l6,0 0,6 -6,0 0,-6z M222,144l6,0 0,6 -6,0 0,-6z M246,144l6,0 0,6 -6,0 0,-6z M252,144l6,0 0,6 -6,0 0,-6z M270,144l6,0 0,6 -6,0 0,-6z M12,150l6,0 0,6 -6,0 0,-6z M18,150l6,0 0,6 -6,0 0,-6z M24,150l6,0 0,6 -6,0 0,-6z M30,150l6,0 0,6 -6,0 0,-6z M36,150l6,0 0,6 -6,0 0,-6z M42,150l6,0 0,6 -6,0 0,-6z M48,150l6,0 0,6 -6,0 0,-6z M54,150l6,0 0,6 -6,0 0,-6z M60,150l6,0 0,6 -6,0 0,-6z M66,150l6,0 0,6 -6,0 0,-6z M78,150l6,0 0,6 -6,0 0,-6z M90,150l6,0 0,6 -6,0 0,-6z M102,150l6,0 0,6 -6,0 0,-6z M108,150l6,0 0,6 -6,0 0,-6z M114,150l6,0 0,6 -6,0 0,-6z M126,150l6,0 0,6 -6,0 0,-6z M132,150l6,0 0,6 -6,0 0,-6z M138,150l6,0 0,6 -6,0 0,-6z M144,150l6,0 0,6 -6,0 0,-6z M150,150l6,0 0,6 -6,0 0,-6z M156,150l6,0 0,6 -6,0 0,-6z M168,150l6,0 0,6 -6,0 0,-6z M180,150l6,0 0,6 -6,0 0,-6z M198,150l6,0 0,6 -6,0 0,-6z M204,150l6,0 0,6 -6,0 0,-6z M210,150l6,0 0,6 -6,0 0,-6z M216,150l6,0 0,6 -6,0 0,-6z M222,150l6,0 0,6 -6,0 0,-6z M228,150l6,0 0,6 -6,0 0,-6z M234,150l6,0 0,6 -6,0 0,-6z M240,150l6,0 0,6 -6,0 0,-6z M246,150l6,0 0,6 -6,0 0,-6z M252,150l6,0 0,6 -6,0 0,-6z M36,156l6,0 0,6 -6,0 0,-6z M48,156l6,0 0,6 -6,0 0,-6z M60,156l6,0 0,6 -6,0 0,-6z M66,156l6,0 0,6 -6,0 0,-6z M78,156l6,0 0,6 -6,0 0,-6z M84,156l6,0 0,6 -6,0 0,-6z M96,156l6,0 0,6 -6,0 0,-6z M108,156l6,0 0,6 -6,0 0,-6z M120,156l6,0 0,6 -6,0 0,-6z M138,156l6,0 0,6 -6,0 0,-6z M162,156l6,0 0,6 -6,0 0,-6z M180,156l6,0 0,6 -6,0 0,-6z M186,156l6,0 0,6 -6,0 0,-6z M204,156l6,0 0,6 -6,0 0,-6z M216,156l6,0 0,6 -6,0 0,-6z M222,156l6,0 0,6 -6,0 0,-6z M234,156l6,0 0,6 -6,0 0,-6z M258,156l6,0 0,6 -6,0 0,-6z M18,162l6,0 0,6 -6,0 0,-6z M24,162l6,0 0,6 -6,0 0,-6z M30,162l6,0 0,6 -6,0 0,-6z M36,162l6,0 0,6 -6,0 0,-6z M42,162l6,0 0,6 -6,0 0,-6z M48,162l6,0 0,6 -6,0 0,-6z M66,162l6,0 0,6 -6,0 0,-6z M72,162l6,0 0,6 -6,0 0,-6z M78,162l6,0 0,6 -6,0 0,-6z M84,162l6,0 0,6 -6,0 0,-6z M90,162l6,0 0,6 -6,0 0,-6z M96,162l6,0 0,6 -6,0 0,-6z M102,162l6,0 0,6 -6,0 0,-6z M108,162l6,0 0,6 -6,0 0,-6z M138,162l6,0 0,6 -6,0 0,-6z M144,162l6,0 0,6 -6,0 0,-6z M150,162l6,0 0,6 -6,0 0,-6z M156,162l6,0 0,6 -6,0 0,-6z M162,162l6,0 0,6 -6,0 0,-6z M174,162l6,0 0,6 -6,0 0,-6z M180,162l6,0 0,6 -6,0 0,-6z M186,162l6,0 0,6 -6,0 0,-6z M192,162l6,0 0,6 -6,0 0,-6z M198,162l6,0 0,6 -6,0 0,-6z M204,162l6,0 0,6 -6,0 0,-6z M216,162l6,0 0,6 -6,0 0,-6z M222,162l6,0 0,6 -6,0 0,-6z M252,162l6,0 0,6 -6,0 0,-6z M258,162l6,0 0,6 -6,0 0,-6z M264,162l6,0 0,6 -6,0 0,-6z M12,168l6,0 0,6 -6,0 0,-6z M36,168l6,0 0,6 -6,0 0,-6z M48,168l6,0 0,6 -6,0 0,-6z M66,168l6,0 0,6 -6,0 0,-6z M72,168l6,0 0,6 -6,0 0,-6z M84,168l6,0 0,6 -6,0 0,-6z M102,168l6,0 0,6 -6,0 0,-6z M114,168l6,0 0,6 -6,0 0,-6z M120,168l6,0 0,6 -6,0 0,-6z M132,168l6,0 0,6 -6,0 0,-6z M138,168l6,0 0,6 -6,0 0,-6z M156,168l6,0 0,6 -6,0 0,-6z M168,168l6,0 0,6 -6,0 0,-6z M192,168l6,0 0,6 -6,0 0,-6z M198,168l6,0 0,6 -6,0 0,-6z M210,168l6,0 0,6 -6,0 0,-6z M222,168l6,0 0,6 -6,0 0,-6z M234,168l6,0 0,6 -6,0 0,-6z M240,168l6,0 0,6 -6,0 0,-6z M246,168l6,0 0,6 -6,0 0,-6z M6,174l6,0 0,6 -6,0 0,-6z M18,174l6,0 0,6 -6,0 0,-6z M24,174l6,0 0,6 -6,0 0,-6z M30,174l6,0 0,6 -6,0 0,-6z M36,174l6,0 0,6 -6,0 0,-6z M42,174l6,0 0,6 -6,0 0,-6z M54,174l6,0 0,6 -6,0 0,-6z M72,174l6,0 0,6 -6,0 0,-6z M90,174l6,0 0,6 -6,0 0,-6z M102,174l6,0 0,6 -6,0 0,-6z M108,174l6,0 0,6 -6,0 0,-6z M114,174l6,0 0,6 -6,0 0,-6z M120,174l6,0 0,6 -6,0 0,-6z M126,174l6,0 0,6 -6,0 0,-6z M132,174l6,0 0,6 -6,0 0,-6z M144,174l6,0 0,6 -6,0 0,-6z M162,174l6,0 0,6 -6,0 0,-6z M168,174l6,0 0,6 -6,0 0,-6z M186,174l6,0 0,6 -6,0 0,-6z M198,174l6,0 0,6 -6,0 0,-6z M228,174l6,0 0,6 -6,0 0,-6z M234,174l6,0 0,6 -6,0 0,-6z M246,174l6,0 0,6 -6,0 0,-6z M264,174l6,0 0,6 -6,0 0,-6z M6,180l6,0 0,6 -6,0 0,-6z M18,180l6,0 0,6 -6,0 0,-6z M30,180l6,0 0,6 -6,0 0,-6z M54,180l6,0 0,6 -6,0 0,-6z M60,180l6,0 0,6 -6,0 0,-6z M72,180l6,0 0,6 -6,0 0,-6z M78,180l6,0 0,6 -6,0 0,-6z M84,180l6,0 0,6 -6,0 0,-6z M108,180l6,0 0,6 -6,0 0,-6z M138,180l6,0 0,6 -6,0 0,-6z M150,180l6,0 0,6 -6,0 0,-6z M162,180l6,0 0,6 -6,0 0,-6z M174,180l6,0 0,6 -6,0 0,-6z M186,180l6,0 0,6 -6,0 0,-6z M192,180l6,0 0,6 -6,0 0,-6z M198,180l6,0 0,6 -6,0 0,-6z M204,180l6,0 0,6 -6,0 0,-6z M228,180l6,0 0,6 -6,0 0,-6z M240,180l6,0 0,6 -6,0 0,-6z M264,180l6,0 0,6 -6,0 0,-6z M6,186l6,0 0,6 -6,0 0,-6z M36,186l6,0 0,6 -6,0 0,-6z M42,186l6,0 0,6 -6,0 0,-6z M48,186l6,0 0,6 -6,0 0,-6z M66,186l6,0 0,6 -6,0 0,-6z M90,186l6,0 0,6 -6,0 0,-6z M96,186l6,0 0,6 -6,0 0,-6z M108,186l6,0 0,6 -6,0 0,-6z M126,186l6,0 0,6 -6,0 0,-6z M144,186l6,0 0,6 -6,0 0,-6z M150,186l6,0 0,6 -6,0 0,-6z M162,186l6,0 0,6 -6,0 0,-6z M168,186l6,0 0,6 -6,0 0,-6z M174,186l6,0 0,6 -6,0 0,-6z M180,186l6,0 0,6 -6,0 0,-6z M186,186l6,0 0,6 -6,0 0,-6z M192,186l6,0 0,6 -6,0 0,-6z M216,186l6,0 0,6 -6,0 0,-6z M222,186l6,0 0,6 -6,0 0,-6z M252,186l6,0 0,6 -6,0 0,-6z M258,186l6,0 0,6 -6,0 0,-6z M264,186l6,0 0,6 -6,0 0,-6z M12,192l6,0 0,6 -6,0 0,-6z M18,192l6,0 0,6 -6,0 0,-6z M30,192l6,0 0,6 -6,0 0,-6z M36,192l6,0 0,6 -6,0 0,-6z M66,192l6,0 0,6 -6,0 0,-6z M84,192l6,0 0,6 -6,0 0,-6z M114,192l6,0 0,6 -6,0 0,-6z M120,192l6,0 0,6 -6,0 0,-6z M126,192l6,0 0,6 -6,0 0,-6z M132,192l6,0 0,6 -6,0 0,-6z M186,192l6,0 0,6 -6,0 0,-6z M198,192l6,0 0,6 -6,0 0,-6z M204,192l6,0 0,6 -6,0 0,-6z M222,192l6,0 0,6 -6,0 0,-6z M234,192l6,0 0,6 -6,0 0,-6z M240,192l6,0 0,6 -6,0 0,-6z M246,192l6,0 0,6 -6,0 0,-6z M252,192l6,0 0,6 -6,0 0,-6z M264,192l6,0 0,6 -6,0 0,-6z M270,192l6,0 0,6 -6,0 0,-6z M6,198l6,0 0,6 -6,0 0,-6z M12,198l6,0 0,6 -6,0 0,-6z M24,198l6,0 0,6 -6,0 0,-6z M30,198l6,0 0,6 -6,0 0,-6z M42,198l6,0 0,6 -6,0 0,-6z M54,198l6,0 0,6 -6,0 0,-6z M90,198l6,0 0,6 -6,0 0,-6z M96,198l6,0 0,6 -6,0 0,-6z M102,198l6,0 0,6 -6,0 0,-6z M114,198l6,0 0,6 -6,0 0,-6z M120,198l6,0 0,6 -6,0 0,-6z M132,198l6,0 0,6 -6,0 0,-6z M150,198l6,0 0,6 -6,0 0,-6z M156,198l6,0 0,6 -6,0 0,-6z M168,198l6,0 0,6 -6,0 0,-6z M180,198l6,0 0,6 -6,0 0,-6z M186,198l6,0 0,6 -6,0 0,-6z M198,198l6,0 0,6 -6,0 0,-6z M240,198l6,0 0,6 -6,0 0,-6z M246,198l6,0 0,6 -6,0 0,-6z M12,204l6,0 0,6 -6,0 0,-6z M18,204l6,0 0,6 -6,0 0,-6z M30,204l6,0 0,6 -6,0 0,-6z M48,204l6,0 0,6 -6,0 0,-6z M54,204l6,0 0,6 -6,0 0,-6z M72,204l6,0 0,6 -6,0 0,-6z M78,204l6,0 0,6 -6,0 0,-6z M96,204l6,0 0,6 -6,0 0,-6z M138,204l6,0 0,6 -6,0 0,-6z M144,204l6,0 0,6 -6,0 0,-6z M150,204l6,0 0,6 -6,0 0,-6z M162,204l6,0 0,6 -6,0 0,-6z M168,204l6,0 0,6 -6,0 0,-6z M186,204l6,0 0,6 -6,0 0,-6z M222,204l6,0 0,6 -6,0 0,-6z M234,204l6,0 0,6 -6,0 0,-6z M240,204l6,0 0,6 -6,0 0,-6z M252,204l6,0 0,6 -6,0 0,-6z M264,204l6,0 0,6 -6,0 0,-6z M30,210l6,0 0,6 -6,0 0,-6z M42,210l6,0 0,6 -6,0 0,-6z M48,210l6,0 0,6 -6,0 0,-6z M54,210l6,0 0,6 -6,0 0,-6z M60,210l6,0 0,6 -6,0 0,-6z M66,210l6,0 0,6 -6,0 0,-6z M72,210l6,0 0,6 -6,0 0,-6z M78,210l6,0 0,6 -6,0 0,-6z M108,210l6,0 0,6 -6,0 0,-6z M126,210l6,0 0,6 -6,0 0,-6z M132,210l6,0 0,6 -6,0 0,-6z M144,210l6,0 0,6 -6,0 0,-6z M150,210l6,0 0,6 -6,0 0,-6z M162,210l6,0 0,6 -6,0 0,-6z M168,210l6,0 0,6 -6,0 0,-6z M180,210l6,0 0,6 -6,0 0,-6z M186,210l6,0 0,6 -6,0 0,-6z M192,210l6,0 0,6 -6,0 0,-6z M198,210l6,0 0,6 -6,0 0,-6z M204,210l6,0 0,6 -6,0 0,-6z M216,210l6,0 0,6 -6,0 0,-6z M228,210l6,0 0,6 -6,0 0,-6z M258,210l6,0 0,6 -6,0 0,-6z M264,210l6,0 0,6 -6,0 0,-6z M12,216l6,0 0,6 -6,0 0,-6z M18,216l6,0 0,6 -6,0 0,-6z M24,216l6,0 0,6 -6,0 0,-6z M30,216l6,0 0,6 -6,0 0,-6z M48,216l6,0 0,6 -6,0 0,-6z M60,216l6,0 0,6 -6,0 0,-6z M66,216l6,0 0,6 -6,0 0,-6z M78,216l6,0 0,6 -6,0 0,-6z M84,216l6,0 0,6 -6,0 0,-6z M114,216l6,0 0,6 -6,0 0,-6z M138,216l6,0 0,6 -6,0 0,-6z M156,216l6,0 0,6 -6,0 0,-6z M162,216l6,0 0,6 -6,0 0,-6z M186,216l6,0 0,6 -6,0 0,-6z M192,216l6,0 0,6 -6,0 0,-6z M198,216l6,0 0,6 -6,0 0,-6z M204,216l6,0 0,6 -6,0 0,-6z M210,216l6,0 0,6 -6,0 0,-6z M222,216l6,0 0,6 -6,0 0,-6z M234,216l6,0 0,6 -6,0 0,-6z M240,216l6,0 0,6 -6,0 0,-6z M270,216l6,0 0,6 -6,0 0,-6z M6,222l6,0 0,6 -6,0 0,-6z M24,222l6,0 0,6 -6,0 0,-6z M30,222l6,0 0,6 -6,0 0,-6z M42,222l6,0 0,6 -6,0 0,-6z M48,222l6,0 0,6 -6,0 0,-6z M54,222l6,0 0,6 -6,0 0,-6z M66,222l6,0 0,6 -6,0 0,-6z M90,222l6,0 0,6 -6,0 0,-6z M102,222l6,0 0,6 -6,0 0,-6z M108,222l6,0 0,6 -6,0 0,-6z M114,222l6,0 0,6 -6,0 0,-6z M120,222l6,0 0,6 -6,0 0,-6z M126,222l6,0 0,6 -6,0 0,-6z M132,222l6,0 0,6 -6,0 0,-6z M138,222l6,0 0,6 -6,0 0,-6z M144,222l6,0 0,6 -6,0 0,-6z M150,222l6,0 0,6 -6,0 0,-6z M162,222l6,0 0,6 -6,0 0,-6z M168,222l6,0 0,6 -6,0 0,-6z M180,222l6,0 0,6 -6,0 0,-6z M186,222l6,0 0,6 -6,0 0,-6z M198,222l6,0 0,6 -6,0 0,-6z M210,222l6,0 0,6 -6,0 0,-6z M222,222l6,0 0,6 -6,0 0,-6z M228,222l6,0 0,6 -6,0 0,-6z M234,222l6,0 0,6 -6,0 0,-6z M240,222l6,0 0,6 -6,0 0,-6z M246,222l6,0 0,6 -6,0 0,-6z M264,222l6,0 0,6 -6,0 0,-6z M54,228l6,0 0,6 -6,0 0,-6z M72,228l6,0 0,6 -6,0 0,-6z M78,228l6,0 0,6 -6,0 0,-6z M96,228l6,0 0,6 -6,0 0,-6z M120,228l6,0 0,6 -6,0 0,-6z M126,228l6,0 0,6 -6,0 0,-6z M150,228l6,0 0,6 -6,0 0,-6z M162,228l6,0 0,6 -6,0 0,-6z M174,228l6,0 0,6 -6,0 0,-6z M180,228l6,0 0,6 -6,0 0,-6z M186,228l6,0 0,6 -6,0 0,-6z M204,228l6,0 0,6 -6,0 0,-6z M222,228l6,0 0,6 -6,0 0,-6z M246,228l6,0 0,6 -6,0 0,-6z M252,228l6,0 0,6 -6,0 0,-6z M264,228l6,0 0,6 -6,0 0,-6z M6,234l6,0 0,6 -6,0 0,-6z M12,234l6,0 0,6 -6,0 0,-6z M18,234l6,0 0,6 -6,0 0,-6z M24,234l6,0 0,6 -6,0 0,-6z M30,234l6,0 0,6 -6,0 0,-6z M36,234l6,0 0,6 -6,0 0,-6z M42,234l6,0 0,6 -6,0 0,-6z M72,234l6,0 0,6 -6,0 0,-6z M114,234l6,0 0,6 -6,0 0,-6z M120,234l6,0 0,6 -6,0 0,-6z M126,234l6,0 0,6 -6,0 0,-6z M138,234l6,0 0,6 -6,0 0,-6z M150,234l6,0 0,6 -6,0 0,-6z M156,234l6,0 0,6 -6,0 0,-6z M162,234l6,0 0,6 -6,0 0,-6z M168,234l6,0 0,6 -6,0 0,-6z M174,234l6,0 0,6 -6,0 0,-6z M180,234l6,0 0,6 -6,0 0,-6z M186,234l6,0 0,6 -6,0 0,-6z M222,234l6,0 0,6 -6,0 0,-6z M234,234l6,0 0,6 -6,0 0,-6z M246,234l6,0 0,6 -6,0 0,-6z M258,234l6,0 0,6 -6,0 0,-6z M6,240l6,0 0,6 -6,0 0,-6z M42,240l6,0 0,6 -6,0 0,-6z M54,240l6,0 0,6 -6,0 0,-6z M66,240l6,0 0,6 -6,0 0,-6z M120,240l6,0 0,6 -6,0 0,-6z M126,240l6,0 0,6 -6,0 0,-6z M150,240l6,0 0,6 -6,0 0,-6z M156,240l6,0 0,6 -6,0 0,-6z M168,240l6,0 0,6 -6,0 0,-6z M186,240l6,0 0,6 -6,0 0,-6z M198,240l6,0 0,6 -6,0 0,-6z M216,240l6,0 0,6 -6,0 0,-6z M222,240l6,0 0,6 -6,0 0,-6z M246,240l6,0 0,6 -6,0 0,-6z M252,240l6,0 0,6 -6,0 0,-6z M270,240l6,0 0,6 -6,0 0,-6z M6,246l6,0 0,6 -6,0 0,-6z M18,246l6,0 0,6 -6,0 0,-6z M24,246l6,0 0,6 -6,0 0,-6z M30,246l6,0 0,6 -6,0 0,-6z M42,246l6,0 0,6 -6,0 0,-6z M54,246l6,0 0,6 -6,0 0,-6z M60,246l6,0 0,6 -6,0 0,-6z M66,246l6,0 0,6 -6,0 0,-6z M90,246l6,0 0,6 -6,0 0,-6z M102,246l6,0 0,6 -6,0 0,-6z M108,246l6,0 0,6 -6,0 0,-6z M114,246l6,0 0,6 -6,0 0,-6z M120,246l6,0 0,6 -6,0 0,-6z M126,246l6,0 0,6 -6,0 0,-6z M132,246l6,0 0,6 -6,0 0,-6z M138,246l6,0 0,6 -6,0 0,-6z M144,246l6,0 0,6 -6,0 0,-6z M150,246l6,0 0,6 -6,0 0,-6z M162,246l6,0 0,6 -6,0 0,-6z M168,246l6,0 0,6 -6,0 0,-6z M180,246l6,0 0,6 -6,0 0,-6z M198,246l6,0 0,6 -6,0 0,-6z M210,246l6,0 0,6 -6,0 0,-6z M222,246l6,0 0,6 -6,0 0,-6z M228,246l6,0 0,6 -6,0 0,-6z M234,246l6,0 0,6 -6,0 0,-6z M240,246l6,0 0,6 -6,0 0,-6z M246,246l6,0 0,6 -6,0 0,-6z M264,246l6,0 0,6 -6,0 0,-6z M270,246l6,0 0,6 -6,0 0,-6z M6,252l6,0 0,6 -6,0 0,-6z M18,252l6,0 0,6 -6,0 0,-6z M24,252l6,0 0,6 -6,0 0,-6z M30,252l6,0 0,6 -6,0 0,-6z M42,252l6,0 0,6 -6,0 0,-6z M72,252l6,0 0,6 -6,0 0,-6z M78,252l6,0 0,6 -6,0 0,-6z M96,252l6,0 0,6 -6,0 0,-6z M126,252l6,0 0,6 -6,0 0,-6z M132,252l6,0 0,6 -6,0 0,-6z M162,252l6,0 0,6 -6,0 0,-6z M168,252l6,0 0,6 -6,0 0,-6z M174,252l6,0 0,6 -6,0 0,-6z M180,252l6,0 0,6 -6,0 0,-6z M186,252l6,0 0,6 -6,0 0,-6z M204,252l6,0 0,6 -6,0 0,-6z M246,252l6,0 0,6 -6,0 0,-6z M252,252l6,0 0,6 -6,0 0,-6z M270,252l6,0 0,6 -6,0 0,-6z M6,258l6,0 0,6 -6,0 0,-6z M18,258l6,0 0,6 -6,0 0,-6z M24,258l6,0 0,6 -6,0 0,-6z M30,258l6,0 0,6 -6,0 0,-6z M42,258l6,0 0,6 -6,0 0,-6z M66,258l6,0 0,6 -6,0 0,-6z M96,258l6,0 0,6 -6,0 0,-6z M108,258l6,0 0,6 -6,0 0,-6z M114,258l6,0 0,6 -6,0 0,-6z M132,258l6,0 0,6 -6,0 0,-6z M150,258l6,0 0,6 -6,0 0,-6z M162,258l6,0 0,6 -6,0 0,-6z M174,258l6,0 0,6 -6,0 0,-6z M180,258l6,0 0,6 -6,0 0,-6z M186,258l6,0 0,6 -6,0 0,-6z M192,258l6,0 0,6 -6,0 0,-6z M204,258l6,0 0,6 -6,0 0,-6z M234,258l6,0 0,6 -6,0 0,-6z M246,258l6,0 0,6 -6,0 0,-6z M258,258l6,0 0,6 -6,0 0,-6z M270,258l6,0 0,6 -6,0 0,-6z M6,264l6,0 0,6 -6,0 0,-6z M42,264l6,0 0,6 -6,0 0,-6z M54,264l6,0 0,6 -6,0 0,-6z M66,264l6,0 0,6 -6,0 0,-6z M72,264l6,0 0,6 -6,0 0,-6z M78,264l6,0 0,6 -6,0 0,-6z M84,264l6,0 0,6 -6,0 0,-6z M90,264l6,0 0,6 -6,0 0,-6z M126,264l6,0 0,6 -6,0 0,-6z M138,264l6,0 0,6 -6,0 0,-6z M150,264l6,0 0,6 -6,0 0,-6z M198,264l6,0 0,6 -6,0 0,-6z M210,264l6,0 0,6 -6,0 0,-6z M216,264l6,0 0,6 -6,0 0,-6z M222,264l6,0 0,6 -6,0 0,-6z M228,264l6,0 0,6 -6,0 0,-6z M6,270l6,0 0,6 -6,0 0,-6z M12,270l6,0 0,6 -6,0 0,-6z M18,270l6,0 0,6 -6,0 0,-6z M24,270l6,0 0,6 -6,0 0,-6z M30,270l6,0 0,6 -6,0 0,-6z M36,270l6,0 0,6 -6,0 0,-6z M42,270l6,0 0,6 -6,0 0,-6z M54,270l6,0 0,6 -6,0 0,-6z M60,270l6,0 0,6 -6,0 0,-6z M66,270l6,0 0,6 -6,0 0,-6z M72,270l6,0 0,6 -6,0 0,-6z M90,270l6,0 0,6 -6,0 0,-6z M102,270l6,0 0,6 -6,0 0,-6z M108,270l6,0 0,6 -6,0 0,-6z M114,270l6,0 0,6 -6,0 0,-6z M126,270l6,0 0,6 -6,0 0,-6z M132,270l6,0 0,6 -6,0 0,-6z M144,270l6,0 0,6 -6,0 0,-6z M150,270l6,0 0,6 -6,0 0,-6z M156,270l6,0 0,6 -6,0 0,-6z M162,270l6,0 0,6 -6,0 0,-6z M168,270l6,0 0,6 -6,0 0,-6z M180,270l6,0 0,6 -6,0 0,-6z M186,270l6,0 0,6 -6,0 0,-6z M198,270l6,0 0,6 -6,0 0,-6z M204,270l6,0 0,6 -6,0 0,-6z M222,270l6,0 0,6 -6,0 0,-6z M240,270l6,0 0,6 -6,0 0,-6z M246,270l6,0 0,6 -6,0 0,-6z M270,270l6,0 0,6 -6,0 0,-6z " stroke="transparent" fill="#000000"/></svg>